<svg xmlns="http://www.w3.org/2000/svg" xmlns:xlink="http://www.w3.org/1999/xlink" width="332.334" height="264.207" viewBox="0 0 332.334 264.207">
  <defs>
    <linearGradient id="linear-gradient" x1="0.5" y1="1" x2="0.5" gradientUnits="objectBoundingBox">
      <stop offset="0" stop-color="gray" stop-opacity="0.251"/>
      <stop offset="0.54" stop-color="gray" stop-opacity="0.122"/>
      <stop offset="1" stop-color="gray" stop-opacity="0.102"/>
    </linearGradient>
  </defs>
  <g id="Group_9" data-name="Group 9" transform="translate(-35 -181)">
    <path id="Path_39" data-name="Path 39" d="M292.465,105.634c-21.028-.731-41.059-7.518-60.184-14.946S194.214,75.03,173.69,71.1c-13.2-2.531-28.3-2.888-38.934,4.188-10.238,6.823-13.546,18.569-15.323,29.479-1.339,8.207-2.125,16.843,1.543,24.528,2.544,5.335,7.064,9.819,10.186,14.946,10.875,17.779,3.191,39.7-8.594,57.064-5.524,8.146-11.941,15.921-16.2,24.583s-6.238,18.6-2.508,27.445c3.7,8.773,12.516,15.349,22.062,19.979,19.394,9.406,42.239,12.1,64.531,13.62,49.331,3.376,98.923,1.914,148.384.452,18.306-.543,36.689-1.092,54.7-3.922,10-1.573,20.323-4.065,27.585-10.089,9.215-7.645,11.5-20.593,5.325-30.178-10.361-16.08-38.99-20.073-46.242-37.332-3.983-9.5.11-20.076,5.9-28.888,12.425-18.9,33.248-35.477,34.346-57.077.754-14.839-9.26-29.694-24.739-36.715-16.223-7.385-38.726-6.45-50.69,5.731C332.689,101.462,311.03,106.277,292.465,105.634Z" transform="translate(-62.563 120.013)" fill="#ff4f18" opacity="0.1"/>
    <path id="Path_40" data-name="Path 40" d="M181.421,493.091,70.21,492.548,59.16,466.63l39.074-2.836-6.81-28.417,77.284-10.017L94.7,399.633l6.537-1.553,119,19.414-6.553,44.347-9.367,24.372Z" transform="translate(-4.938 -87.741)" fill="#6c63ff"/>
    <path id="Path_41" data-name="Path 41" d="M187,698.62s6.823-1.092,10.917,3.73c0,0-3,2.365-9.461-.91Z" transform="translate(-120.022 -304.668)" fill="#6c63ff"/>
    <path id="Path_42" data-name="Path 42" d="M178.976,698.51s-4.354,5.358-2.209,11.323c0,0,3.548-1.42,3.935-8.652Z" transform="translate(-112.713 -304.665)" fill="#6c63ff"/>
    <path id="Path_43" data-name="Path 43" d="M172.76,667.8s2.729-5.007,13.646,2c0,0-1.456,3.366-6.277,3.093S174.034,670.438,172.76,667.8Z" transform="translate(-110.409 -282.764)" fill="#6c63ff"/>
    <path id="Path_44" data-name="Path 44" d="M157.682,670.279s-5.663-.65-6.212,12.314c0,0,3.59.744,6.141-3.356S159.115,672.836,157.682,670.279Z" transform="translate(-96.036 -285.603)" fill="#6c63ff"/>
    <path id="Path_45" data-name="Path 45" d="M160.44,628.483s3.184-8.825,14.738-2.547c0,0-2.638,8.1-13.555,5.549Z" transform="translate(-102.092 -254.15)" fill="#ff4f18"/>
    <path id="Path_46" data-name="Path 46" d="M149.52,589.212s6-8.916,16.649-.65c0,0-3.73,8.37-15.739,3.821Z" transform="translate(-94.72 -228.07)" fill="#ff4f18"/>
    <path id="Path_47" data-name="Path 47" d="M145.6,551.656s7.005-8.191,17.545,0c0,0-6.641,7.187-17.545,2.092Z" transform="translate(-92.073 -203.069)" fill="#ff4f18"/>
    <path id="Path_48" data-name="Path 48" d="M142.24,513.505s7.1-8.552,17.194-.455c0,0-8.006,7.551-17.194,2.456Z" transform="translate(-89.805 -177.112)" fill="#ff4f18"/>
    <path id="Path_49" data-name="Path 49" d="M144.2,475.61s7.473-11.008,16.921-3.548c0,0-8.006,9.461-16.921,5.641Z" transform="translate(-91.128 -150.043)" fill="#ff4f18"/>
    <path id="Path_50" data-name="Path 50" d="M149.52,437.6s7.915-10.917,17.1-2.547c0,0-9.37,9.461-17.1,4.549Z" transform="translate(-94.72 -124.675)" fill="#ff4f18"/>
    <path id="Path_51" data-name="Path 51" d="M156.789,399.835s9.37-10.261,17.545-6.173c0,0-9.764,10.9-17.955,8.9Z" transform="translate(-99.351 -98.217)" fill="#ff4f18"/>
    <path id="Path_52" data-name="Path 52" d="M166.127,362.507s10.813-12.568,17.1-8.37c0,0-7.967,9.747-17.87,10.722Z" transform="translate(-105.413 -71.604)" fill="#ff4f18"/>
    <path id="Path_53" data-name="Path 53" d="M179.63,326.559s9.465-10.261,16.379-7.713c0,0-8.1,10.644-17.649,10.917Z" transform="translate(-114.189 -48.084)" fill="#ff4f18"/>
    <path id="Path_54" data-name="Path 54" d="M194.495,290.4s10.462-9.825,15.011-8.1c0,0-7.551,10.917-15.466,10.28Z" transform="translate(-124.775 -23.554)" fill="#ff4f18"/>
    <path id="Path_55" data-name="Path 55" d="M208.32,252s9.007-11.739,13.923-10.829c0,0-5.462,10.465-13.923,12.022Z" transform="translate(-134.415 4.109)" fill="#ff4f18"/>
    <path id="Path_56" data-name="Path 56" d="M221.618,211.407s7.96-9,12.262-8.977c0,0-6.284,12.022-12.59,11.911Z" transform="translate(-143.171 30.232)" fill="#ff4f18"/>
    <path id="Path_57" data-name="Path 57" d="M228.548,161.461l7.691-18.741s.383,16.941-8.669,22.218Z" transform="translate(-147.41 70.541)" fill="#ff4f18"/>
    <path id="Path_58" data-name="Path 58" d="M240.082,101.625s1.274-15.651.455-16.925c0,0,5.5,13.013-.507,23.839Z" transform="translate(-155.822 109.71)" fill="#ff4f18"/>
    <path id="Path_59" data-name="Path 59" d="M132.226,635.743s-7.973-4.942-13.136,7.148c0,0,7.1,4.711,14.075-4.065Z" transform="translate(-74.177 -261.617)" fill="#ff4f18"/>
    <path id="Path_60" data-name="Path 60" d="M118.554,594.72s-9.78-4.461-14.524,8.162c0,0,7.554,5.2,15.414-4.971Z" transform="translate(-64.01 -234.082)" fill="#ff4f18"/>
    <path id="Path_61" data-name="Path 61" d="M107.745,553.966s-7.005-8.191-17.545,0c0,0,6.641,7.187,17.545,2.092Z" transform="translate(-54.674 -204.628)" fill="#ff4f18"/>
    <path id="Path_62" data-name="Path 62" d="M105.774,513.505s-7.1-8.552-17.194-.455c0,0,8.006,7.551,17.194,2.456Z" transform="translate(-53.58 -177.112)" fill="#ff4f18"/>
    <path id="Path_63" data-name="Path 63" d="M111.377,471.976s-4.978-12.33-15.8-7.028c0,0,5.848,10.933,15.355,9.075Z" transform="translate(-58.306 -146.096)" fill="#ff4f18"/>
    <path id="Path_64" data-name="Path 64" d="M118.371,432.082s-4.948-12.545-15.921-6.729c0,0,6.719,11.5,15.433,8.665Z" transform="translate(-62.943 -119.222)" fill="#ff4f18"/>
    <path id="Path_65" data-name="Path 65" d="M137.937,383.715s-1.949-13.754-11.047-14.985c0,0,1.93,14.5,9.822,17.464Z" transform="translate(-79.443 -82.035)" fill="#ff4f18"/>
    <path id="Path_66" data-name="Path 66" d="M151.222,346.129s-.76-16.571-8.282-17.149c0,0,.253,12.577,7.434,19.495Z" transform="translate(-90.278 -55.2)" fill="#ff4f18"/>
    <path id="Path_67" data-name="Path 67" d="M165.092,309.873s-2.242-13.78-9.422-15.463c0,0,.89,13.344,8.711,18.845Z" transform="translate(-98.872 -31.863)" fill="#ff4f18"/>
    <path id="Path_68" data-name="Path 68" d="M187.493,273.793s-.075-14.355-4.461-16.463c0,0-2.72,13,3.191,18.3Z" transform="translate(-116.922 -6.83)" fill="#ff4f18"/>
    <path id="Path_69" data-name="Path 69" d="M198.263,239.073s-.614-14.78-5.156-16.863c0,0-1.553,11.7,4.477,17.831Z" transform="translate(-124.024 16.879)" fill="#ff4f18"/>
    <path id="Path_70" data-name="Path 70" d="M215.258,202.852s-.026-12.022-3.269-14.842c0,0-3.223,13.169,1.576,17.259Z" transform="translate(-136.177 39.967)" fill="#ff4f18"/>
    <path id="Path_71" data-name="Path 71" d="M220.35,157.008,217.2,137s-4.286,16.4,3.3,23.621Z" transform="translate(-139.593 74.403)" fill="#ff4f18"/>
    <path id="Path_72" data-name="Path 72" d="M214.816,106.316s-8.1-13.451-7.931-14.946c0,0,.861,14.1,11.047,21.119Z" transform="translate(-133.444 105.207)" fill="#ff4f18"/>
    <path id="Path_73" data-name="Path 73" d="M211.159,82.231s-7.642-19.1-11.1-20.651c0,0,10.917,5.55,11.736,20.106Z" transform="translate(-128.839 125.318)" fill="#ff4f18"/>
    <path id="Path_74" data-name="Path 74" d="M220.083,159.739l-.523-.159c6.45-21.032,8.058-34.441,4.533-37.8l.374-.4C228.206,124.928,226.689,138.191,220.083,159.739Z" transform="translate(-142.003 84.948)" fill="#444053"/>
    <path id="Path_75" data-name="Path 75" d="M164.9,285.491l-.773-.276c.686-1.927,1.423-3.883,2.2-5.809,6.732-16.778,12.464-32.387,16.138-44.37l.673-.325c-3.681,12.006-9.312,28.212-16.051,45.013C166.317,281.614,165.582,283.561,164.9,285.491Z" transform="translate(-104.583 8.44)" fill="#444053"/>
    <path id="Path_76" data-name="Path 76" d="M164.781,502.966c-.1-.114-10.556-11.885-17.844-31.981a118.325,118.325,0,0,1-7.041-36.644c-.5-15.638,2.781-33.1,8.4-48.961l.611.715c-12.62,35.6-7.606,66.107-.955,84.477,7.21,19.914,17.545,31.556,17.646,31.673Z" transform="translate(-88.189 -93.275)" fill="#444053"/>
    <path id="Path_77" data-name="Path 77" d="M576.84,670.36s-7.366,8.99-1.517,22.581l-58.809,25.506-5.644,1.183-2.6-11.372,1.738-14.351v-7.843Z" transform="translate(-336.907 -285.662)" fill="#d5d6db"/>
    <path id="Path_78" data-name="Path 78" d="M59.16,578.229l81.4-14.839,107.855,17.181-66.99,24.118Z" transform="translate(-4.938 -199.34)" fill="#6c63ff"/>
    <path id="Path_79" data-name="Path 79" d="M59.16,578.229l81.4-14.839,107.855,17.181-66.99,24.118Z" transform="translate(-4.938 -199.34)" fill="#ff4f18"/>
    <path id="Path_80" data-name="Path 80" d="M141.373,652.47s-7.613,14.423,1.16,27.744L263.238,706.37s-7.492-11.489.387-27.436Z" transform="translate(-87.151 -273.584)" fill="#6c63ff"/>
    <path id="Path_81" data-name="Path 81" d="M141.373,652.47s-7.613,14.423,1.16,27.744L263.238,706.37s-7.492-11.489.387-27.436Z" transform="translate(-87.151 -273.584)" fill="#ff4f18" opacity="0.77"/>
    <path id="Path_82" data-name="Path 82" d="M154.792,667.86s-4.351,10.553,0,17.383" transform="translate(-96.974 -283.974)" opacity="0.1"/>
    <path id="Path_83" data-name="Path 83" d="M272.015,758.615,339.4,729.86s3.769.812,1.332,3.574-67.419,27.943-67.419,27.943l-122-28.917Z" transform="translate(-95.928 -325.829)" fill="#6c63ff"/>
    <path id="Path_84" data-name="Path 84" d="M272.015,758.615,339.4,729.86s3.769.812,1.332,3.574-67.419,27.943-67.419,27.943l-122-28.917Z" transform="translate(-95.928 -325.829)" fill="#ff4f18"/>
    <path id="Path_85" data-name="Path 85" d="M499.809,742.86s-6.5,7.8,0,19.495" transform="translate(-329.246 -334.606)" opacity="0.1"/>
    <rect id="Rectangle_185" data-name="Rectangle 185" width="30.727" height="0.325" transform="translate(172.877 417.846) rotate(-18.45)" opacity="0.1"/>
    <rect id="Rectangle_186" data-name="Rectangle 186" width="37.44" height="0.325" transform="translate(172.866 420.462) rotate(-20.82)" opacity="0.1"/>
    <rect id="Rectangle_187" data-name="Rectangle 187" width="43.395" height="0.325" transform="translate(173.061 423.546) rotate(-22.26)" opacity="0.1"/>
    <rect id="Rectangle_188" data-name="Rectangle 188" width="49.952" height="0.325" transform="translate(173.53 426.265) rotate(-24.31)" opacity="0.1"/>
    <rect id="Rectangle_189" data-name="Rectangle 189" width="54.634" height="0.325" transform="matrix(0.916, -0.401, 0.401, 0.916, 173.891, 427.588)" opacity="0.1"/>
    <rect id="Rectangle_190" data-name="Rectangle 190" width="65.379" height="0.325" transform="translate(174.647 429.81) rotate(-23.36)" opacity="0.1"/>
    <path id="Path_86" data-name="Path 86" d="M152.23,588.962l57.185-12.022,34.837,6.661-46.859,15.108Z" transform="translate(-67.769 -208.487)" fill="#fff" opacity="0.3"/>
    <path id="Path_87" data-name="Path 87" d="M591,659.69s2.957,1.192,1.222,3.035S524,683.808,524,683.808Z" transform="translate(-347.527 -278.458)" fill="#ff4f18"/>
    <path id="Path_88" data-name="Path 88" d="M676.136,574.18s-7.363,8.987-1.514,22.581l-58.809,25.506-5.644,1.189-2.6-11.372,1.764-14.348v-7.853Z" transform="translate(-403.944 -220.732)" fill="#d5d6db"/>
    <path id="Path_89" data-name="Path 89" d="M158.46,482.045l81.394-14.836,107.858,17.181-66.99,24.118Z" transform="translate(-71.974 -134.41)" fill="#bd360b"/>
    <path id="Path_90" data-name="Path 90" d="M240.629,556.29s-7.616,14.423,1.157,27.744L362.49,610.19s-7.489-11.5.4-27.439Z" transform="translate(-154.156 -208.655)" fill="#3a3768"/>
    <path id="Path_91" data-name="Path 91" d="M240.629,556.29s-7.616,14.423,1.157,27.744L362.49,610.19s-7.489-11.5.4-27.439l-38.171-8.263Z" transform="translate(-154.156 -208.655)" fill="#bd360b" opacity="0.74"/>
    <path id="Path_92" data-name="Path 92" d="M254.085,571.68s-4.347,10.55,0,17.383" transform="translate(-164.006 -219.044)" opacity="0.1"/>
    <path id="Path_93" data-name="Path 93" d="M371.305,662.435,438.7,633.68s3.766.812,1.329,3.574S372.6,665.2,372.6,665.2l-122-28.917Z" transform="translate(-162.958 -260.9)" fill="#3a3768"/>
    <path id="Path_94" data-name="Path 94" d="M371.305,662.435,438.7,633.68s3.766.812,1.329,3.574S372.6,665.2,372.6,665.2l-122-28.917Z" transform="translate(-162.958 -260.9)" fill="#bd360b" opacity="0.97"/>
    <path id="Path_95" data-name="Path 95" d="M599.1,646.68s-6.5,7.8,0,19.495" transform="translate(-396.275 -269.676)" opacity="0.1"/>
    <rect id="Rectangle_191" data-name="Rectangle 191" width="30.727" height="0.325" transform="translate(205.14 386.6) rotate(-18.45)" opacity="0.1"/>
    <rect id="Rectangle_192" data-name="Rectangle 192" width="37.44" height="0.325" transform="translate(205.133 389.214) rotate(-20.82)" opacity="0.1"/>
    <rect id="Rectangle_193" data-name="Rectangle 193" width="43.395" height="0.325" transform="translate(205.324 392.293) rotate(-22.26)" opacity="0.1"/>
    <rect id="Rectangle_194" data-name="Rectangle 194" width="49.952" height="0.325" transform="translate(205.796 395.013) rotate(-24.31)" opacity="0.1"/>
    <rect id="Rectangle_195" data-name="Rectangle 195" width="54.634" height="0.325" transform="matrix(0.916, -0.401, 0.401, 0.916, 206.152, 396.332)" opacity="0.1"/>
    <rect id="Rectangle_196" data-name="Rectangle 196" width="65.379" height="0.325" transform="translate(206.91 398.554) rotate(-23.36)" opacity="0.1"/>
    <path id="Path_96" data-name="Path 96" d="M251.53,492.782l57.185-12.022,34.837,6.661-46.859,15.108Z" transform="translate(-134.805 -143.557)" fill="#fff" opacity="0.45"/>
    <path id="Path_97" data-name="Path 97" d="M690.32,563.51s2.953,1.192,1.222,3.031-68.212,21.084-68.212,21.084Z" transform="translate(-414.583 -213.529)" fill="#bd360b"/>
    <path id="Path_98" data-name="Path 98" d="M685.557,464.15s-7.366,16.138-1.517,29.729L625.23,512.237,619.6,513.43,617,502.058l1.738-14.351v-7.853Z" transform="translate(-410.31 -146.452)" fill="#d5d6db"/>
    <path id="Path_99" data-name="Path 99" d="M167.89,372.019l81.4-14.839,107.858,17.181L290.151,398.48Z" transform="translate(-78.34 -60.13)" fill="#ff4f18"/>
    <path id="Path_100" data-name="Path 100" d="M250.084,446.26s-7.626,14.423,1.147,27.744L371.936,500.16s-7.492-11.5.4-27.436Z" transform="translate(-160.535 -134.375)" fill="#6c63ff"/>
    <path id="Path_101" data-name="Path 101" d="M250.084,446.26s-7.626,14.423,1.147,27.744L371.936,500.16s-7.492-11.5.4-27.436Z" transform="translate(-160.535 -134.375)" fill="#ff4f18" opacity="0.77"/>
    <path id="Path_102" data-name="Path 102" d="M263.522,461.65s-4.351,10.553,0,17.383" transform="translate(-170.376 -144.764)" opacity="0.1"/>
    <path id="Path_103" data-name="Path 103" d="M380.745,557.805,448.132,536.2s3.769.812,1.332,3.574-67.419,20.794-67.419,20.794l-122-28.917Z" transform="translate(-169.33 -192.02)" fill="#6c63ff"/>
    <path id="Path_104" data-name="Path 104" d="M380.745,557.805,448.132,536.2s3.769.812,1.332,3.574-67.419,20.794-67.419,20.794l-122-28.917Z" transform="translate(-169.33 -192.02)" fill="#ff4f18" opacity="0.84"/>
    <path id="Path_105" data-name="Path 105" d="M608.539,536.65s-6.5,7.8,0,19.495" transform="translate(-402.648 -195.396)" opacity="0.1"/>
    <rect id="Rectangle_197" data-name="Rectangle 197" width="30.727" height="0.325" transform="translate(208.208 350.849) rotate(-18.45)" opacity="0.1"/>
    <rect id="Rectangle_198" data-name="Rectangle 198" width="37.44" height="0.325" transform="translate(208.199 353.465) rotate(-20.82)" opacity="0.1"/>
    <rect id="Rectangle_199" data-name="Rectangle 199" width="43.395" height="0.325" transform="translate(208.387 356.546) rotate(-22.26)" opacity="0.1"/>
    <rect id="Rectangle_200" data-name="Rectangle 200" width="49.952" height="0.325" transform="translate(208.864 359.262) rotate(-24.31)" opacity="0.1"/>
    <rect id="Rectangle_201" data-name="Rectangle 201" width="54.634" height="0.325" transform="matrix(0.916, -0.401, 0.401, 0.916, 209.221, 360.585)" opacity="0.1"/>
    <rect id="Rectangle_202" data-name="Rectangle 202" width="65.379" height="0.325" transform="translate(209.978 362.809) rotate(-23.36)" opacity="0.1"/>
    <path id="Path_106" data-name="Path 106" d="M260.96,382.752l57.185-12.022,34.837,6.661L306.123,392.5Z" transform="translate(-141.171 -69.278)" fill="#fff" opacity="0.3"/>
    <path id="Path_107" data-name="Path 107" d="M699.75,453.48s2.957,1.192,1.222,3.035S632.76,477.6,632.76,477.6Z" transform="translate(-420.949 -139.249)" fill="#ff4f18"/>
    <path id="Path_108" data-name="Path 108" d="M376.1,149.887s-12.347-.744-10.9,7.918a2.113,2.113,0,0,0,1.1,2.226s.023-.65,1.267-.426a5.539,5.539,0,0,0,1.345.065,2.8,2.8,0,0,0,1.641-.676h0s3.473-1.436,4.825-7.116c0,0,1-1.238.975-1.556l-2.092.89a3.749,3.749,0,0,1,.153,2.755s-.068-2.7-.471-2.638c-.081,0-1.082.523-1.082.523s1.225,2.622.3,4.526c0,0,.351-3.23-.682-4.338L371,152.9s1.433,2.707.461,4.916c0,0,.25-3.389-.77-4.708l-1.332,1.04s1.348,2.668.526,4.5c0,0-.107-3.944-.812-4.243a8.03,8.03,0,0,0-1.342,1.449s.923,1.949.348,2.96c0,0-.348-2.629-.65-2.642a8.747,8.747,0,0,0-1.28,2.924,6.323,6.323,0,0,1,1-3.1,3.48,3.48,0,0,0-1.774.92s.179-1.231,2.063-1.339a7.988,7.988,0,0,1,1.215-1.4,7.606,7.606,0,0,0-3.009.344s1-1.16,3.35-.65l1.3-1.072a11.211,11.211,0,0,0-3.509.036s1.205-1.027,3.863-.279l1.433-.855a13.02,13.02,0,0,0-3.353-.289,5.147,5.147,0,0,1,3.772.058l1.02-.458s-1.537-.3-1.988-.351-.474-.172-.474-.172a5.364,5.364,0,0,1,2.892.325A12.9,12.9,0,0,0,376.1,149.887Z" transform="translate(-240.241 65.714)" fill="#ff4f18"/>
    <path id="Path_109" data-name="Path 109" d="M910.7,259.467s-12.347-.744-10.9,7.918a2.113,2.113,0,0,0,1.1,2.226s.023-.65,1.267-.426a5.723,5.723,0,0,0,1.345.065,2.791,2.791,0,0,0,1.625-.676h0s3.477-1.436,4.825-7.116c0,0,1-1.238.975-1.556l-2.086.89a3.749,3.749,0,0,1,.153,2.755s-.068-2.7-.468-2.638c-.081,0-1.085.523-1.085.523s1.225,2.622.3,4.526c0,0,.351-3.23-.686-4.338l-1.469.858s1.433,2.707.461,4.916c0,0,.25-3.389-.77-4.708l-1.329,1.04s1.345,2.668.523,4.5c0,0-.107-3.944-.812-4.243a8.148,8.148,0,0,0-1.342,1.449s.923,1.949.351,2.96c0,0-.351-2.629-.65-2.642a8.747,8.747,0,0,0-1.28,2.924,6.3,6.3,0,0,1,1-3.1,3.5,3.5,0,0,0-1.777.919s.182-1.231,2.063-1.339a8.11,8.11,0,0,1,1.215-1.4,7.637,7.637,0,0,0-3.009.348s1-1.16,3.35-.65l1.3-1.072a11.213,11.213,0,0,0-3.509.036s1.2-1.027,3.863-.279l1.43-.855a13.019,13.019,0,0,0-3.353-.289,5.147,5.147,0,0,1,3.772.058l1.024-.458s-1.54-.3-1.992-.351-.474-.172-.474-.172a5.325,5.325,0,0,1,2.892.325A13.11,13.11,0,0,0,910.7,259.467Z" transform="translate(-601.143 -8.262)" fill="#ff4f18" opacity="0.1"/>
    <path id="Path_110" data-name="Path 110" d="M434.661,299.7s-5.38-11.154-12.23-5.657a2.11,2.11,0,0,0-1.407,2.044s.569-.3.975.9a5.758,5.758,0,0,0,.6,1.2,2.8,2.8,0,0,0,1.394,1.1h0s2.947,2.333,8.565.741a5.558,5.558,0,0,0,1.826.081l-1.793-1.387a3.771,3.771,0,0,1-2.333,1.475s2.326-1.374,2.076-1.693c-.052-.065-.975-.692-.975-.692s-1.693,2.349-3.8,2.469c0,0,2.989-1.267,3.451-2.713l-1.462-.864s-1.667,2.573-4.068,2.8c0,0,3.08-1.433,3.733-2.966l-1.553-.65s-1.673,2.476-3.675,2.655c0,0,3.392-2.018,3.308-2.781a8.236,8.236,0,0,0-1.92-.465s-1.241,1.751-2.411,1.751c0,0,2.122-1.589,1.992-1.845a8.571,8.571,0,0,0-3.184.325,6.326,6.326,0,0,1,3.194-.65,3.5,3.5,0,0,0-1.67-1.1s1.163-.442,2.174,1.147a8.016,8.016,0,0,1,1.816.377,7.628,7.628,0,0,0-1.767-2.453s1.5.3,2.187,2.6l1.576.624a10.838,10.838,0,0,0-1.742-3.044s1.482.549,2.128,3.249l1.443.832a12.855,12.855,0,0,0-1.381-3.067,5.149,5.149,0,0,1,1.787,3.321l.9.669s-.487-1.491-.65-1.907-.081-.5-.081-.5a5.332,5.332,0,0,1,1.131,2.681A12.123,12.123,0,0,0,434.661,299.7Z" transform="translate(-278.008 -30.589)" fill="#ff4f18" opacity="0.1"/>
    <path id="Path_111" data-name="Path 111" d="M818.442,196.082s-5.377-11.154-12.23-5.657a2.114,2.114,0,0,0-1.407,2.044s.572-.292.975.9a5.634,5.634,0,0,0,.6,1.205,2.788,2.788,0,0,0,1.391,1.1h0s2.95,2.333,8.565.744a5.584,5.584,0,0,0,1.829.078l-1.784-1.391a3.77,3.77,0,0,1-2.33,1.478s2.323-1.378,2.073-1.7c-.052-.065-.975-.692-.975-.692s-1.69,2.349-3.8,2.469c0,0,2.992-1.267,3.454-2.71l-1.485-.858s-1.664,2.57-4.068,2.8c0,0,3.08-1.436,3.737-2.97l-1.556-.65s-1.673,2.479-3.672,2.655c0,0,3.389-2.018,3.3-2.778a8.037,8.037,0,0,0-1.917-.465s-1.241,1.748-2.414,1.748c0,0,2.125-1.589,1.995-1.846a8.591,8.591,0,0,0-3.187.325,6.322,6.322,0,0,1,3.194-.65,3.479,3.479,0,0,0-1.667-1.1s1.163-.442,2.174,1.147a8.044,8.044,0,0,1,1.816.38,7.6,7.6,0,0,0-1.771-2.456s1.5.305,2.187,2.616l1.579.624a10.842,10.842,0,0,0-1.741-3.048s1.482.549,2.125,3.249l1.446.832a12.974,12.974,0,0,0-1.384-3.067,5.132,5.132,0,0,1,1.787,3.321l.9.669s-.484-1.491-.65-1.907-.081-.5-.081-.5a5.345,5.345,0,0,1,1.127,2.681A12.481,12.481,0,0,0,818.442,196.082Z" transform="translate(-537.093 39.364)" fill="#ff4f18" opacity="0.1"/>
    <path id="Path_112" data-name="Path 112" d="M871.312,365.886s-5.377-11.157-12.24-5.66a2.114,2.114,0,0,0-1.407,2.044s.572-.292.975.9a5.633,5.633,0,0,0,.6,1.205,2.789,2.789,0,0,0,1.391,1.1h0s2.95,2.336,8.568.744c0,0,1.566.27,1.826.078l-1.793-1.387a3.77,3.77,0,0,1-2.333,1.478s2.323-1.378,2.073-1.7c-.052-.065-.975-.692-.975-.692s-1.689,2.349-3.8,2.473c0,0,2.992-1.27,3.454-2.713l-1.465-.864s-1.663,2.573-4.068,2.8c0,0,3.08-1.436,3.737-2.97l-1.556-.65s-1.673,2.476-3.672,2.655c0,0,3.392-2.018,3.308-2.781a8.071,8.071,0,0,0-1.92-.465s-1.241,1.748-2.414,1.748c0,0,2.125-1.589,1.995-1.845a8.591,8.591,0,0,0-3.187.325,6.342,6.342,0,0,1,3.2-.65,3.474,3.474,0,0,0-1.67-1.1s1.163-.445,2.174,1.147a8.013,8.013,0,0,1,1.816.377,7.663,7.663,0,0,0-1.767-2.456s1.5.305,2.187,2.616l1.576.624a10.792,10.792,0,0,0-1.742-3.044s1.482.546,2.125,3.249l1.446.829a12.975,12.975,0,0,0-1.384-3.067,5.145,5.145,0,0,1,1.79,3.324l.9.65s-.487-1.491-.65-1.907-.081-.5-.081-.5a5.312,5.312,0,0,1,1.128,2.681A13.154,13.154,0,0,0,871.312,365.886Z" transform="translate(-572.778 -75.267)" fill="#ff4f18" opacity="0.1"/>
    <ellipse id="Ellipse_6" data-name="Ellipse 6" cx="7.47" cy="0.835" rx="7.47" ry="0.835" transform="translate(93.146 434.111)" fill="#ff4f18" opacity="0.1"/>
    <ellipse id="Ellipse_7" data-name="Ellipse 7" cx="7.47" cy="0.835" rx="7.47" ry="0.835" transform="translate(44.179 419.919)" fill="#ff4f18" opacity="0.1"/>
    <ellipse id="Ellipse_8" data-name="Ellipse 8" cx="7.47" cy="0.835" rx="7.47" ry="0.835" transform="translate(130.472 443.537)" fill="#ff4f18" opacity="0.1"/>
    <ellipse id="Ellipse_9" data-name="Ellipse 9" cx="7.47" cy="0.835" rx="7.47" ry="0.835" transform="translate(321.748 423.005)" fill="#ff4f18" opacity="0.1"/>
    <ellipse id="Ellipse_10" data-name="Ellipse 10" cx="7.47" cy="0.835" rx="7.47" ry="0.835" transform="translate(259.589 418.954)" fill="#ff4f18" opacity="0.1"/>
    <ellipse id="Ellipse_11" data-name="Ellipse 11" cx="8.834" cy="1.517" rx="8.834" ry="1.517" transform="translate(218.014 437.35)" fill="#ff4f18" opacity="0.1"/>
    <path id="Path_113" data-name="Path 113" d="M675.028,790.14s-12.3,6.355-5.946,13.841a2.378,2.378,0,0,0,2.326,1.511s-.344-.63.975-1.134a6.338,6.338,0,0,0,1.329-.7,3.122,3.122,0,0,0,1.189-1.589h0s2.515-3.366.565-9.595c0,0,.254-1.761.033-2.047L674,792.473a4.186,4.186,0,0,1,1.722,2.56s-1.625-2.557-1.949-2.274c-.072.058-.741,1.121-.741,1.121s2.677,1.816,2.876,4.175c0,0-1.508-3.3-3.135-3.775l-.932,1.664s2.924,1.781,3.249,4.458c0,0-1.7-3.4-3.434-4.081l-.686,1.758s2.82,1.793,3.08,4.022c0,0-2.359-3.727-3.207-3.61a9.008,9.008,0,0,0-.461,2.161s1.992,1.332,2.027,2.642c0,0-1.839-2.323-2.122-2.17a9.791,9.791,0,0,0,.448,3.551,7.011,7.011,0,0,1-.816-3.551,3.9,3.9,0,0,0-1.179,1.9s-.53-1.283,1.215-2.466a8.986,8.986,0,0,1,.367-2.04,8.564,8.564,0,0,0-2.69,2.053s.3-1.686,2.856-2.525l.65-1.781a12.108,12.108,0,0,0-3.35,2.041s.569-1.673,3.551-2.476l.884-1.625a14.914,14.914,0,0,0-3.386,1.625s.861-1.439,3.659-2.1l.718-1.024s-1.651.588-2.112.8-.552.107-.552.107a5.976,5.976,0,0,1,2.96-1.345A14.474,14.474,0,0,0,675.028,790.14Z" transform="translate(-444.239 -366.524)" fill="#ff4f18"/>
    <path id="Path_114" data-name="Path 114" d="M574.569,166.011c-2.125-5.774-13.822-6.316-18.9-4.844a151.717,151.717,0,0,1-15.271,2.827l-.263-.25c.526-.156.539-.539.474-1.108a17.34,17.34,0,0,1,.032-2.248,5.536,5.536,0,0,0,4.7-1.056h0c2.924-1.3,2.138-6.862,2.7-8.383.419-1.137.871-7.837,1.072-11.177h.042l.023-1.121c.029-.484.042-.767.042-.767s.286-8.168.845-9.822c.52-1.521.942-9.182,1.007-10.4v-.159l-.042-.708c.029-.517.042-1.092.039-1.7,0-2.778-.289-6.277-.325-6.843v-.3c.023-1.186-.127-7.125-5.179-9.37-1.862-.832-4.1-1.823-6.268-2.788-.559-4.825-1.836-9.624-1.725-14.485,0-.731.065-1.462.136-2.19,0,.211-.023.426-.026.65V81.2c.192-6.079,2.489-12.191,2.274-18.14-.02.582-.062,1.166-.117,1.751a18.887,18.887,0,0,0-.624-5.975,3.535,3.535,0,0,0-1.02-1.852,4.2,4.2,0,0,0-1.781-.705,35.812,35.812,0,0,0-4.676-.871,7.219,7.219,0,0,0-1.053-2.044c-3.295-4.523-8.175-8.773-13.945-9.747-2.895-.487-6.225-.081-8.194,1.988a6.146,6.146,0,0,0-.578.585c-1.059,1.264-1.514,2.924-2.6,4.185-.071.084-.153.162-.231.244-2.125,1.9-5.436,2.3-7.8,4a9.363,9.363,0,0,0-1.166,1.017,19.786,19.786,0,0,0-2.547,3.1,12.844,12.844,0,0,0-2.492,4.835c-.679,3.574,1.755,6.963,2.206,10.56,1.007,8.048-7.9,15.19-6.212,23.131A10.592,10.592,0,0,0,490,102.4c-3.473,3.145-6.43,6.2-6.43,6.2v.182h-.549l.055.65h-.055l.3,3.525-.3,5.134v.484h.019c.1,1.881.5,8.646.975,10.072.559,1.654.842,9.822.842,9.822s.617,11.544,1.183,13.071-.237,7.073,2.7,8.383h0a6.173,6.173,0,0,0,2.947,1.222c-.149,1.215-.055,2.1.429,2.372a1.417,1.417,0,0,0,.682.195,7.241,7.241,0,0,0-.53.926,13.763,13.763,0,0,1-3.405-.8c-3.152-1.3-13.611-4.224-16.648-2.167s-10.349,3.922-6.973,12.2,4.948,8.487,4.948,8.487a12.023,12.023,0,0,1,2.7,2.713c1.014,1.524,10.459,5.01,12.821,5.01a23.131,23.131,0,0,1,3.005.149s-2.564,2.248-2.222,3.555-.78,11.762-.78,11.762,2.6,2.619,3.711-.816l.039.052c.208.283,1.332,1.56,3.447-.052a19.326,19.326,0,0,1,2.749-1.742l10.241-1.449a28.986,28.986,0,0,1,3.207-.023,6.7,6.7,0,0,0,4.224-1.573c2.122.806,4.507,1.686,5.641,2.008,2.3.65,12.873,3.486,15.346,2.6a3.434,3.434,0,0,0,1.332-.949l2.359.075-1.1.221s2.151.036,5.075.075l-.124.071,3.668-.032c5.368.049,11.4.065,12.191-.114,1.241-.276,7.691-.081,9.591,0h.53s7.086-1.413,4.162-8.6c-2.248-5.524-9.159-7.129-12.227-7.57.864-.172,1.608-.305,2.1-.383,2.141-.325,6.3-2.274,6.638-2.94s3.824-2.6,4.724-3.7S576.7,171.785,574.569,166.011Zm-58.7,16.158-.348.114-.234.078-.448.442c-.357-.24-.741-.494-1.14-.754C514.408,182.091,515.133,182.134,515.874,182.169Zm30.967,9.156Z" transform="translate(-307.27 137.572)" fill="url(#linear-gradient)"/>
    <path id="Path_115" data-name="Path 115" d="M686.65,281.741s4.971,13,7.8,11.7,2.06-6.823,2.6-8.337,1.137-13,1.137-13,.273-8.123.812-9.767c.5-1.511.906-9.13.975-10.329v-.159l-.536-9.422-3.035-.757-7.038,2.6-.975,5.566-.38,2.174-.162.926Z" transform="translate(-457.33 3.742)" fill="#ffb8b8"/>
    <path id="Path_116" data-name="Path 116" d="M691.69,358.3s4.744,3.883,6.173,4.224,2.307,3.369,2.307,3.369" transform="translate(-460.732 -74.994)" opacity="0.1"/>
    <path id="Path_117" data-name="Path 117" d="M539.321,283.491s-4.971,13-7.8,11.7-2.06-6.823-2.6-8.337-1.137-13-1.137-13-.273-8.123-.812-9.767c-.5-1.511-.906-9.13-.975-10.329V253.6l.539-9.422,3.035-.757,7.038,2.6.975,5.566.38,2.174.162.926Z" transform="translate(-348.877 2.56)" fill="#ffb8b8"/>
    <rect id="Rectangle_203" data-name="Rectangle 203" width="11.096" height="17.295" transform="translate(211.72 216.501)" fill="#3e373a"/>
    <rect id="Rectangle_204" data-name="Rectangle 204" width="11.096" height="17.295" transform="translate(211.72 216.501)" opacity="0.1"/>
    <path id="Path_118" data-name="Path 118" d="M555.394,404.442s-3.792,4.169-2.385,4.926,10.508,14.946,10.508,14.946,29.892,3.681,35.529-1.842,5.523-15.391,5.523-15.391-4.529.975-5.023.445-3.207-3.083-3.207-3.083S557.994,402.115,555.394,404.442Z" transform="translate(-366.899 -105.446)" fill="#4b4b5b"/>
    <path id="Path_119" data-name="Path 119" d="M555.394,404.442s-3.792,4.169-2.385,4.926,10.508,14.946,10.508,14.946,29.892,3.681,35.529-1.842,5.523-15.391,5.523-15.391-4.529.975-5.023.445-3.207-3.083-3.207-3.083S557.994,402.115,555.394,404.442Z" transform="translate(-366.899 -105.446)" opacity="0.02"/>
    <path id="Path_120" data-name="Path 120" d="M592.3,182.286l-9.747,7.8-2.947.214-1.082.078-18.172,1.332-18.845-1.378-2.8-.2-3.574-.26-7.473-7.148a127.982,127.982,0,0,1,9.923-9.491,20.359,20.359,0,0,1,4.809-3.213l.214-.075a5.348,5.348,0,0,0,2.06-1.436c3.659-3.772,7.041-13.081,7.041-13.081s16.138-8.337,14.189,2.6,7.255,8.233,7.255,8.233l3.035,1.384,1.2.549,3.057,1.4,6.9,3.165C592.753,175.245,592.3,182.286,592.3,182.286Z" transform="translate(-349.997 64.019)" fill="#ffb8b8"/>
    <circle id="Ellipse_12" data-name="Ellipse 12" cx="14.514" cy="14.514" r="14.514" transform="translate(195.088 199.319)" opacity="0.1"/>
    <path id="Path_121" data-name="Path 121" d="M591.207,229.065H526v-.159l.539-9.422a127.977,127.977,0,0,1,9.923-9.491l40.939-1.625,1.9-2.008,6.9,3.165c5.416,2.489,4.981,9.53,4.981,9.53S591.925,227.213,591.207,229.065Z" transform="translate(-348.877 27.579)" opacity="0.1"/>
    <path id="Path_122" data-name="Path 122" d="M591.207,228.065H526v-.159l.539-9.422a127.981,127.981,0,0,1,9.923-9.491l40.939-1.625,1.9-2.008,6.9,3.165c5.416,2.489,4.981,9.53,4.981,9.53S591.925,226.213,591.207,228.065Z" transform="translate(-348.877 28.254)" fill="#e7c7ca"/>
    <path id="Path_123" data-name="Path 123" d="M585.351,188.022s10.287,13.107,23.988-.27,1.517,29.837,1.517,29.837L581.29,221.1Z" transform="translate(-386.202 41.875)" opacity="0.1"/>
    <path id="Path_124" data-name="Path 124" d="M585.351,190.022s10.287,13.107,23.988-.27,1.517,29.837,1.517,29.837L581.29,223.1Z" transform="translate(-386.202 40.525)" fill="#e7c7ca"/>
    <path id="Path_125" data-name="Path 125" d="M593.488,201.886l1.088,16.6,1.166,5.524.89,4.224s2.274,32.491,1.625,34.116.325,2.924.461,3.788-.136,3.035-.029,4.009,0,1.407-2.489,1.059-5.959-.952-5.959-.952-8.773.65-11.8-.432-8.773-1.085-8.773-1.085-8.665.218-11.479-.107-4.334,3.467-6.173,2.382,2.164-11.586,3.464-14.621-1.732-10.722-1.732-10.722l3.9-21.629.867-4.9V203.722l.214-.075a5.348,5.348,0,0,0,2.06-1.436l.975,15.511,30.542,1.085V201.35" transform="translate(-366.117 30.961)" opacity="0.1"/>
    <path id="Path_126" data-name="Path 126" d="M593.488,199.886l1.088,16.6,1.166,5.524.89,4.224s2.274,32.491,1.625,34.116.325,2.924.461,3.788-.136,3.035-.029,4.009,0,1.407-2.489,1.059-5.959-.952-5.959-.952-8.773.65-11.8-.432-8.773-1.085-8.773-1.085-8.665.218-11.479-.107-4.334,3.467-6.173,2.382,2.164-11.586,3.464-14.621-1.732-10.722-1.732-10.722l3.9-21.629.867-4.9V201.722l.214-.075a5.348,5.348,0,0,0,2.06-1.436l.975,15.511,30.542,1.085V199.35" transform="translate(-366.117 32.311)" fill="#e7c7ca"/>
    <path id="Path_127" data-name="Path 127" d="M587.557,62.569a3.58,3.58,0,0,0-.975-1.839,3.99,3.99,0,0,0-1.716-.7,33.893,33.893,0,0,0-4.51-.864,7.22,7.22,0,0,0-.975-2.024c-3.184-4.5-7.9-8.737-13.438-9.7-2.9-.5-6.264-.052-8.123,2.235-1.02,1.257-1.459,2.924-2.489,4.159-1.985,2.4-5.569,2.694-8.071,4.549a14.954,14.954,0,0,0-3.249,3.759,12.9,12.9,0,0,0-2.4,4.805c-.65,3.545,1.693,6.924,2.125,10.5.975,8-7.6,15.1-5.982,23,.946,4.6,5.2,7.847,9.6,9.491,1.55.582,3.321,1.16,4.045,2.648.325.65.38,1.4.685,2.057,1.027,2.19,4.4,2.274,6.216.679s2.385-4.175,2.6-6.583c.871-10.514-3.34-20.9-2.849-31.442.146-3.187,1.043-6.8,3.9-8.246,3.844-1.949,8.467,1.3,12.7.679a25.19,25.19,0,0,1,1.215,15.372c-.672,2.8-1.836,5.524-1.92,8.415-.127,4.4,2.248,8.425,4.3,12.317a6.553,6.553,0,0,1,.867,2.375,5.725,5.725,0,0,1-.465,2.486c-1.16,3.122-3.161,6.021-3.389,9.344a1.511,1.511,0,0,0,.244,1.111,1.4,1.4,0,0,0,.838.377c3.509.6,6.544-2.508,8.256-5.631a26.4,26.4,0,0,0,3.256-11.216c.354-6.615-2.018-13.123-1.872-19.745C586.147,77.412,589.549,69.831,587.557,62.569Z" transform="translate(-356.674 134.986)" opacity="0.1"/>
    <path id="Path_128" data-name="Path 128" d="M588.557,61.569a3.58,3.58,0,0,0-.975-1.839,3.99,3.99,0,0,0-1.716-.7,33.89,33.89,0,0,0-4.51-.864,7.218,7.218,0,0,0-.975-2.024c-3.184-4.5-7.9-8.737-13.438-9.7-2.9-.5-6.264-.052-8.123,2.235-1.02,1.257-1.459,2.924-2.489,4.159-1.985,2.4-5.569,2.694-8.071,4.549a14.954,14.954,0,0,0-3.249,3.759,12.9,12.9,0,0,0-2.4,4.805c-.65,3.545,1.693,6.924,2.125,10.5.975,8-7.6,15.1-5.982,23,.946,4.6,5.2,7.847,9.6,9.491,1.55.582,3.321,1.16,4.045,2.648.325.65.38,1.4.686,2.057,1.027,2.19,4.4,2.274,6.216.679s2.385-4.175,2.6-6.583c.871-10.514-3.34-20.9-2.849-31.442.146-3.187,1.043-6.8,3.9-8.246,3.844-1.949,8.467,1.3,12.7.679a25.19,25.19,0,0,1,1.215,15.372c-.672,2.8-1.836,5.524-1.92,8.415-.127,4.4,2.248,8.425,4.3,12.317a6.553,6.553,0,0,1,.867,2.375,5.724,5.724,0,0,1-.465,2.486c-1.16,3.122-3.161,6.021-3.389,9.344a1.511,1.511,0,0,0,.244,1.111,1.4,1.4,0,0,0,.838.377c3.509.6,6.544-2.508,8.256-5.631a26.4,26.4,0,0,0,3.256-11.216c.354-6.615-2.018-13.123-1.872-19.745C587.147,76.412,590.549,68.831,588.557,61.569Z" transform="translate(-357.349 135.661)" fill="#3e373a"/>
    <path id="Path_129" data-name="Path 129" d="M581.79,473.726l12.889.413-1.849-9.559-9.874.939Z" transform="translate(-357.759 -132.634)" fill="#c3c7d9"/>
    <path id="Path_130" data-name="Path 130" d="M668.851,424.574c-.867,1.082-4.224,3.031-4.549,3.681s-4.331,2.6-6.391,2.924-8.555,1.735-9.747,2.492c-.855.546-7.714,2.274-12.22,3.233a34.7,34.7,0,0,1-3.7.666c-1.949.107-23.283-7.148-23.283-7.148l4.113-4.224.227-.078c1.163-.393,6.537-2.209,9.52-3.074,3.36-.975,7.259-4.981,7.259-4.981s5.738-1.949,6.5-2.167-1.949-7.58-1.949-7.58,12.454-1.729,17.328-3.194,16.138-.923,18.2,4.818S669.732,423.492,668.851,424.574Z" transform="translate(-404.882 -106.139)" fill="#4b4b5b"/>
    <path id="Path_131" data-name="Path 131" d="M561.467,498.9s-2.489,2.6-4.981,2.385-11.206.65-11.206.65a17.471,17.471,0,0,0-4.39,2.544c-2.037,1.605-3.119.325-3.321.052l-.036-.052c-1.085,3.415-3.574.812-3.574.812s1.082-10.4.751-11.7,2.141-3.532,2.141-3.532l2.924-.744,7.408-1.9L557.8,491.1Z" transform="translate(-354.25 -162.161)" fill="#e7c7ca"/>
    <path id="Path_132" data-name="Path 132" d="M539.763,493.26l-2.193,15.212-.036-.052c-1.085,3.415-3.574.812-3.574.812s1.082-10.4.751-11.7S536.852,494,536.852,494Z" transform="translate(-354.25 -166.104)" opacity="0.1"/>
    <path id="Path_133" data-name="Path 133" d="M599,360.08s5.738,1.949,10.722,0" transform="translate(-398.158 -76.196)" opacity="0.1"/>
    <path id="Path_134" data-name="Path 134" d="M659.29,371.42s2.382,1.189,4.224,0" transform="translate(-438.859 -83.851)" opacity="0.1"/>
    <path id="Path_135" data-name="Path 135" d="M659.29,378.966s4.006.536,4.766-.546" transform="translate(-438.859 -88.577)" opacity="0.1"/>
    <path id="Path_136" data-name="Path 136" d="M655.29,394.024s7.525-.975,9.393-2.274" transform="translate(-436.159 -97.576)" opacity="0.1"/>
    <path id="Path_137" data-name="Path 137" d="M584.62,391.75s4.224,2.382,7.366,2.274" transform="translate(-388.45 -97.576)" opacity="0.1"/>
    <path id="Path_138" data-name="Path 138" d="M635.934,481.964a34.7,34.7,0,0,1-3.7.666c-1.949.107-23.283-7.148-23.283-7.148l4.113-4.224.227-.078c.65.458,1.183.851,1.563,1.15,1.79,1.41,3.519-.432,4.169-.432s6.281,4.656,6.281,4.656,5.2,1.192,6.066,2.274,3.9.868,4.438,1.625A2.9,2.9,0,0,1,635.934,481.964Z" transform="translate(-404.875 -151.198)" opacity="0.1"/>
    <path id="Path_139" data-name="Path 139" d="M502.58,409.761s-5.257.3-8.289-.975-13.1-4.224-16.028-2.154-9.965,3.9-6.716,12.132,4.766,8.448,4.766,8.448a11.73,11.73,0,0,1,2.6,2.7c.975,1.517,10.072,4.981,12.347,4.981s6.281,0,11.911,3.9a24.48,24.48,0,0,0,10.722,4.334s7.148,2.924,9.374,3.574,12.4,3.464,14.78,2.6,3.9-6.284,3.9-6.284,1.082-4.874.539-5.631-3.574-.543-4.438-1.625-6.066-2.274-6.066-2.274-5.618-4.659-6.268-4.659-2.378,1.839-4.169.432a95.088,95.088,0,0,0-11.213-7.148C506.219,419.94,502.58,409.761,502.58,409.761Z" transform="translate(-311.551 -107.139)" fill="#4b4b5b"/>
    <path id="Path_140" data-name="Path 140" d="M536.27,427.159a6.206,6.206,0,0,1,5.325,1.407c2.6,2.167,11.346,6.518,11.346,6.518" transform="translate(-355.81 -121.395)" opacity="0.1"/>
    <path id="Path_141" data-name="Path 141" d="M707.714,427s-11.59,1.755-13.754,4.136" transform="translate(-462.264 -121.372)" opacity="0.1"/>
    <path id="Path_142" data-name="Path 142" d="M715.4,503.666h-.51a87.356,87.356,0,0,0-9.237,0c-1.407.325-20.037,0-20.037,0l3.642-.757s-1.352-4.737-.494-5.13c0,0-4.874-3.21-1.2-5.377a11.4,11.4,0,0,1,7.635-1.254l9.224-3.126,1.771-.6s10.4.543,13.211,7.691S715.4,503.666,715.4,503.666Z" transform="translate(-456.634 -162.161)" fill="#e7c7ca"/>
    <path id="Path_143" data-name="Path 143" d="M754.485,503.7h-.51c3.025-2.5,9.868-10.092-10.465-15.628l1.771-.6s10.4.543,13.211,7.691S754.485,503.7,754.485,503.7Z" transform="translate(-495.715 -162.195)" opacity="0.1"/>
    <circle id="Ellipse_13" data-name="Ellipse 13" cx="0.569" cy="0.569" r="0.569" transform="translate(239.087 331.945)" fill="#4b4b5b"/>
    <circle id="Ellipse_14" data-name="Ellipse 14" cx="0.569" cy="0.569" r="0.569" transform="translate(235.783 332.884)" fill="#4b4b5b"/>
    <g id="Group_8" data-name="Group 8" transform="translate(181.29 201.431)" opacity="0.1">
      <path id="Path_144" data-name="Path 144" d="M620.3,118.414a25.211,25.211,0,0,0-1.865-10.443c-4.224.63-8.851-2.629-12.7-.679-2.846,1.443-3.74,5.059-3.9,8.246-.039.842-.045,1.683-.029,2.525,0-.3,0-.6.029-.9.149-3.187,1.043-6.8,3.9-8.246,3.847-1.949,8.467,1.3,12.7.679A25.144,25.144,0,0,1,620.3,118.414Z" transform="translate(-581.341 -106.548)"/>
      <path id="Path_145" data-name="Path 145" d="M553.276,119.174a10.825,10.825,0,0,0-.042-2.125c-.344-2.859-1.907-5.592-2.19-8.38-.364,3.363,1.777,6.592,2.19,10A2.031,2.031,0,0,1,553.276,119.174Z" transform="translate(-547.045 -107.903)"/>
      <path id="Path_146" data-name="Path 146" d="M562.173,210.886c-.2,2.411-.77,4.987-2.6,6.586s-5.2,1.511-6.216-.679c-.325-.65-.374-1.407-.689-2.057-.721-1.488-2.5-2.066-4.045-2.648-4.4-1.647-8.649-4.874-9.595-9.491a9.975,9.975,0,0,1-.172-1.267,10.238,10.238,0,0,0,.172,2.892c.945,4.6,5.2,7.843,9.595,9.491,1.55.582,3.324,1.16,4.045,2.648.325.65.38,1.4.689,2.057,1.023,2.19,4.4,2.274,6.216.679s2.382-4.175,2.6-6.586a37.1,37.1,0,0,0,.1-3.814C562.274,209.433,562.232,210.161,562.173,210.886Z" transform="translate(-538.823 -170.457)"/>
      <path id="Path_147" data-name="Path 147" d="M687.93,122.939v1.407c.182-6.043,2.4-12.119,2.18-18.036C689.941,111.782,688.053,117.377,687.93,122.939Z" transform="translate(-639.483 -106.31)"/>
      <path id="Path_148" data-name="Path 148" d="M655.881,202.088a4.189,4.189,0,0,0,.075-1.173,6.5,6.5,0,0,0-.867-2.375c-1.878-3.574-4.019-7.233-4.273-11.2,0,.169-.023.325-.026.507-.13,4.4,2.245,8.425,4.3,12.317a7.8,7.8,0,0,1,.793,1.923Z" transform="translate(-614.406 -161.012)"/>
      <path id="Path_149" data-name="Path 149" d="M667.414,216.91a26.439,26.439,0,0,1-3.278,11.216c-1.716,3.122-4.747,6.232-8.259,5.631a1.381,1.381,0,0,1-.838-.38.812.812,0,0,1-.153-.253c-.039.253-.071.51-.091.77a1.5,1.5,0,0,0,.244,1.108,1.381,1.381,0,0,0,.838.38c3.512.6,6.544-2.508,8.259-5.631a26.439,26.439,0,0,0,3.278-11.216c.039-.76.042-1.517.019-2.274C667.427,216.478,667.427,216.692,667.414,216.91Z" transform="translate(-617.099 -180.536)"/>
    </g>
    <path id="Path_150" data-name="Path 150" d="M695.31,510.6s8.224,3.451,13.646-4.185" transform="translate(-463.176 -174.988)" fill="none" stroke="#000" stroke-miterlimit="10" stroke-width="1" opacity="0.1"/>
    <path id="Path_151" data-name="Path 151" d="M700.29,533.738a16.033,16.033,0,0,1,15.271-.143" transform="translate(-466.538 -192.091)" fill="none" stroke="#000" stroke-miterlimit="10" stroke-width="1" opacity="0.1"/>
    <path id="Path_152" data-name="Path 152" d="M561.93,527.882s2.82-6.362,10.352-1.511" transform="translate(-373.133 -187.225)" fill="none" stroke="#000" stroke-miterlimit="10" stroke-width="1" opacity="0.1"/>
    <path id="Path_153" data-name="Path 153" d="M533.79,232.042l5.751-5.2s22.3-1.462,23.222,6.118c0,0,7.905-8.987,24.531-6.986l7.034,5.6-19.443,8.532-18.894,6.553-13.916-6.229Z" transform="translate(-354.136 14.533)" opacity="0.1"/>
    <path id="Path_154" data-name="Path 154" d="M533.79,233.042l5.751-5.2s22.3-1.462,23.222,6.118c0,0,7.905-8.987,24.531-6.986l7.034,5.6-19.443,8.532-18.894,6.553-13.916-6.229Z" transform="translate(-354.136 13.858)" fill="#d5d6db"/>
    <path id="Path_155" data-name="Path 155" d="M437.38,204.83l2.544,30.435,26.968,1.355-1.17-30.3-.023-.51Z" transform="translate(-260.27 42.719)" opacity="0.1"/>
    <path id="Path_156" data-name="Path 156" d="M437.38,202.83l2.544,30.435,26.968,1.355-1.17-30.3-.023-.51Z" transform="translate(-260.27 44.07)" fill="#ff4f18"/>
    <path id="Path_157" data-name="Path 157" d="M577.529,202.83,549.71,207v30.571l27.185-3.928Z" transform="translate(-336.102 44.07)" opacity="0.1"/>
    <path id="Path_158" data-name="Path 158" d="M577.529,200.83,549.71,205v30.571l27.185-3.928Z" transform="translate(-336.102 45.42)" fill="#ff4f18"/>
    <path id="Path_159" data-name="Path 159" d="M583.917,223.79l-15.027,1.67.328,5.121,14.689-1.605Z" transform="translate(-349.05 29.92)" fill="#fff" opacity="0.3"/>
    <path id="Path_160" data-name="Path 160" d="M536.933,333.764l1.53,4.117s2.274,1.949,4.763.975,4.659-1.459,5.741-2.408,2.6-5.715,2.6-5.715,1.517-5.2,3.031-6.5,5.523-19.206,0-17.454-9.747,18-9.747,18a3.852,3.852,0,0,1-2.382,1.3c-1.407.11-4.224-.218-4.766.975S535.309,331.382,536.933,333.764Z" transform="translate(-355.817 -40.132)" fill="#ffb8b8"/>
    <path id="Path_161" data-name="Path 161" d="M621.339,254.854a9.357,9.357,0,0,1-8.159-2.034l1.173,30.3a8.269,8.269,0,0,0,6.986,2.307Z" transform="translate(-407.731 -3.786)" opacity="0.1"/>
    <path id="Path_162" data-name="Path 162" d="M621.339,252.854a9.357,9.357,0,0,1-8.159-2.034l1.173,30.3a8.269,8.269,0,0,0,6.986,2.307Z" transform="translate(-407.731 -2.436)" fill="#6c63ff"/>
    <path id="Path_163" data-name="Path 163" d="M621.339,252.854a9.357,9.357,0,0,1-8.159-2.034l1.173,30.3a8.269,8.269,0,0,0,6.986,2.307Z" transform="translate(-407.731 -2.436)" fill="#ff4f18" opacity="0.6"/>
    <path id="Path_164" data-name="Path 164" d="M640.29,240.3s11.317-3.46,14.267-2.973" transform="translate(-426.032 6.708)" opacity="0.1"/>
    <path id="Path_165" data-name="Path 165" d="M574.732,237.778s-10.969-2.6-12.8-1.862" transform="translate(-373.133 7.715)" opacity="0.1"/>
    <path id="Path_166" data-name="Path 166" d="M662.25,244.137s7.567-2.775,10.3-1.456" transform="translate(-440.857 3.299)" opacity="0.1"/>
    <path id="Path_167" data-name="Path 167" d="M650.52,450.3a24.881,24.881,0,0,1,3.73-2.317,60.855,60.855,0,0,0,5.524-3.376" transform="translate(-432.939 -133.261)" opacity="0.1"/>
    <path id="Path_168" data-name="Path 168" d="M544.31,360.08s-4.747,3.883-6.173,4.224-2.307,3.369-2.307,3.369" transform="translate(-355.513 -76.196)" opacity="0.1"/>
    <path id="Path_169" data-name="Path 169" d="M672.766,332l-1.514,4.126s-2.274,1.949-4.766.975-4.656-1.459-5.741-2.408-2.6-5.715-2.6-5.715-1.514-5.2-3.031-6.5-5.524-19.206,0-17.454,9.747,18,9.747,18a3.852,3.852,0,0,0,2.382,1.3c1.407.11,4.224-.218,4.766.975S674.391,329.632,672.766,332Z" transform="translate(-434.131 -38.951)" fill="#ffb8b8"/>
    <path id="Path_170" data-name="Path 170" d="M707.15,364.94s3.1,1.995,3.09,4.38" transform="translate(-471.169 -79.477)" opacity="0.1"/>
    <circle id="Ellipse_15" data-name="Ellipse 15" cx="14.514" cy="14.514" r="14.514" transform="translate(195.14 198.608)" fill="#ffb8b8"/>
    <path id="Path_171" data-name="Path 171" d="M583.138,98.507c1.761-.276,3.3-1.3,4.987-1.888,3.766-1.322,7.931-.416,11.742.777a15.229,15.229,0,0,0,4.481.975,4.535,4.535,0,0,0,3.944-1.949,4.407,4.407,0,0,0-.026-4.071,11.466,11.466,0,0,0-2.651-3.272c-3.379-3.191-7.57-6.173-12.207-5.848a16.8,16.8,0,0,0-5.364,1.537,59.138,59.138,0,0,0-6.3,3.171c-1.563.907-4.458,2.118-5.358,3.775C574.342,95.446,579.954,99.007,583.138,98.507Z" transform="translate(-382.598 110.719)" fill="#3e373a"/>
    <path id="Path_172" data-name="Path 172" d="M608.29,114.333a4.535,4.535,0,0,1-3.944,1.949,15.242,15.242,0,0,1-4.484-.955c-3.811-1.192-7.973-2.1-11.742-.777-1.68.588-3.226,1.625-4.987,1.885-2.567.4-6.7-1.833-7.148-4.676-.5,3.285,4.289,6.1,7.148,5.65,1.761-.276,3.308-1.3,4.987-1.884,3.769-1.326,7.931-.416,11.742.777a14.624,14.624,0,0,0,4.484.955,4.569,4.569,0,0,0,3.944-1.949,3.8,3.8,0,0,0,.455-2.375A3.5,3.5,0,0,1,608.29,114.333Z" transform="translate(-382.595 91.442)" opacity="0.1"/>
    <path id="Path_173" data-name="Path 173" d="M1026.983,661.63s1.927,2.518-.89,6.323-5.137,7.015-4.2,9.387c0,0,4.25-7.064,7.707-7.164S1030.782,665.877,1026.983,661.63Z" transform="translate(-683.505 -279.768)" fill="#ff4f18"/>
    <path id="Path_174" data-name="Path 174" d="M1027.212,661.63a3.114,3.114,0,0,1,.393.79c3.373,3.964,5.173,7.665,1.927,7.756-3.022.088-6.644,5.491-7.512,6.852a3.214,3.214,0,0,0,.1.325s4.25-7.064,7.707-7.164S1031.01,665.877,1027.212,661.63Z" transform="translate(-683.734 -279.768)" opacity="0.1"/>
    <path id="Path_177" data-name="Path 177" d="M997.681,661.63s-1.927,2.518.89,6.323,5.137,7.015,4.2,9.387c0,0-4.247-7.064-7.707-7.164S993.893,665.877,997.681,661.63Z" transform="translate(-664.385 -279.768)" fill="#ff4f18"/>
    <path id="Path_178" data-name="Path 178" d="M997.681,661.63a3.122,3.122,0,0,0-.393.79c-3.373,3.964-5.173,7.665-1.927,7.756,3.018.088,6.645,5.491,7.512,6.852a2.5,2.5,0,0,1-.1.325s-4.247-7.064-7.707-7.164S993.893,665.877,997.681,661.63Z" transform="translate(-664.385 -279.768)" opacity="0.1"/>
    <path id="Path_179" data-name="Path 179" d="M995.64,670.332c0,.887.1,1.605.221,1.605s.224-.718.224-1.605-.127-.468-.247-.468S995.64,669.445,995.64,670.332Z" transform="translate(-665.925 -285.26)" fill="#ffd037"/>
    <path id="Path_180" data-name="Path 180" d="M990.878,673.471c.776.422,1.456.679,1.514.572s-.523-.539-1.3-.975-.471-.117-.53,0S990.1,673.046,990.878,673.471Z" transform="translate(-662.39 -287.34)" fill="#ffd037"/>
    <ellipse id="Ellipse_16" data-name="Ellipse 16" cx="20.145" cy="3.09" rx="20.145" ry="3.09" transform="translate(318.243 410.665)" fill="#ff4f18" opacity="0.1"/>
    <path id="Path_181" data-name="Path 181" d="M1011.141,697.086l-.1.786-.137,1.111-.055.465-.137,1.111-.058.465-.133,1.108-1.543,12.639c-.136,1.127-1.979,2.008-4.2,2.008h-8.009c-2.226,0-4.065-.88-4.2-2.008l-1.543-12.639-.136-1.108-.055-.465-.136-1.111-.058-.465-.133-1.111-.1-.786c-.075-.65.92-1.176,2.18-1.176h16.382C1010.222,695.91,1011.219,696.446,1011.141,697.086Z" transform="translate(-662.386 -302.91)" fill="#bd360b"/>
    <path id="Path_182" data-name="Path 182" d="M922.674,658.53l-.133,1.111H902.266l-.136-1.111Z" transform="translate(-574.017 -263.568)" fill="#9d9cb5"/>
    <path id="Path_183" data-name="Path 183" d="M922.881,663.38l-.133,1.111H902.856l-.136-1.111Z" transform="translate(-574.415 -266.842)" fill="#9d9cb5"/>
    <path id="Path_184" data-name="Path 184" d="M923.094,668.23l-.136,1.111h-19.5l-.133-1.111Z" transform="translate(-574.82 -270.116)" fill="#9d9cb5"/>
  </g>
</svg>
