<svg xmlns="http://www.w3.org/2000/svg" xmlns:xlink="http://www.w3.org/1999/xlink" width="314.767" height="263.292" viewBox="0 0 314.767 263.292">
  <defs>
    <linearGradient id="linear-gradient" y1="0.5" x2="1" y2="0.5" gradientUnits="objectBoundingBox">
      <stop offset="0" stop-color="gray" stop-opacity="0.251"/>
      <stop offset="0.54" stop-color="gray" stop-opacity="0.122"/>
      <stop offset="1" stop-color="gray" stop-opacity="0.102"/>
    </linearGradient>
  </defs>
  <g id="Group_15" data-name="Group 15" transform="translate(-835 -991.634)">
    <g id="Group_14" data-name="Group 14" transform="translate(825.004 1008.631)">
      <ellipse id="Ellipse_30" data-name="Ellipse 30" cx="54.906" cy="10.401" rx="54.906" ry="10.401" transform="translate(55.505 220.723)" fill="#ff4f18" opacity="0.1"/>
      <path id="Path_269" data-name="Path 269" d="M278.108,89.766c-20.179-.7-39.4-7.215-57.75-14.342s-36.529-15.022-56.225-18.8c-12.668-2.429-27.157-2.775-37.362,4.01-9.825,6.548-13,17.819-14.7,28.286-1.285,7.876-2.039,16.166,1.478,23.54,2.444,5.12,6.778,9.422,9.778,14.327,10.436,17.061,3.059,38.1-8.247,54.76-5.3,7.813-11.458,15.278-15.552,23.587S93.537,223,97.12,231.5c3.548,8.418,12.007,14.729,21.171,19.172,18.611,9.026,40.533,11.608,61.925,13.073,47.339,3.236,94.928,1.836,142.392.43,17.566-.518,35.207-1.044,52.487-3.76,9.6-1.509,19.5-3.9,26.471-9.684,8.842-7.336,11.034-19.758,5.107-28.956-9.94-15.434-37.415-19.266-44.371-35.825-3.823-9.117.1-19.269,5.662-27.721,11.923-18.137,31.906-34.048,32.956-54.776.723-14.236-8.883-28.495-23.737-35.232-15.568-7.062-37.159-6.173-48.639,5.516C316.711,85.756,295.927,90.386,278.108,89.766Z" transform="translate(-85.23 -72.03)" fill="#ff4f18" opacity="0.1"/>
      <path id="Path_270" data-name="Path 270" d="M415.449,233.964l-9.55-6.438h0l4.817-7.171-25.224-2.011-9.064,7.009-11.346-6.361-9.463,1.138-.112-2.494a70.394,70.394,0,0,0-.783-7.764c.041-.779.069-1.674.065-2.647,0-4.1-.555-9.535-2.993-13.158l.561-5.045-4.552-5.378a34.412,34.412,0,0,1,2.494-4.2c.156-.224.312-.443.48-.655a11.321,11.321,0,0,0,10.57-11.224,7.181,7.181,0,0,0-.031-.82,2.974,2.974,0,0,0-.034-.331c.577.312,1.16.624,1.743.935.109.156.234.312.371.5h0l.028.034.175.215.056.065c.062.075.128.147.193.221l.044.05c.165.184.34.371.527.555a.557.557,0,0,1,.062.059l.234.218.065.059c.2.178.412.349.624.511l.069.05.268.184.087.056c.1.062.209.128.312.187l.037.022c.122.065.246.128.371.187l.062.025q.159.069.312.131l.1.034c.109.037.215.072.327.1l.069.019c.137.034.274.062.415.084h.016a3.4,3.4,0,0,0,.4.041h.09a3.427,3.427,0,0,0,.359,0h.078a3.69,3.69,0,0,0,.446-.053,4.92,4.92,0,0,0,1.964-.7,1.715,1.715,0,0,0,.4-.371,1.47,1.47,0,0,0-.062-1.712h0c-.243-.58-1.821-.988-1.821-.988s-4.989-2.083-4.989-3.742-1.247-10.264-14.121-12.232c0,0-8.375-.471-10.729,4.013l-.05.524c-.692.433-1.266,1.3-1.949,1.559a3.183,3.183,0,0,0-.845.312v-.059h0a.8.8,0,0,0-.19.246,2.494,2.494,0,0,0-.259.935,3.522,3.522,0,0,1-.408,1.132,2.516,2.516,0,0,1-.187.287h0l-.053.084a2.276,2.276,0,0,0,1.06-.171,5.279,5.279,0,0,1-.312,1.247,1.035,1.035,0,0,0,.96-.574v-.025l.041-.056a2.631,2.631,0,0,0,.193-.452l-.034.037c.062-.2.118-.408.187-.608a.955.955,0,0,1,.153-.312.755.755,0,0,1,.645-.215l-.128,2.7h.056a3.69,3.69,0,0,1-.274.567c-.443.717-1.247,1.207-1.543,1.992a2.931,2.931,0,0,0-.143,1.179c0,.234.028.471.047.7v-.019a2.63,2.63,0,0,1-.281,1.718c-.231.343-.6.6-.73.992a.967.967,0,0,0-.047.337,3.783,3.783,0,0,0,.212,1,.043.043,0,0,0,0-.019,1.521,1.521,0,0,1,.053.736c-.14.624-.9,1.144-.861,1.74a.67.67,0,0,0,.034.231,1.263,1.263,0,0,0,.7.624,2.744,2.744,0,0,0,1.584.349,2.083,2.083,0,0,0,.592-.2c-.218.5-.443,1-.67,1.469-.034.075-.072.15-.109.224,0,0-1.927-1.288-3.021,1.338a5.825,5.825,0,0,0-.677,1.759,4.189,4.189,0,0,1-.231.723,4.655,4.655,0,0,1-2.083,1.871c-2.232,1.023-11.249,12.269-11.408,15.181a16.989,16.989,0,0,1-.574,3.361,20,20,0,0,0-.536,7.948,15.207,15.207,0,0,0,.552,2.535,56.792,56.792,0,0,1,1.6,8.337l1.035,9.422a26.817,26.817,0,0,0,.168,3.894c-1.057,1.207-5.3,6.236-3.679,7.6,1.247,1.079,3.43.9,4.655.68-1.032,2.554-2.656,6.993-2.872,10.043-.312,4.512.533,10.489,1.871,12.783s5.8,8.181,5.8,8.181-.209,8.075,1.384,11.009,2.236,9.02,2.236,9.02,1.487,5.138.742,7.028,1.381,3.461-.851,4.717-5.088,29.577-5.088,29.577-1.151,18.561,0,19.506a1.173,1.173,0,0,0,.2.115v6.236s-.8,1.31,2.448,1.575c2.223.178,8.524.58,12.263.814l2.9.181s6.859,1.366,9.89,0,8.4-1.334,7.6-4.942a10.268,10.268,0,0,0-.424-1.444c-.876-2.239-2.363-2.494-5.1-3.118-.159-.034-.312-.065-.452-.09-2.887-.5-3.835.842-5.453-.907-1.406-1.512-5.884-3.205-7.408-3.742.037-.112.084-.221.122-.337a2.283,2.283,0,0,1-1.157-.564l4.131.262,2.46.153s5.831,1.163,8.418,0,7.14-1.132,6.46-4.2a8.793,8.793,0,0,0-.359-1.228c-.745-1.9-2.011-2.111-4.34-2.638-.134-.028-.259-.056-.384-.078-2.454-.427-3.258.714-4.633-.77-1.179-1.266-4.9-2.685-6.236-3.168,0-.692-.935-1.677-1.525-2.666-.692-1.154.586-5.191.586-5.191l.73-16.753a3.237,3.237,0,0,1,.873-.249s3.3-3.149,2.554-6.5a21.561,21.561,0,0,1-.237-3.065,15.749,15.749,0,0,0,3-3.411c.692-1.493,0-8.73,0-8.73V259.777l5.519.558,5.007.514,1.525.156,5.007.505,11.508,1.163,10.37-1.964,4.487-.848,9.226-1.746V235.542Zm-75.955-74.8-.642-.069C339.064,159.1,339.288,159.144,339.494,159.162Z" transform="translate(-249.607 -121.175)" fill="url(#linear-gradient)"/>
      <path id="Path_271" data-name="Path 271" d="M505.183,438.846c-3.118,4.462-14.327,2.1-14.327,2.1l-8.686-8.128-1.169-1.1,1.961-4.166s.624.171,1.693.477C490.27,429.658,507.814,435.1,505.183,438.846Z" transform="translate(-360.723 -311.399)" fill="#efb7b9"/>
      <path id="Path_272" data-name="Path 272" d="M484.648,428.027a18.29,18.29,0,0,1-2.479,4.789l-1.169-1.1,1.961-4.166S483.591,427.721,484.648,428.027Z" transform="translate(-360.723 -311.399)" opacity="0.1"/>
      <path id="Path_273" data-name="Path 273" d="M380.313,278.131s-8.007,3.551-7.614,12.272a143.779,143.779,0,0,0,1.833,16.762s-1.637,13.123,5.179,16.506,13.123,6.164,13.123,6.164,10.663,1.147,11.988,1.621,5.466-6.772,4.7-7.9-10.551-3.5-11.8-5.378a10.411,10.411,0,0,0-4.131-3.046s-2.978-1.8-3.18-3.43a7.4,7.4,0,0,1,.783-3.554c.2-.714.7-7.608.7-7.608S395.263,276,380.313,278.131Z" transform="translate(-286.18 -208.477)" fill="#dce6f2"/>
      <path id="Path_274" data-name="Path 274" d="M392.041,370.39s-10.984,1.84-9.921,5.684A23.287,23.287,0,0,1,392.041,370.39Z" transform="translate(-292.623 -272.061)" opacity="0.1"/>
      <path id="Path_275" data-name="Path 275" d="M403.309,375.38s-6.039,4.929-4.858,5.182S403.309,375.38,403.309,375.38Z" transform="translate(-303.807 -275.495)" opacity="0.1"/>
      <path id="Path_276" data-name="Path 276" d="M421.59,380.89s-1.618,3.314-.624,3.09S421.59,380.89,421.59,380.89Z" transform="translate(-319.185 -279.287)" opacity="0.1"/>
      <path id="Path_277" data-name="Path 277" d="M411.4,326.228l-.667-.19a1.906,1.906,0,0,0,.087-1.363c-.764-1.129-10.545-3.492-11.789-5.378a10.356,10.356,0,0,0-4.131-3.046s-2.978-1.8-3.18-3.43a7.4,7.4,0,0,1,.783-3.554c.2-.714.7-7.611.7-7.611s3.352-24.535-11.6-22.405c0,0-8.007,3.554-7.617,12.275a143.388,143.388,0,0,0,1.836,16.762s-1.637,13.123,5.179,16.506,13.123,6.164,13.123,6.164,10.66,1.144,11.988,1.621c.5.181,1.409-.751,2.3-2.033l.505.471,8.686,8.125s11.209,2.366,14.327-2.1C434.568,333.294,417.026,327.856,411.4,326.228Z" transform="translate(-287.068 -209.248)" opacity="0.1"/>
      <path id="Path_278" data-name="Path 278" d="M378.227,169.482a2.65,2.65,0,0,0-.864.334c-.312.259-.312.7-.39,1.088a3.579,3.579,0,0,1-.624,1.49,2.242,2.242,0,0,0,1.038-.171,5.344,5.344,0,0,1-.312,1.247,1.01,1.01,0,0,0,.935-.571,6.007,6.007,0,0,0,.39-1.094.9.9,0,0,1,.15-.312c.287-.34.82-.187,1.263-.143a2.073,2.073,0,0,0,1.9-.91c.471-.714.5-2.541-.624-2.734C379.914,167.511,379.184,169.126,378.227,169.482Z" transform="translate(-288.702 -132.56)" fill="#965d7b"/>
      <g id="Group_12" data-name="Group 12" transform="translate(87.695 37.174)" opacity="0.1">
        <path id="Path_279" data-name="Path 279" d="M378.413,174.715c.028-.153.047-.312.081-.465h0a1.829,1.829,0,0,0-.39,1.088,3.429,3.429,0,0,1-.184.658A3.573,3.573,0,0,0,378.413,174.715Z" transform="translate(-377.477 -174.25)"/>
        <path id="Path_280" data-name="Path 280" d="M377.535,181.247a5.184,5.184,0,0,0,.312-1.247,2.232,2.232,0,0,1-.988.171,3.606,3.606,0,0,1-.359.624,2.22,2.22,0,0,0,1.035-.168,5.186,5.186,0,0,1-.312,1.247,1.013,1.013,0,0,0,.935-.571,2.328,2.328,0,0,0,.187-.446A.935.935,0,0,1,377.535,181.247Z" transform="translate(-376.5 -178.207)"/>
        <path id="Path_281" data-name="Path 281" d="M385.31,175.514c-.443-.044-.979-.2-1.266.143a.964.964,0,0,0-.15.312c-.028.081-.053.165-.075.249.3-.234.776-.109,1.179-.069a2.083,2.083,0,0,0,1.9-.91,1.728,1.728,0,0,0,.209-.49A2.077,2.077,0,0,1,385.31,175.514Z" transform="translate(-381.538 -174.594)"/>
      </g>
      <path id="Path_282" data-name="Path 282" d="M313.682,201l4.755,5.718-.62,5.771-5.746-9Z" transform="translate(-214.772 -138.328)" fill="#dce6f2"/>
      <path id="Path_283" data-name="Path 283" d="M318.434,206.718l-.583,5.428-.037.343-5.185-8.119-.558-.876.162-.253L313.679,201l.321.387Z" transform="translate(-215.772 -136.328)" opacity="0.1"/>
      <path id="Path_284" data-name="Path 284" d="M392.156,212.653c-1.609.461-3.146,2.045-4.484,3.969a33.872,33.872,0,0,0-2.419,4.159c-.44.879-.826,1.724-1.147,2.46l-.224.524c-.543,1.281-.845,2.139-.845,2.139s-12.316-9.26-10.367-9.884c.655-.209,1.515-1.612,2.366-3.38l.106-.224c.539-1.135,1.069-2.4,1.54-3.592.963-2.448,1.677-4.574,1.677-4.574S397.066,211.25,392.156,212.653Z" transform="translate(-286.025 -157.722)" fill="#efb7b9"/>
      <path id="Path_285" data-name="Path 285" d="M459.26,202.58s2.844,5.145,6.663,4.443,2.248-2.762,2.248-2.762Z" transform="translate(-345.761 -156.573)" fill="#444053"/>
      <path id="Path_286" data-name="Path 286" d="M391.034,746.931c-2.519,1.151-8.216,0-8.216,0l-2.4-.15c-3.118-.2-8.337-.536-10.183-.686-2.694-.221-2.033-1.325-2.033-1.325V738.1l13.07-3.311s5.166,1.768,6.582,3.311c1.344,1.472,2.13.34,4.527.764.118.022.243.047.374.078,2.276.521,3.511.727,4.24,2.613a8.763,8.763,0,0,1,.352,1.216C398.022,745.809,393.551,745.787,391.034,746.931Z" transform="translate(-283.045 -522.844)" fill="#a36468"/>
      <path id="Path_287" data-name="Path 287" d="M397,750.551a9.77,9.77,0,0,1-1.472.755c-1.715.783-3.346,1.737-5.079,2.476a11.88,11.88,0,0,1-5.478,1.126,8.169,8.169,0,0,0-2.925-.031,6.756,6.756,0,0,0-1.624.9c-3.118-.2-8.337-.536-10.183-.686-2.694-.221-2.033-1.325-2.033-1.325v-.779c.1,0,.206-.028.331-.037a5.887,5.887,0,0,1,1.9.284c1.353.368,2.7.73,4.053,1.091a3.2,3.2,0,0,1,1.559-1.989,4.969,4.969,0,0,1,2.513-.577c2.1.028,4.084,1.023,6.18,1.122a3.4,3.4,0,0,0,1.712-.287c.287-.143.539-.352.82-.511a5.982,5.982,0,0,1,1.412-.477,31.11,31.11,0,0,0,4.038-1.3c.374-.147.811-.412.761-.811-.065-.53-.9-.592-1.116-1.079a.624.624,0,0,1,.025-.552c.118.022.243.047.374.078C395.032,748.459,396.266,748.664,397,750.551Z" transform="translate(-283.045 -531.839)" opacity="0.1"/>
      <path id="Path_288" data-name="Path 288" d="M373.574,788.989c-2.962,1.353-9.666,0-9.666,0l-2.822-.165c-3.654-.234-9.809-.624-11.982-.807-3.171-.262-2.391-1.559-2.391-1.559V778.6l15.381-3.9s6.08,2.08,7.745,3.9c1.581,1.73,2.494.4,5.329.9.14.025.287.056.44.09,2.678.624,4.131.857,4.989,3.077a10.009,10.009,0,0,1,.415,1.431C381.783,787.667,376.536,787.639,373.574,788.989Z" transform="translate(-268.247 -550.311)" fill="#a36468"/>
      <path id="Path_289" data-name="Path 289" d="M380.589,793.282a11.61,11.61,0,0,1-1.73.889c-2.017.92-3.938,2.042-5.977,2.912a14.012,14.012,0,0,1-6.448,1.325,9.407,9.407,0,0,0-3.43-.037,7.948,7.948,0,0,0-1.918,1.073c-3.654-.234-9.809-.624-11.982-.808-3.171-.262-2.391-1.559-2.391-1.559v-.917a3.9,3.9,0,0,1,.39-.044,6.841,6.841,0,0,1,2.239.334l4.767,1.285a3.773,3.773,0,0,1,1.849-2.341,5.818,5.818,0,0,1,2.959-.68c2.469.034,4.8,1.2,7.271,1.322a4.025,4.025,0,0,0,2.008-.334c.34-.172.624-.418.967-.6a6.78,6.78,0,0,1,1.662-.561A37.321,37.321,0,0,0,375.551,793c.44-.175.954-.486.895-.954-.078-.624-1.057-.7-1.316-1.272a.751.751,0,0,1,.031-.649c.14.025.287.056.44.09C378.279,790.819,379.732,791.062,380.589,793.282Z" transform="translate(-268.247 -560.93)" opacity="0.1"/>
      <path id="Path_290" data-name="Path 290" d="M389,647.54l-.832,19.59s-1.247,4-.571,5.145,1.818,2.285,1.4,2.962-5.4,7.991-7.015,5.185-3.2-14.966-3.2-14.966l1.487-15.019Z" transform="translate(-290.374 -462.798)" fill="#444053"/>
      <path id="Path_291" data-name="Path 291" d="M412.807,491l2.313,3.093v26.9s.677,7.171,0,8.652-4.106,4.443-4.106,4.443l-2.884-14.81.624-15.668Z" transform="translate(-310.573 -355.066)" fill="#444053"/>
      <path id="Path_292" data-name="Path 292" d="M389,647.54l-.832,19.59s-1.247,4-.571,5.145,1.818,2.285,1.4,2.962-5.4,7.991-7.015,5.185-3.2-14.966-3.2-14.966l1.487-15.019Z" transform="translate(-290.374 -462.798)" opacity="0.1"/>
      <path id="Path_293" data-name="Path 293" d="M412.807,491l2.313,3.093v26.9s.677,7.171,0,8.652-4.106,4.443-4.106,4.443l-2.884-14.81.624-15.668Z" transform="translate(-310.573 -355.066)" opacity="0.1"/>
      <path id="Path_294" data-name="Path 294" d="M359.286,437.683v14.551l-2.6,11.327s-.833,27.335-.106,30.658-2.494,6.445-2.494,6.445-1.871.209-1.871,1.662-3.118,5.612-3.118,5.612l.1,8.107s1.353,15.175-.726,18.084.726,3.327.726,3.327c-2.6,8.521-15.069,6.548-16.194,5.612s0-19.331,0-19.331,2.787-28.061,4.97-29.308.106-2.806.833-4.677-.727-6.962-.727-6.962-.624-6.03-2.183-8.939-1.353-10.913-1.353-10.913-4.365-5.821-5.662-8.107-2.133-8.209-1.821-12.681c.212-3.021,1.8-7.421,2.806-9.952.483-1.213.833-2,.833-2l.3.078,17.03,4.459Z" transform="translate(-254.739 -313.223)" fill="#444053"/>
      <path id="Path_295" data-name="Path 295" d="M401.467,212.6c-1.609.461-3.146,2.045-4.484,3.969h-.349a11.137,11.137,0,0,1-9.666-5.59,10.97,10.97,0,0,1-.979-2.229c.963-2.448,1.677-4.574,1.677-4.574S406.378,211.2,401.467,212.6Z" transform="translate(-295.336 -157.674)" opacity="0.1"/>
      <path id="Path_296" data-name="Path 296" d="M406.673,181.578a11.147,11.147,0,1,1-20.853-5.463,10.889,10.889,0,0,1,1.179-1.7,11.279,11.279,0,0,1,2.563-2.251,11.147,11.147,0,0,1,17.1,8.6C406.664,181.035,406.673,181.307,406.673,181.578Z" transform="translate(-294.228 -134.442)" fill="#efb7b9"/>
      <path id="Path_297" data-name="Path 297" d="M389.1,249.565l-.037.343-5.185-8.107c-.543,1.281-.845,2.139-.845,2.139s-12.316-9.273-10.367-9.9c.655-.209,1.515-1.612,2.366-3.38l.106-.224c.9,2.694,6.158,8.079,8.344,10.236.253.249.461.455.624.6l.334.312.175.175C385.411,242.587,388.766,246.2,389.1,249.565Z" transform="translate(-286.025 -175.746)" opacity="0.1"/>
      <path id="Path_298" data-name="Path 298" d="M357.211,276.872l-.567,18.262-.1,3.252s-6.722-.624-13-1.31c-5.051-.552-9.812-1.147-10.545-1.5a19.846,19.846,0,0,0-4.521-.995c-1.222-.165-2.183-.253-2.183-.253s-.359.106-.91.206c-1.2.218-3.317.4-4.549-.673-1.575-1.369,2.563-6.342,3.595-7.536l.228-.259-.39-3.6-1.013-9.338a56.975,56.975,0,0,0-1.559-8.262,15.241,15.241,0,0,1-.539-2.51,20.1,20.1,0,0,1,.524-7.876,17.175,17.175,0,0,0,.561-3.333c.156-2.884,8.964-14.031,11.147-15.044a4.627,4.627,0,0,0,2.232-2.226,4.252,4.252,0,0,0,.34-.97c.935-4.053,3.3-2.444,3.3-2.444.571,3.171,9.4,11.564,9.4,11.564l.175.175c.876.9,4.78,5.113,4.5,8.711a10.561,10.561,0,0,0,.589,3.941,66.646,66.646,0,0,1,3.071,17.46Z" transform="translate(-250.256 -175.546)" fill="#dce6f2"/>
      <path id="Path_299" data-name="Path 299" d="M389.092,310.45s-2.183,5.3-3.819,6.158S389.872,318.416,389.092,310.45Z" transform="translate(-294.653 -230.81)" opacity="0.1"/>
      <path id="Path_300" data-name="Path 300" d="M392.369,342.2s-4.989.624-4.989,1.559S392.369,342.2,392.369,342.2Z" transform="translate(-296.293 -252.661)" opacity="0.1"/>
      <path id="Path_301" data-name="Path 301" d="M399.119,361.7s-7.249,15.434-9.276,15.9S399.119,361.7,399.119,361.7Z" transform="translate(-297.821 -266.081)" opacity="0.1"/>
      <path id="Path_302" data-name="Path 302" d="M381.232,244.153l-6,2.607L368,235.829a4.253,4.253,0,0,0,.34-.97c.935-4.053,3.3-2.444,3.3-2.444.571,3.171,9.4,11.564,9.4,11.564Z" transform="translate(-282.956 -176.888)" opacity="0.1"/>
      <path id="Path_303" data-name="Path 303" d="M382.232,242.153l-6,2.607L369,233.829a4.253,4.253,0,0,0,.34-.97c.935-4.053,3.3-2.444,3.3-2.444.571,3.171,9.4,11.564,9.4,11.564Z" transform="translate(-283.644 -175.512)" fill="#dce6f2"/>
      <path id="Path_304" data-name="Path 304" d="M363.694,340.836s-6.722-.624-13-1.31l11.256,2.946v3.43c-.493.446-.92.677-1.2.558-1.3-.546-11.882-2.26-11.882-2.26s-6.148-3.118-12.783-6.859a5.129,5.129,0,0,1-.468-.293,7.371,7.371,0,0,1-1.964-1.967,13.963,13.963,0,0,1-2.083-6.289,27.191,27.191,0,0,1-.162-3.86,31.649,31.649,0,0,1,.4-4.362,143.434,143.434,0,0,1-.935-16.837c.078-8.73,8.262-11.848,8.262-11.848,15.044-1.325,10.38,22.995,10.38,22.995s-.87,6.859-1.107,7.561a7.4,7.4,0,0,0-.973,3.508c.115,1.637,2.99,3.595,2.99,3.595a10.5,10.5,0,0,1,3.963,3.264c.842,1.437,6.311,3.386,9.4,4.777Z" transform="translate(-257.407 -217.997)" opacity="0.1"/>
      <path id="Path_305" data-name="Path 305" d="M405.5,171.454a3.529,3.529,0,0,1-.312,1.49,9.208,9.208,0,0,1-.555,1.11,5.113,5.113,0,0,1-1.366,1.7,6.986,6.986,0,0,1-2.494.867,3.61,3.61,0,0,0-2.254,1.278,4.471,4.471,0,0,0-.527,1.528,3.286,3.286,0,0,1-.624,1.478,1.225,1.225,0,0,1-1.459.349,1.475,1.475,0,0,1-.564-.726,10.418,10.418,0,0,1-.589-2.554,5.432,5.432,0,0,0-.876-2.448,2.192,2.192,0,0,0-2.3-.882,2.217,2.217,0,0,0-1.247,1.21,6.935,6.935,0,0,0-.471,1.721q-.58,3.174-1.369,6.311a.579.579,0,0,1-.1.237.449.449,0,0,1-.312.131c-.7.094-1.369-.4-2.073-.343a1.193,1.193,0,0,0-.215.034,11.14,11.14,0,0,1,1.126-12.721l.056-.016a3.361,3.361,0,0,0,1.247-.786,13.168,13.168,0,0,0,1.247-1.444l.249-.312a14.22,14.22,0,0,1,2.432-2.31,2.494,2.494,0,0,1,.829-.449,2.456,2.456,0,0,1,.786-.025,19.82,19.82,0,0,0,3.246.122,20.819,20.819,0,0,1,2.279-.231c1.974.056,3.657,1.45,4.9,2.978A4.612,4.612,0,0,1,405.5,171.454Z" transform="translate(-294.18 -131.24)" opacity="0.1"/>
      <path id="Path_306" data-name="Path 306" d="M377.229,172.542c-.433.711-1.216,1.194-1.509,1.974-.43,1.132.3,2.541-.371,3.551-.221.34-.586.592-.711.982-.212.658.368,1.359.218,2.036s-1.041,1.247-.8,1.908a1.247,1.247,0,0,0,.686.624,2.681,2.681,0,0,0,1.559.346c.851-.14,1.484-.976,2.348-1.038.7-.05,1.372.437,2.07.346a.468.468,0,0,0,.312-.134.539.539,0,0,0,.1-.237q.786-3.134,1.372-6.311a6.8,6.8,0,0,1,.468-1.721,2.236,2.236,0,0,1,1.247-1.21,2.2,2.2,0,0,1,2.3.882,5.4,5.4,0,0,1,.879,2.448,10.558,10.558,0,0,0,.586,2.554,1.491,1.491,0,0,0,.567.73,1.221,1.221,0,0,0,1.456-.349,3.252,3.252,0,0,0,.624-1.481,4.452,4.452,0,0,1,.527-1.525,3.618,3.618,0,0,1,2.254-1.278,7.054,7.054,0,0,0,2.494-.87,5.131,5.131,0,0,0,1.366-1.693,4.984,4.984,0,0,0,.854-2.6,4.779,4.779,0,0,0-1.278-2.7c-1.247-1.528-2.934-2.921-4.908-2.974a19.392,19.392,0,0,0-2.279.231,19.51,19.51,0,0,1-3.246-.125,2.55,2.55,0,0,0-.786.028,2.351,2.351,0,0,0-.826.449,14.227,14.227,0,0,0-2.435,2.307,17.872,17.872,0,0,1-1.5,1.746,3.383,3.383,0,0,1-1.247.789c-.312.087-.624.025-.92.122C377.778,170.637,377.656,171.837,377.229,172.542Z" transform="translate(-287.093 -130.572)" fill="#965d7b"/>
      <path id="Path_307" data-name="Path 307" d="M465.923,207.02c-2.494.458-4.562-1.559-5.706-3.031a12.228,12.228,0,0,1-.957-1.409l8.562,1.615.346.065S469.742,206.322,465.923,207.02Z" transform="translate(-345.761 -156.573)" opacity="0.1"/>
      <g id="Group_13" data-name="Group 13" transform="translate(86.904 39.59)" opacity="0.1">
        <path id="Path_308" data-name="Path 308" d="M376.134,211.527a2.6,2.6,0,0,0-.181-1.2c0,.031-.028.062-.037.094a2.32,2.32,0,0,0,.162,1.285A.935.935,0,0,0,376.134,211.527Z" transform="translate(-375.274 -201.497)"/>
        <path id="Path_309" data-name="Path 309" d="M379.058,197.8a6.928,6.928,0,0,0,.025,1.294A6.949,6.949,0,0,0,379.058,197.8Z" transform="translate(-377.456 -192.874)"/>
        <path id="Path_310" data-name="Path 310" d="M397.219,184.011a5.114,5.114,0,0,1-1.366,1.7,6.965,6.965,0,0,1-2.494.867,3.6,3.6,0,0,0-2.254,1.278,4.493,4.493,0,0,0-.527,1.528,3.265,3.265,0,0,1-.624,1.481,1.217,1.217,0,0,1-1.456.349,1.49,1.49,0,0,1-.567-.73,10.379,10.379,0,0,1-.586-2.554,5.387,5.387,0,0,0-.879-2.448,2.192,2.192,0,0,0-2.3-.882,2.226,2.226,0,0,0-1.247,1.21,6.8,6.8,0,0,0-.468,1.721q-.583,3.177-1.372,6.311a.539.539,0,0,1-.1.237.468.468,0,0,1-.312.134c-.7.09-1.369-.4-2.07-.346-.864.062-1.5.9-2.348,1.035a2.635,2.635,0,0,1-1.559-.346,1.668,1.668,0,0,1-.571-.405.842.842,0,0,0-.115.726,1.216,1.216,0,0,0,.686.624,2.635,2.635,0,0,0,1.559.346c.851-.137,1.484-.973,2.348-1.035.7-.05,1.372.436,2.07.346a.468.468,0,0,0,.312-.134.539.539,0,0,0,.1-.237q.786-3.118,1.372-6.311a6.8,6.8,0,0,1,.468-1.721,2.226,2.226,0,0,1,1.247-1.21,2.194,2.194,0,0,1,2.3.882,5.4,5.4,0,0,1,.879,2.448,10.557,10.557,0,0,0,.586,2.554,1.49,1.49,0,0,0,.567.73,1.221,1.221,0,0,0,1.456-.349,3.264,3.264,0,0,0,.624-1.481,4.493,4.493,0,0,1,.527-1.528,3.632,3.632,0,0,1,2.254-1.278,7.112,7.112,0,0,0,2.494-.867,5.114,5.114,0,0,0,1.366-1.7,4.965,4.965,0,0,0,.854-2.6,3.361,3.361,0,0,0-.037-.355,6.127,6.127,0,0,1-.817,2.011Z" transform="translate(-373.964 -182)"/>
      </g>
      <path id="Path_311" data-name="Path 311" d="M408.413,176.143a11.015,11.015,0,0,1,1.387,4.63c-2.778-1.559-5.391-3.271-6.71-3.866-2.3-1.038-10.891-.882-14.121-.786a10.89,10.89,0,0,1,1.179-1.7,11.28,11.28,0,0,1,2.572-2.251,11.153,11.153,0,0,1,15.708,3.969Z" transform="translate(-297.387 -134.448)" opacity="0.1"/>
      <path id="Path_312" data-name="Path 312" d="M466.7,205.7c-1.5.461-3.947-.43-6.485-1.709a12.228,12.228,0,0,1-.957-1.409l8.562,1.615C468.389,204.582,468.533,205.134,466.7,205.7Z" transform="translate(-345.761 -156.573)" opacity="0.1"/>
      <path id="Path_313" data-name="Path 313" d="M396.645,154.049s-8.185-.468-10.486,3.975l-.371,3.938-.624-.069-.125,2.678s12.509-.546,15.356.739,11.692,7.757,15.237,6.666-.312-2.1-.312-2.1-4.88-2.067-4.88-3.688S409.232,156,396.645,154.049Z" transform="translate(-294.683 -123.164)" fill="#444053"/>
      <path id="Path_314" data-name="Path 314" d="M371.63,622.28s5.223,5.067,7.483,4.677C379.113,626.957,372.721,626.411,371.63,622.28Z" transform="translate(-285.454 -445.414)" opacity="0.1"/>
      <path id="Path_315" data-name="Path 315" d="M368.13,629.81s.468,2.607,1.715,2.351S368.13,629.81,368.13,629.81Z" transform="translate(-283.045 -450.596)" opacity="0.1"/>
      <path id="Path_316" data-name="Path 316" d="M380.461,769.53s-7.414,5.768-6.164,5.924S380.461,769.53,380.461,769.53Z" transform="translate(-287.191 -546.753)" opacity="0.1"/>
      <path id="Path_317" data-name="Path 317" d="M330.96,338.707l24.008-3.907v22.73l-22.811-1.194Z" transform="translate(-227.772 -230.41)" fill="#ff4f18"/>
      <path id="Path_318" data-name="Path 318" d="M330.96,338.707l24.008-3.907v22.73l-22.811-1.194Z" transform="translate(-225.772 -231.41)" opacity="0.05"/>
      <path id="Path_319" data-name="Path 319" d="M407.96,334.8l28.791,2.154-1.593,19.78-27.2.8Z" transform="translate(-280.764 -230.41)" fill="#ff4f18"/>
      <path id="Path_320" data-name="Path 320" d="M407.96,334.8l28.791,2.154-1.593,19.78-27.2.8Z" transform="translate(-280.764 -230.41)" opacity="0.1"/>
      <path id="Path_321" data-name="Path 321" d="M416.812,312.55l-8.852,6.937,28.791,2.154,4.7-7.1Z" transform="translate(-280.764 -215.097)" fill="#ff4f18"/>
      <path id="Path_322" data-name="Path 322" d="M303.08,317.222l21.613-2.632,11.087,6.3L311.773,324.8Z" transform="translate(-208.585 -216.501)" fill="#ff4f18"/>
      <path id="Path_323" data-name="Path 323" d="M360.231,349.325V380.4l-11.246-1.154-4.892-.5-1.49-.156-4.889-.5-6.753-.692V347.33l24,1.634Z" transform="translate(-227.772 -239.033)" fill="#ff4f18"/>
      <path id="Path_324" data-name="Path 324" d="M448.368,341.71v30.306l-9.014,1.73-4.384.842-10.13,1.946V345.458Z" transform="translate(-292.381 -235.165)" fill="#ff4f18"/>
      <path id="Path_325" data-name="Path 325" d="M448.368,341.71v30.306l-9.014,1.73-4.384.842-10.13,1.946V345.458Z" transform="translate(-292.381 -235.165)" fill="#ff4f18" opacity="0.05"/>
      <path id="Path_326" data-name="Path 326" d="M303.08,353.871l8.693-6.541,29.271,2-4.309,7.259Z" transform="translate(-208.585 -239.033)" fill="#ff4f18"/>
      <path id="Path_327" data-name="Path 327" d="M303.08,353.871l8.693-6.541,29.271,2-4.309,7.259Z" transform="translate(-208.585 -239.033)" fill="#fff" opacity="0.1"/>
      <path id="Path_328" data-name="Path 328" d="M448.368,341.71l-23.528,3.748,7.658,6.859,25.2-4.228Z" transform="translate(-292.381 -235.165)" fill="#ff4f18"/>
      <path id="Path_329" data-name="Path 329" d="M448.368,341.71l-23.528,3.748,7.658,6.859,25.2-4.228Z" transform="translate(-292.381 -235.165)" fill="#fff" opacity="0.1"/>
      <path id="Path_330" data-name="Path 330" d="M461.714,429.739l-4.384.842v-6.476l4.106-1.035Z" transform="translate(-314.741 -291.158)" fill="#fff" opacity="0.1"/>
      <path id="Path_331" data-name="Path 331" d="M377.972,435.96v4.284l-4.892-.5V435.96Z" transform="translate(-256.76 -300.029)" fill="#fff" opacity="0.1"/>
      <path id="Path_332" data-name="Path 332" d="M357.509,440.29v2.279l-4.889-.5V440.29Z" transform="translate(-242.679 -303.009)" fill="#fff" opacity="0.1"/>
      <path id="Path_333" data-name="Path 333" d="M458.182,456.172c-3.352,4.287-14.42,1.325-14.42,1.325l-8.225-8.581-1.116-1.163L436.6,443.7s.624.206,1.665.567C443.78,446.194,461,452.564,458.182,456.172Z" transform="translate(-328.666 -322.514)" opacity="0.1"/>
      <path id="Path_334" data-name="Path 334" d="M457.182,454.172c-3.352,4.287-14.42,1.325-14.42,1.325l-8.225-8.581-1.116-1.163L435.6,441.7s.624.206,1.665.567C442.78,444.194,460,450.564,457.182,454.172Z" transform="translate(-327.978 -321.137)" fill="#efb7b9"/>
      <path id="Path_335" data-name="Path 335" d="M437.228,442.267a18.434,18.434,0,0,1-2.731,4.649l-1.116-1.163,2.183-4.053S436.189,441.906,437.228,442.267Z" transform="translate(-327.951 -321.137)" opacity="0.1"/>
      <path id="Path_336" data-name="Path 336" d="M340.141,287.882s-8.185,3.118-8.262,11.848a143.442,143.442,0,0,0,.935,16.837s-2.338,13.017,4.287,16.759,12.783,6.859,12.783,6.859,10.585,1.715,11.885,2.26,5.818-6.47,5.116-7.639-10.339-4.053-11.483-6a10.383,10.383,0,0,0-3.963-3.261s-2.875-1.961-2.99-3.6a7.366,7.366,0,0,1,.973-3.508c.24-.7,1.11-7.561,1.11-7.561S355.185,286.541,340.141,287.882Z" transform="translate(-258.096 -215.242)" fill="#dce6f2"/>
      <path id="Path_337" data-name="Path 337" d="M347.737,380.7s-11.069,1.247-10.211,5.145A23.286,23.286,0,0,1,347.737,380.7Z" transform="translate(-261.95 -279.157)" opacity="0.1"/>
      <path id="Path_338" data-name="Path 338" d="M358.747,385.7s-6.283,4.6-5.129,4.911S358.747,385.7,358.747,385.7Z" transform="translate(-272.96 -282.598)" opacity="0.1"/>
      <path id="Path_339" data-name="Path 339" d="M376.975,391.7s-1.793,3.224-.779,3.056S376.975,391.7,376.975,391.7Z" transform="translate(-288.382 -286.727)" opacity="0.1"/>
      <path id="Path_340" data-name="Path 340" d="M725.655,167.386s-11.848-.714-10.464,7.6a2.028,2.028,0,0,0,1.054,2.136s.022-.624,1.216-.408a5.459,5.459,0,0,0,1.288.062,2.672,2.672,0,0,0,1.578-.652h0s3.333-1.375,4.63-6.825c0,0,.96-1.191.935-1.5l-2,.857a3.587,3.587,0,0,1,.143,2.644s-.062-2.591-.449-2.532c-.078,0-1.038.5-1.038.5s1.175,2.513.287,4.343c0,0,.337-3.1-.655-4.162l-1.409.823s1.375,2.6.443,4.717c0,0,.24-3.252-.739-4.518l-1.278.995s1.294,2.563.505,4.321c0,0-.1-3.785-.783-4.072a7.713,7.713,0,0,0-1.285,1.391s.882,1.871.334,2.84c0,0-.337-2.522-.624-2.535a8.393,8.393,0,0,0-1.228,2.806,6.067,6.067,0,0,1,.957-2.975,3.34,3.34,0,0,0-1.7.882s.172-1.182,1.977-1.285a8.526,8.526,0,0,1,1.166-1.347,7.311,7.311,0,0,0-2.884.334s.957-1.113,3.215-.624l1.247-1.029a10.758,10.758,0,0,0-3.367.034s1.154-.985,3.707-.268l1.372-.82a12.317,12.317,0,0,0-3.215-.277,4.932,4.932,0,0,1,3.617.056l.982-.44s-1.478-.29-1.908-.337-.455-.165-.455-.165a5.1,5.1,0,0,1,2.772.312A12.234,12.234,0,0,0,725.655,167.386Z" transform="translate(-521.818 -132.342)" fill="#ff4f18"/>
      <path id="Path_341" data-name="Path 341" d="M841.115,300.726s-11.848-.714-10.464,7.6a2.028,2.028,0,0,0,1.054,2.136s.022-.624,1.219-.408a5.457,5.457,0,0,0,1.288.062,2.669,2.669,0,0,0,1.559-.649h0s3.336-1.378,4.633-6.828c0,0,.957-1.188.92-1.493l-2,.854a3.6,3.6,0,0,1,.146,2.644s-.065-2.591-.449-2.532c-.078,0-1.041.5-1.041.5s1.179,2.516.29,4.343c0,0,.337-3.1-.658-4.162l-1.394.814s1.375,2.6.443,4.717c0,0,.24-3.252-.739-4.518l-1.275,1s1.291,2.56.505,4.318c0,0-.1-3.785-.783-4.072a7.818,7.818,0,0,0-1.288,1.391s.885,1.871.337,2.84c0,0-.337-2.522-.624-2.535a8.393,8.393,0,0,0-1.229,2.806,6.086,6.086,0,0,1,.96-2.974,3.355,3.355,0,0,0-1.706.882s.175-1.182,1.98-1.285a7.785,7.785,0,0,1,1.166-1.347,7.31,7.31,0,0,0-2.884.334s.957-1.113,3.211-.608l1.247-1.029a10.761,10.761,0,0,0-3.367.034s1.154-.985,3.707-.268l1.372-.82a12.493,12.493,0,0,0-3.218-.277,4.942,4.942,0,0,1,3.62.056l.982-.44s-1.478-.29-1.911-.337-.455-.165-.455-.165a5.11,5.11,0,0,1,2.775.312A12.578,12.578,0,0,0,841.115,300.726Z" transform="translate(-601.279 -224.107)" fill="#ff4f18" opacity="0.1"/>
      <path id="Path_342" data-name="Path 342" d="M615.76,251.223s2.728-11.564-5.7-11.6a2.025,2.025,0,0,0-2.282.673s.6.128.193,1.269a5.554,5.554,0,0,0-.281,1.247,2.679,2.679,0,0,0,.371,1.662h0s.789,3.523,5.924,5.731c0,0,1.01,1.147,1.316,1.16l-.5-2.117a3.582,3.582,0,0,1-2.632-.312s2.566.377,2.569,0c0-.078-.312-1.11-.312-1.11s-2.678.73-4.331-.458c0,0,3,.861,4.215.065l-.561-1.534s-2.806.914-4.727-.368c0,0,3.165.792,4.58.044l-.764-1.428s-2.744.836-4.343-.24c0,0,3.741.543,4.147-.075a7.747,7.747,0,0,0-1.151-1.506s-1.983.555-2.856-.153c0,0,2.541.1,2.6-.171a8.406,8.406,0,0,0-2.566-1.693,6.111,6.111,0,0,1,2.772,1.453,3.364,3.364,0,0,0-.58-1.83s1.135.374.935,2.183a7.764,7.764,0,0,1,1.126,1.378,7.333,7.333,0,0,0,.162-2.9s.935,1.135.053,3.271l.8,1.419a10.347,10.347,0,0,0,.539-3.324s.776,1.3-.368,3.7l.577,1.493a12.485,12.485,0,0,0,.82-3.118,4.928,4.928,0,0,1-.673,3.558l.268,1.041s.536-1.406.655-1.824.24-.421.24-.421a5.108,5.108,0,0,1-.776,2.681A12.384,12.384,0,0,0,615.76,251.223Z" transform="translate(-447.901 -181.984)" fill="#ff4f18" opacity="0.1"/>
      <path id="Path_343" data-name="Path 343" d="M520.636,283.119s-9.516-7.118-12.918.592a2.029,2.029,0,0,0-.293,2.363s.355-.5,1.247.331a5.458,5.458,0,0,0,1.041.761,2.675,2.675,0,0,0,1.674.312h0s3.542.683,7.62-3.155c0,0,1.456-.468,1.593-.742l-2.148-.377a3.6,3.6,0,0,1-1.331,2.289s1.369-2.2,1.013-2.36c-.072-.034-1.144-.156-1.144-.156s-.4,2.75-2.145,3.788c0,0,1.986-2.4,1.74-3.838l-1.631-.087s-.277,2.928-2.223,4.187c0,0,1.986-2.585,1.871-4.181l-1.615.131s-.327,2.847-1.952,3.882c0,0,1.992-3.218,1.584-3.829a7.838,7.838,0,0,0-1.84.452s-.284,2.039-1.281,2.557c0,0,1.107-2.292.882-2.451a8.381,8.381,0,0,0-2.575,1.674,6.089,6.089,0,0,1,2.438-1.958,3.358,3.358,0,0,0-1.908-.2s.792-.892,2.357.016a7.872,7.872,0,0,1,1.715-.483,7.3,7.3,0,0,0-2.594-1.306s1.416-.405,3.021,1.247l1.618-.165a10.679,10.679,0,0,0-2.831-1.821s1.506-.19,3.243,1.811l1.6.072a12.447,12.447,0,0,0-2.532-2,4.93,4.93,0,0,1,2.99,2.036l1.063.171s-1.076-1.054-1.412-1.328-.29-.39-.29-.39a5.123,5.123,0,0,1,2.148,1.783A12.609,12.609,0,0,0,520.636,283.119Z" transform="translate(-378.724 -209.939)" fill="#ff4f18" opacity="0.1"/>
      <path id="Path_344" data-name="Path 344" d="M622.246,71.006s-9.516-7.121-12.918.592a2.029,2.029,0,0,0-.293,2.363s.355-.5,1.247.33a5.547,5.547,0,0,0,1.044.758,2.672,2.672,0,0,0,1.674.312h0s3.542.683,7.62-3.158c0,0,1.456-.465,1.59-.742l-2.148-.371a3.587,3.587,0,0,1-1.331,2.289s1.372-2.2,1.016-2.36c-.072-.034-1.144-.156-1.144-.156s-.412,2.756-2.158,3.788c0,0,1.983-2.4,1.74-3.838l-1.631-.087s-.281,2.928-2.223,4.184c0,0,1.986-2.585,1.871-4.181l-1.612.131s-.33,2.85-1.955,3.885c0,0,2-3.218,1.587-3.829a7.838,7.838,0,0,0-1.84.452s-.284,2.039-1.281,2.557c0,0,1.107-2.292.882-2.454a8.413,8.413,0,0,0-2.575,1.677,6.061,6.061,0,0,1,2.438-1.958,3.336,3.336,0,0,0-1.911-.2s.8-.892,2.36.016a7.7,7.7,0,0,1,1.715-.483,7.337,7.337,0,0,0-2.594-1.31s1.412-.4,3.018,1.247l1.618-.165a10.69,10.69,0,0,0-2.831-1.824s1.506-.187,3.246,1.815l1.6.069a12.318,12.318,0,0,0-2.535-2,4.932,4.932,0,0,1,2.993,2.036l1.06.171s-1.079-1.041-1.416-1.31-.29-.387-.29-.387a5.113,5.113,0,0,1,2.148,1.783A13.462,13.462,0,0,0,622.246,71.006Z" transform="translate(-448.653 -63.96)" fill="#ff4f18" opacity="0.1"/>
      <path id="Path_345" data-name="Path 345" d="M740.9,89.191s-3.8-11.259-10.978-6.834a2.049,2.049,0,0,0-1.581,1.78s.577-.212.832.973a5.614,5.614,0,0,0,.427,1.219,2.7,2.7,0,0,0,1.2,1.213h0s2.532,2.572,8.069,1.721c0,0,1.462.443,1.73.29l-1.559-1.531a3.586,3.586,0,0,1-2.395,1.129s2.379-1.035,2.183-1.369c-.041-.065-.854-.773-.854-.773s-1.889,2.036-3.916,1.9c0,0,3-.854,3.607-2.183l-1.291-.995s-1.889,2.251-4.206,2.183c0,0,3.118-1,3.907-2.385l-1.4-.808s-1.871,2.161-3.81,2.092c0,0,3.467-1.518,3.477-2.254a7.8,7.8,0,0,0-1.771-.67s-1.391,1.518-2.494,1.381c0,0,2.208-1.263,2.114-1.522a8.365,8.365,0,0,0-3.071-.078,6.077,6.077,0,0,1,3.118-.234,3.364,3.364,0,0,0-1.462-1.247s1.16-.284,1.936,1.35a7.852,7.852,0,0,1,1.684.574A7.327,7.327,0,0,0,733,81.567s1.394.471,1.774,2.75l1.428.779a10.523,10.523,0,0,0-1.3-3.118s1.35.7,1.643,3.333l1.278.963a12.4,12.4,0,0,0-.954-3.087,4.936,4.936,0,0,1,1.31,3.377l.776.742s-.287-1.478-.405-1.9-.022-.446-.022-.446a5.141,5.141,0,0,1,.758,2.688A12.423,12.423,0,0,0,740.9,89.191Z" transform="translate(-530.945 -73.125)" fill="#ff4f18" opacity="0.1"/>
      <path id="Path_346" data-name="Path 346" d="M664.945,108.164s-11.817-1.316-10.841,7.068a2.024,2.024,0,0,0,.935,2.183s.053-.624,1.247-.343a5.736,5.736,0,0,0,1.285.128,2.681,2.681,0,0,0,1.606-.571h0s3.4-1.207,4.989-6.585c0,0,1.016-1.138.995-1.447l-2.042.755a3.477,3.477,0,0,1,0,2.647s.065-2.591-.312-2.55c-.078,0-1.063.449-1.063.449s1.048,2.572.069,4.365c0,0,.493-3.08-.446-4.19l-1.45.748s1.247,2.666.2,4.736c0,0,.405-3.236-.508-4.549l-1.325.935s1.16,2.622.284,4.34c0,0,.09-3.785-.574-4.106a8.111,8.111,0,0,0-1.356,1.322s.789,1.9.193,2.853c0,0-.209-2.535-.483-2.56a8.385,8.385,0,0,0-1.372,2.75,6.07,6.07,0,0,1,1.11-2.925,3.355,3.355,0,0,0-1.746.8s.231-1.169,2.039-1.182c0,0,.982-1.219,1.247-1.285a7.33,7.33,0,0,0-2.9.187s1.013-1.066,3.24-.446l1.313-.963a10.112,10.112,0,0,0-3.377-.168s1.2-.935,3.717-.078l1.412-.751a12.415,12.415,0,0,0-3.2-.44,4.9,4.9,0,0,1,3.611.24l1-.39s-1.462-.365-1.893-.433-.446-.187-.446-.187a5.129,5.129,0,0,1,2.756.449A12.757,12.757,0,0,0,664.945,108.164Z" transform="translate(-479.815 -91.543)" fill="#ff4f18" opacity="0.1"/>
      <path id="Path_347" data-name="Path 347" d="M996.558,402.334s-11.811-1.316-10.835,7.059a2.024,2.024,0,0,0,.935,2.183s.053-.624,1.247-.346a5.392,5.392,0,0,0,1.285.128,2.659,2.659,0,0,0,1.606-.571h0s3.4-1.207,4.973-6.582c0,0,1.016-1.141.995-1.447l-2.042.751a3.486,3.486,0,0,1,0,2.65s.065-2.594-.312-2.55c-.078,0-1.063.446-1.063.446s1.048,2.572.069,4.365c0,0,.493-3.077-.446-4.19l-1.45.751s1.247,2.666.206,4.736c0,0,.4-3.236-.511-4.552l-1.325.935s1.16,2.622.284,4.337c0,0,.09-3.785-.574-4.1a8.235,8.235,0,0,0-1.356,1.322s.792,1.9.193,2.853c0,0-.209-2.535-.483-2.56a8.386,8.386,0,0,0-1.372,2.75,6.071,6.071,0,0,1,1.11-2.925,3.327,3.327,0,0,0-1.746.8s.231-1.172,2.039-1.185c0,0,.985-1.219,1.247-1.281a7.305,7.305,0,0,0-2.9.184s1.013-1.063,3.243-.443l1.309-.963a10.419,10.419,0,0,0-3.364-.137s1.2-.935,3.717-.081l1.412-.748a12.414,12.414,0,0,0-3.2-.44,4.9,4.9,0,0,1,3.611.24l1-.393s-1.462-.365-1.893-.43-.446-.187-.446-.187a5.11,5.11,0,0,1,2.756.446A12.216,12.216,0,0,0,996.558,402.334Z" transform="translate(-708.039 -293.993)" fill="#ff4f18" opacity="0.1"/>
      <path id="Path_348" data-name="Path 348" d="M1054.468,437.715s-11.811-1.313-10.835,7.059a2.029,2.029,0,0,0,.935,2.183s.053-.624,1.247-.343a5.5,5.5,0,0,0,1.281.125,2.694,2.694,0,0,0,1.6-.567h0s3.4-1.207,4.97-6.585c0,0,1.02-1.138.995-1.447l-2.042.751a3.486,3.486,0,0,1,0,2.65s.065-2.591-.312-2.55c-.078,0-1.063.446-1.063.446s1.048,2.572.068,4.365c0,0,.493-3.077-.446-4.187l-1.45.748s1.247,2.666.206,4.736c0,0,.4-3.236-.511-4.549l-1.325.935s1.16,2.622.287,4.34c0,0,.087-3.788-.577-4.106a8.234,8.234,0,0,0-1.356,1.322s.792,1.9.193,2.853c0,0-.209-2.535-.483-2.56a8.336,8.336,0,0,0-1.369,2.75,6.086,6.086,0,0,1,1.107-2.925,3.355,3.355,0,0,0-1.746.8s.234-1.172,2.042-1.182c0,0,.982-1.219,1.247-1.285a7.331,7.331,0,0,0-2.9.187s1.013-1.066,3.243-.446l1.309-.963a10.42,10.42,0,0,0-3.364-.137s1.2-.935,3.717-.078l1.412-.751a12.415,12.415,0,0,0-3.2-.44,4.9,4.9,0,0,1,3.61.24l1-.39s-1.462-.365-1.89-.433-.449-.187-.449-.187a5.129,5.129,0,0,1,2.756.449A12.342,12.342,0,0,0,1054.468,437.715Z" transform="translate(-747.893 -318.343)" fill="#ff4f18" opacity="0.1"/>
      <path id="Path_349" data-name="Path 349" d="M920.186,133.259s-9.516-7.118-12.918.592a2.029,2.029,0,0,0-.293,2.363s.355-.5,1.247.33a5.459,5.459,0,0,0,1.041.761,2.678,2.678,0,0,0,1.674.312h0s3.542.683,7.623-3.155c0,0,1.453-.468,1.59-.742l-2.142-.387a3.6,3.6,0,0,1-1.331,2.289s1.369-2.2,1.013-2.36c-.072-.034-1.141-.156-1.141-.156s-.4,2.75-2.148,3.788c0,0,1.986-2.4,1.74-3.838l-1.631-.087s-.278,2.928-2.223,4.187c0,0,1.989-2.585,1.871-4.181l-1.615.131s-.312,2.847-1.952,3.882c0,0,2-3.218,1.584-3.829a7.838,7.838,0,0,0-1.84.452s-.281,2.039-1.278,2.557c0,0,1.1-2.292.879-2.451a8.381,8.381,0,0,0-2.575,1.674,6.089,6.089,0,0,1,2.438-1.958,3.358,3.358,0,0,0-1.908-.2s.8-.892,2.36.016a7.838,7.838,0,0,1,1.712-.483,7.3,7.3,0,0,0-2.594-1.306s1.416-.405,3.021,1.247l1.618-.165a10.624,10.624,0,0,0-2.831-1.821s1.506-.19,3.243,1.812l1.6.072a12.5,12.5,0,0,0-2.535-2,4.922,4.922,0,0,1,2.99,2.036l1.063.171s-1.076-1.054-1.412-1.328-.287-.365-.287-.365a5.126,5.126,0,0,1,2.145,1.783A12.523,12.523,0,0,0,920.186,133.259Z" transform="translate(-653.698 -106.804)" fill="#ff4f18" opacity="0.1"/>
      <path id="Path_350" data-name="Path 350" d="M946.329,286.57s-3.28-11.421-10.657-7.321a2.026,2.026,0,0,0-1.662,1.706s.586-.184.789,1.01a5.531,5.531,0,0,0,.374,1.247,2.678,2.678,0,0,0,1.141,1.272h0s2.413,2.681,7.982,2.083c0,0,1.44.505,1.715.368l-1.475-1.6a3.585,3.585,0,0,1-2.441,1.023s2.42-.935,2.232-1.269c-.037-.069-.817-.814-.817-.814s-1.977,1.952-4,1.724c0,0,3.034-.717,3.7-2.008l-1.247-1.054s-1.989,2.164-4.3,2c0,0,3.143-.864,4.01-2.207l-1.366-.87s-1.98,2.073-3.9,1.918c0,0,3.533-1.363,3.576-2.1a7.785,7.785,0,0,0-1.743-.748s-1.456,1.453-2.563,1.266c0,0,2.264-1.163,2.183-1.425a8.421,8.421,0,0,0-3.065-.218,6.083,6.083,0,0,1,3.118-.09,3.345,3.345,0,0,0-1.4-1.31s1.172-.234,1.871,1.434a7.779,7.779,0,0,1,1.656.649,7.293,7.293,0,0,0-1.278-2.607s1.372.53,1.649,2.825l1.391.845a10.368,10.368,0,0,0-1.16-3.162s1.316.758,1.493,3.4l1.247,1.02a12.366,12.366,0,0,0-.814-3.118,4.927,4.927,0,0,1,1.157,3.43l.742.779s-.218-1.49-.312-1.914,0-.483,0-.483a5.111,5.111,0,0,1,.639,2.719A12.379,12.379,0,0,0,946.329,286.57Z" transform="translate(-672.488 -208.726)" fill="#ff4f18" opacity="0.1"/>
      <path id="Path_351" data-name="Path 351" d="M709.459,374.11s-6.37-10.033-12.285-4.028a2.017,2.017,0,0,0-1.116,2.1s.514-.343,1.044.748a5.339,5.339,0,0,0,.7,1.079,2.663,2.663,0,0,0,1.45.9h0s3.071,1.9,8.247-.249c0,0,1.525.081,1.749-.128l-1.871-1.122a3.584,3.584,0,0,1-2.058,1.668s2.064-1.559,1.787-1.846c-.053-.056-1.013-.549-1.013-.549s-1.35,2.426-3.352,2.778c0,0,2.709-1.543,2.99-2.971l-1.493-.658s-1.3,2.635-3.564,3.118c0,0,2.775-1.712,3.227-3.246l-1.559-.449s-1.316,2.547-3.2,2.937c0,0,3.006-2.3,2.84-3.018a7.745,7.745,0,0,0-1.871-.228s-.988,1.805-2.1,1.936c0,0,1.846-1.752,1.693-1.983a8.4,8.4,0,0,0-3,.655,6.068,6.068,0,0,1,2.974-.967,3.346,3.346,0,0,0-1.712-.864s1.057-.552,2.183.851a7.7,7.7,0,0,1,1.774.156,7.177,7.177,0,0,0-1.961-2.142s1.465.125,2.376,2.248l1.575.418a10.425,10.425,0,0,0-2-2.706s1.475.355,2.388,2.847l1.472.624a12.43,12.43,0,0,0-1.662-2.769,4.913,4.913,0,0,1,2.073,2.965l.935.539s-.624-1.369-.845-1.746-.134-.465-.134-.465a5.113,5.113,0,0,1,1.375,2.429A12.678,12.678,0,0,0,709.459,374.11Z" transform="translate(-508.709 -270.531)" fill="#ff4f18" opacity="0.1"/>
      <path id="Path_352" data-name="Path 352" d="M843.887,209.134s-6.058-10.224-12.16-4.406a2.027,2.027,0,0,0-1.179,2.07s.521-.331,1.02.776a5.388,5.388,0,0,0,.67,1.1,2.647,2.647,0,0,0,1.422.935h0s3.009,1.989,8.25,0c0,0,1.522.128,1.752-.075l-1.83-1.179a3.585,3.585,0,0,1-2.108,1.6s2.111-1.506,1.846-1.79c-.056-.059-1-.583-1-.583s-1.425,2.385-3.43,2.675c0,0,2.756-1.459,3.077-2.875l-1.472-.692s-1.381,2.6-3.66,3.012c0,0,2.828-1.624,3.327-3.143l-1.54-.5s-1.4,2.494-3.292,2.837c0,0,3.074-2.207,2.931-2.928a7.7,7.7,0,0,0-1.871-.287s-1.044,1.774-2.164,1.871c0,0,1.9-1.69,1.755-1.927a8.392,8.392,0,0,0-3.021.561,6.086,6.086,0,0,1,3-.873,3.352,3.352,0,0,0-1.687-.917s1.076-.521,2.182.917a7.9,7.9,0,0,1,1.768.212,7.458,7.458,0,0,0-1.893-2.2s1.459.168,2.3,2.32l1.559.468a10.366,10.366,0,0,0-1.917-2.769s1.465.4,2.3,2.918l1.45.677a12.528,12.528,0,0,0-1.559-2.806,4.932,4.932,0,0,1,1.983,3.027l.914.567s-.586-1.387-.792-1.771-.119-.468-.119-.468a5.123,5.123,0,0,1,1.3,2.469A12.072,12.072,0,0,0,843.887,209.134Z" transform="translate(-601.273 -156.819)" fill="#ff4f18"/>
      <path id="Path_353" data-name="Path 353" d="M728.273,268.878s.312-11.879-7.941-10.2a2.032,2.032,0,0,0-2.1,1.126s.624,0,.449,1.2a5.475,5.475,0,0,0-.019,1.291,2.666,2.666,0,0,0,.7,1.559h0s1.487,3.286,6.978,4.4c0,0,1.219.92,1.525.87l-.935-1.971a3.6,3.6,0,0,1-2.638.234s2.588-.153,2.516-.533c0-.078-.536-1.026-.536-1.026s-2.476,1.263-4.331.433c0,0,3.118.234,4.137-.792l-.87-1.381s-2.55,1.459-4.7.6c0,0,3.258.131,4.493-.889l-1.038-1.247s-2.516,1.378-4.3.648c0,0,3.779-.228,4.053-.917a8.087,8.087,0,0,0-1.434-1.247s-1.827.935-2.825.43c0,0,2.494-.418,2.51-.7a8.368,8.368,0,0,0-2.856-1.135,6.071,6.071,0,0,1,3.009.861,3.351,3.351,0,0,0-.935-1.674s1.188.134,1.35,1.933a7.751,7.751,0,0,1,1.384,1.122,7.291,7.291,0,0,0-.43-2.872s1.147.92.717,3.19l1.069,1.228a10.44,10.44,0,0,0-.147-3.364s1.023,1.119.393,3.695l.864,1.344a12.432,12.432,0,0,0,.172-3.224,4.948,4.948,0,0,1,.062,3.62l.474.967s.24-1.487.271-1.921.15-.461.15-.461a5.119,5.119,0,0,1-.215,2.784A11.884,11.884,0,0,0,728.273,268.878Z" transform="translate(-523.987 -195.065)" fill="#ff4f18"/>
      <ellipse id="Ellipse_31" data-name="Ellipse 31" cx="8.397" cy="1.419" rx="8.397" ry="1.419" transform="translate(209.533 221.92)" fill="#ff4f18" opacity="0.1"/>
      <ellipse id="Ellipse_32" data-name="Ellipse 32" cx="8.397" cy="1.419" rx="8.397" ry="1.419" transform="translate(178.925 243.458)" fill="#ff4f18" opacity="0.1"/>
      <ellipse id="Ellipse_33" data-name="Ellipse 33" cx="8.397" cy="1.419" rx="8.397" ry="1.419" transform="translate(20.641 232.424)" fill="#6c63ff" opacity="0.1"/>
      <ellipse id="Ellipse_34" data-name="Ellipse 34" cx="8.397" cy="1.419" rx="8.397" ry="1.419" transform="translate(242.611 242.04)" fill="#ff4f18" opacity="0.1"/>
      <ellipse id="Ellipse_35" data-name="Ellipse 35" cx="12.537" cy="2.12" rx="12.537" ry="2.12" transform="translate(247.213 223.338)" fill="#ff4f18"/>
      <path id="Path_354" data-name="Path 354" d="M919.4,754.254a3.62,3.62,0,0,0,1.194-1.8,1.6,1.6,0,0,0-.832-1.836,2.354,2.354,0,0,0-2.211.773,2.961,2.961,0,0,1-2.145,1.038,3.274,3.274,0,0,0,1.01-3.059,1.282,1.282,0,0,0-.281-.624c-.427-.455-1.2-.259-1.709.1-1.621,1.141-2.073,3.342-2.083,5.325a10.015,10.015,0,0,1-.028-2.182,2.239,2.239,0,0,0-.826-1.939,2.467,2.467,0,0,0-1.247-.312,2.6,2.6,0,0,0-2.039.58,2.009,2.009,0,0,0,.078,2.494,8.064,8.064,0,0,0,2.111,1.69,4.717,4.717,0,0,1,1.509,1.437,1.468,1.468,0,0,1,.109.256h4.571A12.61,12.61,0,0,0,919.4,754.254Z" transform="translate(-654.454 -532.266)" fill="#ff4f18"/>
      <path id="Path_355" data-name="Path 355" d="M170.29,778.159s4.786-.147,6.236-1.175,7.368-2.254,7.726-.6,7.2,8.2,1.79,8.241-12.562-.842-14-1.721S170.29,778.159,170.29,778.159Z" transform="translate(-146.89 -550.91)" fill="#ff4f18" opacity="0.67"/>
      <path id="Path_356" data-name="Path 356" d="M186.132,789.743c-5.406.044-12.562-.842-14-1.721-1.1-.667-1.534-3.065-1.681-4.172h-.159s.312,3.863,1.743,4.739,8.6,1.765,14,1.721c1.559,0,2.1-.567,2.07-1.391C187.888,789.422,187.292,789.734,186.132,789.743Z" transform="translate(-146.89 -556.608)" opacity="0.2"/>
    </g>
  </g>
</svg>
