<svg xmlns="http://www.w3.org/2000/svg" xmlns:xlink="http://www.w3.org/1999/xlink" width="252.15" height="210.51" viewBox="0 0 252.15 210.51">
  <defs>
    <linearGradient id="linear-gradient" x1="0.5" y1="1" x2="0.5" gradientUnits="objectBoundingBox">
      <stop offset="0" stop-color="gray" stop-opacity="0.251"/>
      <stop offset="0.54" stop-color="gray" stop-opacity="0.122"/>
      <stop offset="1" stop-color="gray" stop-opacity="0.102"/>
    </linearGradient>
  </defs>
  <g id="Group_11" data-name="Group 11" transform="translate(0 0.003)">
    <path id="Path_185" data-name="Path 185" d="M225.616,40.494c7.373-6.563,18.946-7.908,29.482-7.386,33.089,1.646,62.957,17.619,88.795,35.689,9.355,6.54,18.563,13.59,24.633,22.6,12.368,18.338,8.693,43.741-8.491,58.848-5.848,5.139-12.936,9.087-20.213,12.573-12.939,6.209-26.9,11.195-41.585,12.621-10.47,1.01-21.072.189-31.484-1.222-29.086-3.953-57.631-12.676-81.568-27.6-10.5-6.545-20.388-14.683-24.714-25.267s-1.557-24.012,9.16-30.29c4.432-2.592,9.733-3.764,14.92-4.864,7.638-1.618,15.4-3.213,22.288-6.5,7.121-3.4,15.549-9.968,14.135-17.49C219.469,54.145,218.253,47.057,225.616,40.494Z" transform="translate(-143.876 -33.01)" fill="#ff4f18" opacity="0.1"/>
    <path id="Path_186" data-name="Path 186" d="M785.47,621.759s6.326-11.2,15.849-14.433a19.5,19.5,0,0,0,9.874-7.386,32.7,32.7,0,0,0,2.913-5.24" transform="translate(-612.578 -452.924)" fill="none" stroke="#bd360b" stroke-miterlimit="10" stroke-width="2"/>
    <path id="Path_187" data-name="Path 187" d="M904.471,572.557c-1.085,1.055-6.141,2.143-6.141,2.143s1.239-5.021,2.325-6.073a2.739,2.739,0,0,1,3.817,3.93Z" transform="translate(-696.951 -432.853)" fill="#6c63ff"/>
    <path id="Path_188" data-name="Path 188" d="M892.64,606.407c-1.484.3-6.31-1.537-6.31-1.537s3.771-3.534,5.253-3.837a2.739,2.739,0,0,1,1.068,5.374Z" transform="translate(-687.98 -457.618)" fill="#6c63ff"/>
    <path id="Path_189" data-name="Path 189" d="M856.22,645.729c-1.431-.5-4.68-4.518-4.68-4.518s5.048-1.151,6.472-.656a2.739,2.739,0,1,1-1.792,5.174Z" transform="translate(-661.971 -487.111)" fill="#6c63ff"/>
    <path id="Path_190" data-name="Path 190" d="M816.314,667.791c-1.492-.252-5.374-3.663-5.374-3.663s4.773-1.989,6.265-1.742a2.739,2.739,0,1,1-.891,5.4Z" transform="translate(-631.619 -503.509)" fill="#6c63ff"/>
    <path id="Path_191" data-name="Path 191" d="M869.59,592.746c0,1.515,2.736,5.9,2.736,5.9s2.741-4.384,2.741-5.9a2.739,2.739,0,1,0-5.477,0Z" transform="translate(-675.465 -449.417)" fill="#6c63ff"/>
    <path id="Path_192" data-name="Path 192" d="M825.287,617.109c.454,1.444,4.377,4.811,4.377,4.811s1.3-5.005.851-6.449a2.739,2.739,0,1,0-5.228,1.638Z" transform="translate(-642.25 -467.016)" fill="#6c63ff"/>
    <path id="Path_193" data-name="Path 193" d="M786.467,650.356c.2,1.5,3.5,5.482,3.5,5.482s2.13-4.713,1.928-6.212a2.739,2.739,0,1,0-5.429.729Z" transform="translate(-613.305 -492.211)" fill="#6c63ff"/>
    <path id="Path_194" data-name="Path 194" d="M904.471,572.557c-1.085,1.055-6.141,2.143-6.141,2.143s1.239-5.021,2.325-6.073a2.739,2.739,0,0,1,3.817,3.93Z" transform="translate(-696.951 -432.853)" fill="#ff4f18"/>
    <path id="Path_195" data-name="Path 195" d="M892.64,606.407c-1.484.3-6.31-1.537-6.31-1.537s3.771-3.534,5.253-3.837a2.739,2.739,0,0,1,1.068,5.374Z" transform="translate(-687.98 -457.618)" fill="#ff4f18"/>
    <path id="Path_196" data-name="Path 196" d="M856.22,645.729c-1.431-.5-4.68-4.518-4.68-4.518s5.048-1.151,6.472-.656a2.739,2.739,0,1,1-1.792,5.174Z" transform="translate(-661.971 -487.111)" fill="#ff4f18"/>
    <path id="Path_197" data-name="Path 197" d="M816.314,667.791c-1.492-.252-5.374-3.663-5.374-3.663s4.773-1.989,6.265-1.742a2.739,2.739,0,1,1-.891,5.4Z" transform="translate(-631.619 -503.509)" fill="#ff4f18"/>
    <path id="Path_198" data-name="Path 198" d="M869.59,592.746c0,1.515,2.736,5.9,2.736,5.9s2.741-4.384,2.741-5.9a2.739,2.739,0,1,0-5.477,0Z" transform="translate(-675.465 -449.417)" fill="#ff4f18"/>
    <path id="Path_199" data-name="Path 199" d="M825.287,617.109c.454,1.444,4.377,4.811,4.377,4.811s1.3-5.005.851-6.449a2.739,2.739,0,1,0-5.228,1.638Z" transform="translate(-642.25 -467.016)" fill="#ff4f18"/>
    <path id="Path_200" data-name="Path 200" d="M786.467,650.356c.2,1.5,3.5,5.482,3.5,5.482s2.13-4.713,1.928-6.212a2.739,2.739,0,1,0-5.429.729Z" transform="translate(-613.305 -492.211)" fill="#ff4f18"/>
    <path id="Path_201" data-name="Path 201" d="M786.91,593.348s1.242-12.808,8.643-19.618a19.5,19.5,0,0,0,6.033-10.755,32.6,32.6,0,0,0,.54-5.975" transform="translate(-613.655 -424.74)" fill="none" stroke="#bd360b" stroke-miterlimit="10" stroke-width="2"/>
    <path id="Path_202" data-name="Path 202" d="M849.965,528.586c-.565,1.4-4.745,4.448-4.745,4.448s-.9-5.094-.333-6.495a2.739,2.739,0,1,1,5.079,2.047Z" transform="translate(-656.858 -400.637)" fill="#ff4f18"/>
    <path id="Path_203" data-name="Path 203" d="M850.831,562.662c-1.237.871-6.4,1.154-6.4,1.154s2.019-4.763,3.249-5.634a2.739,2.739,0,0,1,3.153,4.48Z" transform="translate(-656.656 -425.25)" fill="#ff4f18"/>
    <path id="Path_204" data-name="Path 204" d="M829.768,613.531c-1.515.126-6.109-2.236-6.109-2.236s4.142-3.095,5.639-3.223a2.74,2.74,0,0,1,.459,5.46Z" transform="translate(-641.129 -462.912)" fill="#ff4f18"/>
    <path id="Path_205" data-name="Path 205" d="M803.406,649.611c-1.464.379-6.4-1.171-6.4-1.171s3.557-3.753,5.021-4.132a2.738,2.738,0,1,1,1.376,5.3Z" transform="translate(-621.206 -489.943)" fill="#ff4f18"/>
    <path id="Path_206" data-name="Path 206" d="M822.173,563.16c.611,1.383,4.892,4.291,4.892,4.291s.729-5.119.116-6.5a2.738,2.738,0,1,0-5.008,2.216Z" transform="translate(-639.841 -426.472)" fill="#ff4f18"/>
    <path id="Path_207" data-name="Path 207" d="M791.552,603.386c1,1.136,5.949,2.625,5.949,2.625s-.836-5.1-1.835-6.24a2.738,2.738,0,1,0-4.115,3.615Z" transform="translate(-616.615 -456.019)" fill="#ff4f18"/>
    <path id="Path_208" data-name="Path 208" d="M769.521,649.511c.793,1.29,5.422,3.592,5.422,3.592s.038-5.169-.757-6.459a2.739,2.739,0,1,0-4.667,2.867Z" transform="translate(-600.35 -490.78)" fill="#ff4f18"/>
    <ellipse id="Ellipse_17" data-name="Ellipse 17" cx="30.007" cy="5.031" rx="30.007" ry="5.031" transform="translate(64.439 200.445)" fill="#ff4f18" opacity="0.1"/>
    <ellipse id="Ellipse_18" data-name="Ellipse 18" cx="30.007" cy="5.031" rx="30.007" ry="5.031" transform="translate(123.502 161.828)" fill="#ff4f18" opacity="0.1"/>
    <path id="Path_209" data-name="Path 209" d="M602.422,397.581l-.028.982-1.706,60.206H597.82l1.406-60.206.028-1.133Z" transform="translate(-446.921 -297.115)" fill="#b77b7f"/>
    <path id="Path_210" data-name="Path 210" d="M575.895,591.6l-2.148-.005-31.915-.068-1.7,0,.906-2.792h34.631Z" transform="translate(-403.793 -440.128)" fill="#dda2a6"/>
    <path id="Path_211" data-name="Path 211" d="M606.586,397.581l-.028.982H603.39l.028-1.133Z" transform="translate(-451.085 -297.115)" opacity="0.1"/>
    <rect id="Rectangle_205" data-name="Rectangle 205" width="5.318" height="2.002" transform="translate(151.391 98.995)" fill="#b77b7f"/>
    <path id="Path_212" data-name="Path 212" d="M542.114,588.73l-.283,2.794-1.7,0,.906-2.792Z" transform="translate(-403.793 -440.128)" opacity="0.1"/>
    <path id="Path_213" data-name="Path 213" d="M535.3,392.05l-.088.868-7.08,69.828-3.244-.154,7.461-69.674.083-.793Z" transform="translate(-392.4 -293.093)" fill="#dda2a6"/>
    <path id="Path_214" data-name="Path 214" d="M674.6,591.6l-2.148-.005-.29-2.862h2.211Z" transform="translate(-502.497 -440.128)" opacity="0.1"/>
    <path id="Path_215" data-name="Path 215" d="M664.432,462.592l-3.246.154-7.078-69.828-.088-.868,2.865.076.083.793Z" transform="translate(-488.936 -293.093)" fill="#dda2a6"/>
    <rect id="Rectangle_206" data-name="Rectangle 206" width="71.524" height="68.581" transform="translate(117.777 30.111)" fill="#fff"/>
    <path id="Path_216" data-name="Path 216" d="M706.065,57.13V73.691h-2.789V57.13a1.4,1.4,0,1,1,2.789,0Z" transform="translate(-551.131 -49.957)" fill="#dda2a6"/>
    <rect id="Rectangle_207" data-name="Rectangle 207" width="2.792" height="1.507" transform="translate(152.143 22.228)" opacity="0.1"/>
    <path id="Path_217" data-name="Path 217" d="M703.965,123.549v5.467H699v-5.467a.676.676,0,0,1,.679-.679h3.612a.679.679,0,0,1,.674.679Z" transform="translate(-547.935 -100.191)" fill="#dda2a6"/>
    <circle id="Ellipse_19" data-name="Ellipse 19" cx="1.055" cy="1.055" r="1.055" transform="translate(152.484 25.095)" opacity="0.1"/>
    <circle id="Ellipse_20" data-name="Ellipse 20" cx="1.055" cy="1.055" r="1.055" transform="translate(152.484 24.868)" fill="#b77b7f"/>
    <rect id="Rectangle_208" data-name="Rectangle 208" width="4.98" height="0.679" transform="translate(151.05 28.149)" opacity="0.1"/>
    <rect id="Rectangle_209" data-name="Rectangle 209" width="9.054" height="1.509" transform="translate(149.013 29.055)" opacity="0.1"/>
    <rect id="Rectangle_210" data-name="Rectangle 210" width="9.054" height="1.509" transform="translate(149.013 28.601)" fill="#dda2a6"/>
    <path id="Path_218" data-name="Path 218" d="M530.861,384h38.026a1.641,1.641,0,0,1,1.641,1.641V386H529.22v-.358A1.641,1.641,0,0,1,530.861,384Z" transform="translate(-395.637 -287.075)" opacity="0.1"/>
    <path id="Path_219" data-name="Path 219" d="M554.533,392.126l2.867-.076-.088.868H554.45Z" transform="translate(-414.499 -293.093)" opacity="0.1"/>
    <rect id="Rectangle_211" data-name="Rectangle 211" width="5.318" height="0.83" transform="translate(151.391 98.995)" opacity="0.1"/>
    <path id="Path_220" data-name="Path 220" d="M656.968,392.918h-2.86l-.088-.868,2.865.076Z" transform="translate(-488.936 -293.093)" opacity="0.1"/>
    <path id="Path_221" data-name="Path 221" d="M530.861,385.77h38.026a1.641,1.641,0,0,1,1.641,1.641v.358H529.22v-.358A1.641,1.641,0,0,1,530.861,385.77Z" transform="translate(-395.637 -288.398)" fill="#dda2a6"/>
    <path id="Path_222" data-name="Path 222" d="M440.343,202.019c-.573-.3-6.815-5.018-6.815-5.018l-10.074-6.389s-.053-.151-.149-.411c2.764-3.138,2.161-7.691-.651-10.892-3.408-3.882-18.8-12.24-23.444-5.091a7.836,7.836,0,0,0-.841,3.266,13.566,13.566,0,0,1-3.678,7.219c-1.545,1.633-3.572,3.137-4.46,4.985a.3.3,0,0,0-.025-.071,4.633,4.633,0,0,0-.462,1.262c-.442,2.254,1.073,4.415,1.878,6.608a11.988,11.988,0,0,1,.586,2.292c.02-.157.038-.31.056-.467a14.653,14.653,0,0,1,.2,3.372c-5.591,1.138-5.594,10.7-5.594,10.7a32.659,32.659,0,0,0-.573,5.172c.116,1.371.114,4.334.114,5.048s-.689,5.169-.757,5.7a.128.128,0,0,1,0,.023c-.1.586-1.148,3.408,1.383,4.039.177.045.363.083.558.119.109,2.284.305,7.068.131,8.133,0,0,.921,6.426,1.686,8.06a18.53,18.53,0,0,0,1.691,2.731,3.009,3.009,0,0,1-.389,1.108c-.391.563-.189,1.025.464,1.224-.023.194-.048.414-.076.661-.28,2.479-.7,7.406.013,9.9a25.267,25.267,0,0,1,1.035,4.564,3.328,3.328,0,0,0,.4,1.6c.4.57,1.148,5.876,1.148,6.732s1.954,8.554,1.378,10.379a11.1,11.1,0,0,0-.114,4.392,36.4,36.4,0,0,1-.757,5.475c-.411.969-.576,16.6.056,20.645s1.035,7.413,1.035,7.413-.4,3.708-.058,4.22.977,3.594.517,3.764-.689,1.426-.689,1.426a12.705,12.705,0,0,0,.785,1.068,4.294,4.294,0,0,1-.517-.22c.182.252.454.611.79,1.01l-.316,4.1a.687.687,0,0,0,.5.719,5.773,5.773,0,0,0,5.71-1.605c2.872-2.908,3.849-2.509,4.367-4.276.056-.189.1-.376.144-.553a1.863,1.863,0,0,0-2.643-2.075,13.369,13.369,0,0,0,.189-3.463,51.109,51.109,0,0,1-.23-5.987l-.4-20.761a28.012,28.012,0,0,1,1.608-5.7c.863-1.6.757-7.186.757-7.186l.977-18.366.919-8.953s.919-3.079,2.067.343c0,0-.631,6.9-.343,8.554a75.815,75.815,0,0,1,.4,11.462c-.288,1.767-1.55,11.465-.757,13.916s1.676,5.422,1.5,6.394-.757,22.013-.757,22.013,1.552,4.039.4,5.361-.058,6.563-.058,6.563.139.1.376.235l-.033.437-.361,4.718a.692.692,0,0,0,.5.722,5.77,5.77,0,0,0,5.71-1.605c2.872-2.91,3.849-2.509,4.367-4.278.055-.189.1-.374.146-.553a1.867,1.867,0,0,0-3.009-1.843l-.068.058a2.385,2.385,0,0,1-.225.169,1.094,1.094,0,0,1-.114.073,15.476,15.476,0,0,0,.5-4.579,34.887,34.887,0,0,1,.285-6.214s1.666-5.591,1.724-7.825L420.437,300s-.055-7.244.174-9.011,2.067-17.053,3.9-21.617c1.411-3.493,2.042-12.409,1.668-16.929-.02-.222-.04-.437-.066-.636a6.666,6.666,0,0,0,2.479-4.43s-2.07-3.953-4.061-5.626a7.63,7.63,0,0,1-2.35-5.775,3,3,0,0,0-.689-2.052s-.919-2.966-1.532-3.269a.48.48,0,0,1-.134-.1c-.417-.447-.1-1.724-.1-1.724v-.04a10.923,10.923,0,0,0,.376-2.7,18.184,18.184,0,0,1,.076-3.042,24.415,24.415,0,0,0,1.227-7.757,2.677,2.677,0,0,1,2.989-3.117l9.938-.1h1.131a7.961,7.961,0,0,0,1.088-1.126c1.893-.225,5.722-.939,6.151-3.029C443.294,205.139,440.918,202.324,440.343,202.019ZM394.3,233.662l.068-1.739c.235.2.391.331.391.331a2.722,2.722,0,0,1,.018,1.393,1.487,1.487,0,0,1-.861.964,1.043,1.043,0,0,0-.139.073l-.1-.982Zm36.045-30.542a10.624,10.624,0,0,0-2.57-.151,5.716,5.716,0,0,1-1.913-.608c-.252-.492-1.648-.785-2.89-.952-.944-2.327-2.272-4.6-2.451-7.022a1.862,1.862,0,0,0-.013-.265l.144.252s5.785,3.69,6.437,4.8a23.75,23.75,0,0,0,4.061,3.569,1.159,1.159,0,0,1-.618.414.341.341,0,0,1-.187-.033Z" transform="translate(-313.456 -136.487)" fill="url(#linear-gradient)"/>
    <path id="Path_223" data-name="Path 223" d="M494.474,824.57c-.043.177-.088.361-.144.548-.5,1.767-1.472,1.358-4.291,4.243a5.649,5.649,0,0,1-5.621,1.6.681.681,0,0,1-.5-.717l.356-4.68.169-2.252s4.5,1.262,6.8-.341a2.718,2.718,0,0,0,.222-.169.686.686,0,0,0,.05-.051,1.84,1.84,0,0,1,2.968,1.822Z" transform="translate(-387.137 -623.093)" fill="#67647e"/>
    <path id="Path_224" data-name="Path 224" d="M438.474,817.57c-.043.177-.088.361-.144.548-.5,1.767-1.472,1.358-4.291,4.243a5.649,5.649,0,0,1-5.621,1.6.682.682,0,0,1-.5-.717l.356-4.68.169-2.252s4.5,1.262,6.8-.341a2.727,2.727,0,0,0,.222-.169.7.7,0,0,0,.05-.051,1.84,1.84,0,0,1,2.968,1.823Z" transform="translate(-345.272 -617.86)" fill="#67647e"/>
    <path id="Path_225" data-name="Path 225" d="M432.431,826.731l.182,2.433c-2.585,2.582-5.662-1.262-6.563-2.524C428.42,827.862,432.431,826.731,432.431,826.731Z" transform="translate(-343.881 -626.319)" opacity="0.1"/>
    <path id="Path_226" data-name="Path 226" d="M491.911,826.4l.338-.225c-2.36,3.589-5.866,1.934-6.959,1.29l.169-2.252s4.5,1.262,6.795-.341C492.075,825.748,491.911,826.4,491.911,826.4Z" transform="translate(-388.168 -624.995)" opacity="0.1"/>
    <path id="Path_227" data-name="Path 227" d="M441.384,503.683c-1.812,4.526-3.622,19.688-3.849,21.455s-.169,8.941-.169,8.941l-.454,17.641c-.058,2.209-1.7,7.754-1.7,7.754a34.906,34.906,0,0,0-.283,6.167c.283,1.527-.734,5.553-.734,5.553l.338-.227c-2.83,4.291-7.3,1.075-7.3,1.075s-1.075-5.2.058-6.507-.4-5.318-.4-5.318.565-20.88.735-21.841-.679-3.9-1.472-6.338.454-12.053.737-13.807a75.966,75.966,0,0,0-.4-11.374c-.283-1.641.338-8.489.338-8.489-1.131-3.395-2.037-.338-2.037-.338l-.906,8.882-.962,18.222s.114,5.553-.734,7.131a28.037,28.037,0,0,0-1.585,5.657l.4,20.6a51.343,51.343,0,0,0,.227,5.939c.283,1.648-.623,5.886-.623,5.886-3.168,7.464-8.256-.628-8.256-.628s.227-1.244.679-1.414-.169-3.226-.5-3.736.056-4.188.056-4.188-.4-3.337-1.01-7.355-.452-19.522-.056-20.483a37.291,37.291,0,0,0,.735-5.432,11.147,11.147,0,0,1,.114-4.359c.565-1.812-1.358-9.448-1.358-10.3s-.734-6.111-1.131-6.676a3.338,3.338,0,0,1-.4-1.585,25.292,25.292,0,0,0-1.01-4.526c-.7-2.479-.288-7.365-.013-9.826.1-.911.184-1.492.184-1.492s32.453-5.263,33.748-4.074a5.207,5.207,0,0,1,.623,2.612C443.4,491.368,442.767,500.227,441.384,503.683Z" transform="translate(-330.453 -370.239)" fill="#444053"/>
    <path id="Path_228" data-name="Path 228" d="M491.34,662.222a30.167,30.167,0,0,0,5.048.038C497.7,661.994,491.34,662.222,491.34,662.222Z" transform="translate(-392.691 -503.334)" opacity="0.1"/>
    <path id="Path_229" data-name="Path 229" d="M492.39,670.858s4.95.868,5.2.417S492.39,670.858,492.39,670.858Z" transform="translate(-393.476 -509.858)" opacity="0.1"/>
    <path id="Path_230" data-name="Path 230" d="M432.46,667.27a13.6,13.6,0,0,1,3.96.757C437.816,668.671,432.46,667.27,432.46,667.27Z" transform="translate(-348.673 -507.176)" opacity="0.1"/>
    <path id="Path_231" data-name="Path 231" d="M395.54,415.676s.414,7.883.189,9.279c0,0,.9,6.376,1.658,8a23.109,23.109,0,0,0,2.378,3.66l2.226-15.65-.53-5.361Z" transform="translate(-321.073 -319.031)" fill="#ffb8b8"/>
    <circle id="Ellipse_21" data-name="Ellipse 21" cx="8.713" cy="8.713" r="8.713" transform="translate(89.143 43.304)" fill="#efb7b9"/>
    <path id="Path_232" data-name="Path 232" d="M453.4,254.334s-2.716,5.321-5.432,7.81,16.3,5.318,16.748,5.318-3.395-11.316-2.716-12.681S453.4,254.334,453.4,254.334Z" transform="translate(-360.065 -198.245)" fill="#efb7b9"/>
    <path id="Path_233" data-name="Path 233" d="M444.019,486.885a5.661,5.661,0,0,1-1.4.782c-3.468,1.358-7.242,3.244-9.806,2.491s-8,0-8,0-10.942-.906-13.126-.379a4.278,4.278,0,0,1-2.272.058c.1-.911.184-1.492.184-1.492s32.491-5.263,33.786-4.074A5.191,5.191,0,0,1,444.019,486.885Z" transform="translate(-331.449 -370.239)" opacity="0.1"/>
    <path id="Path_234" data-name="Path 234" d="M434.118,329.082a6.335,6.335,0,0,1-3.774,5.132c-3.473,1.358-7.242,3.243-9.806,2.491s-8,0-8,0-10.942-.906-13.126-.379-3.322-.149-2.643-1.131.606-4.225.606-5.583-.757-6.866-.078-7.848,1.282-4.753,2.64-5.359a1.479,1.479,0,0,0,.848-.957,2.736,2.736,0,0,0-.018-1.381s-.23-.189-.545-.469c-.8-.714-2.153-2.04-1.719-2.474.6-.606,0-4.528,0-4.528s-1.434-3.016-.9-4.147-4.6-7.093-4.6-7.093,0-10.258,6.187-10.712c0,0,4.377.151,4.9-1.81s4-3.095,4-3.095l7.923,1.737s7.015,1.514,8.3.6,2.272,1.207,2.272,1.207,4.374.227,4.826,1.133-1.431,9.731-1.431,9.731a2.645,2.645,0,0,0-2.943,3.095,24.2,24.2,0,0,1-1.222,7.7,18.154,18.154,0,0,0-.076,3.016,10.321,10.321,0,0,1-.369,2.678v.038s-.315,1.262.093,1.711a.506.506,0,0,0,.131.1c.606.3,1.515,3.244,1.515,3.244a2.986,2.986,0,0,1,.679,2.037,7.645,7.645,0,0,0,2.34,5.735C432.089,325.162,434.118,329.082,434.118,329.082Z" transform="translate(-319.174 -217.464)" fill="#a36468"/>
    <path id="Path_235" data-name="Path 235" d="M396.008,356.084v.321l-.136,3.534a29.667,29.667,0,0,1-7.169-.252c-2.527-.629-1.464-3.433-1.363-4.013a.094.094,0,0,0,0-.023c.073-.53.757-4.942.757-5.659s0-3.66-.114-5.018a33.209,33.209,0,0,1,.555-5.142l.49-.6,5.316,2.037Z" transform="translate(-314.713 -261.938)" fill="#a36468"/>
    <path id="Path_236" data-name="Path 236" d="M395.958,405.132l-.136,3.534a29.666,29.666,0,0,1-7.169-.252c-2.527-.628-1.464-3.433-1.363-4.013Z" transform="translate(-314.676 -310.658)" opacity="0.1"/>
    <path id="Path_237" data-name="Path 237" d="M422.193,406.956a2.736,2.736,0,0,0-.018-1.381s-.23-.189-.545-.469c4-.558,19.82-2.729,25.148-2.966v.038s-.316,1.262.093,1.711Z" transform="translate(-340.577 -308.969)" opacity="0.1"/>
    <path id="Path_238" data-name="Path 238" d="M515.688,432s.982,5.553-2.678,7.507A16.772,16.772,0,0,0,515.688,432Z" transform="translate(-408.891 -331.292)" opacity="0.1"/>
    <path id="Path_239" data-name="Path 239" d="M428.72,460.043s8.835-1.514,10.564-.338S428.72,460.043,428.72,460.043Z" transform="translate(-345.877 -351.669)" opacity="0.1"/>
    <path id="Path_240" data-name="Path 240" d="M509.391,326.22s-1.358,5.583-.341,6.866S509.391,326.22,509.391,326.22Z" transform="translate(-405.649 -252.212)" opacity="0.1"/>
    <path id="Path_241" data-name="Path 241" d="M410.056,308.14a5.5,5.5,0,0,1,.49,4.225C409.791,314.516,410.056,308.14,410.056,308.14Z" transform="translate(-331.891 -238.696)" opacity="0.1"/>
    <path id="Path_242" data-name="Path 242" d="M400,380.18s1.585.942,1.058,2.413S400,380.18,400,380.18Z" transform="translate(-324.407 -292.552)" opacity="0.1"/>
    <path id="Path_243" data-name="Path 243" d="M399.43,363.14s1.469.793,1.658,1.961S399.43,363.14,399.43,363.14Z" transform="translate(-323.981 -279.813)" opacity="0.1"/>
    <path id="Path_244" data-name="Path 244" d="M485.81,538.194s9.243.944,11.091-1.244C496.9,536.963,488.564,538.611,485.81,538.194Z" transform="translate(-388.557 -409.751)" opacity="0.1"/>
    <path id="Path_245" data-name="Path 245" d="M422.59,539.79s9.922,2.34,11.884.49C434.474,540.28,425.947,540.921,422.59,539.79Z" transform="translate(-341.295 -411.874)" opacity="0.1"/>
    <path id="Path_246" data-name="Path 246" d="M488.65,554s4.15,0,6.073.114S488.65,554,488.65,554Z" transform="translate(-390.68 -422.497)" opacity="0.1"/>
    <path id="Path_247" data-name="Path 247" d="M425.28,561s2.037,2.3,4.339,1.888S425.28,561,425.28,561Z" transform="translate(-343.306 -427.73)" opacity="0.1"/>
    <path id="Path_248" data-name="Path 248" d="M413.62,179.436a7.794,7.794,0,0,0-.828,3.241,13.506,13.506,0,0,1-3.62,7.164c-1.81,1.923-4.291,3.668-4.761,6.018-.444,2.231,1.063,4.379,1.853,6.563,2.082,5.727-.825,11.735-1.674,17.646-.235,1.633.048,3.721,2.06,4.263a11.424,11.424,0,0,1,1.913.422,2.3,2.3,0,0,1,1.128,1.8,27.468,27.468,0,0,1,.52,7.391c-.091,1.388-.192,2.986,1.121,3.94a6.628,6.628,0,0,0,2.173.868c2.067.558,4.74,1.01,6.134-.3.586-.548.805-1.32,1.535-1.754,1.093-.649,2.643-.21,4.018-.141a7.3,7.3,0,0,0,6.533-3.511,9.443,9.443,0,0,0,.606-6.444,40.924,40.924,0,0,1-1.176-6.477,3.761,3.761,0,0,1,.485-2.2c.841-1.3,2.8-1.891,4.135-2.913,2.506-1.918,2.5-5.061,1.588-7.691s-2.547-5.152-2.749-7.87a3,3,0,0,1,.371-1.9,7.712,7.712,0,0,1,1.514-1.424c3.657-3.09,3.226-8.163.2-11.636C433.354,180.638,418.189,172.346,413.62,179.436Z" transform="translate(-327.645 -140.406)" fill="#e3787d"/>
    <g id="Group_10" data-name="Group 10" transform="translate(76.573 47.951)" opacity="0.1">
      <path id="Path_249" data-name="Path 249" d="M406.393,258.264a14.372,14.372,0,0,0-.578-6.8c-.4-1.1-.977-2.183-1.4-3.281a4.736,4.736,0,0,0-.454,1.262c-.444,2.231,1.063,4.379,1.853,6.563A11.934,11.934,0,0,1,406.393,258.264Z" transform="translate(-403.882 -241.822)"/>
      <path id="Path_250" data-name="Path 250" d="M410.3,353.276a27.573,27.573,0,0,0-.517-7.391,2.3,2.3,0,0,0-1.131-1.795,11.179,11.179,0,0,0-1.913-.422,2.607,2.607,0,0,1-1.767-1.459c-.116.576-.217,1.148-.3,1.724-.235,1.633.048,3.721,2.06,4.263a11.172,11.172,0,0,1,1.913.419,2.308,2.308,0,0,1,1.131,1.8,27.97,27.97,0,0,1,.485,3.413C410.28,353.639,410.29,353.458,410.3,353.276Z" transform="translate(-404.422 -312.117)"/>
      <path id="Path_251" data-name="Path 251" d="M448.554,377.529a7.289,7.289,0,0,1-6.535,3.511c-1.376-.071-2.925-.5-4.016.141-.729.432-.952,1.207-1.537,1.754-1.393,1.3-4.066.858-6.134.3a6.706,6.706,0,0,1-2.173-.868,2.726,2.726,0,0,1-1.073-1.742c.015.775,0,1.552-.048,2.327-.091,1.388-.192,2.986,1.121,3.943a6.7,6.7,0,0,0,2.173.866c2.067.558,4.74,1.01,6.134-.3.586-.548.808-1.32,1.537-1.767,1.09-.649,2.64-.21,4.016-.141a7.3,7.3,0,0,0,6.535-3.511,9.17,9.17,0,0,0,.649-6.192,6.782,6.782,0,0,1-.649,1.678Z" transform="translate(-421.157 -337.266)"/>
      <path id="Path_252" data-name="Path 252" d="M525.693,226.345a7.123,7.123,0,0,0-1.514,1.424,3,3,0,0,0-.371,1.9,10.111,10.111,0,0,0,.52,2.423,10.081,10.081,0,0,1,1.376-1.222,7.328,7.328,0,0,0,2.272-7.88A7.2,7.2,0,0,1,525.693,226.345Z" transform="translate(-493.516 -222.99)"/>
      <path id="Path_253" data-name="Path 253" d="M514.762,303.746c-1.335,1.022-3.294,1.615-4.132,2.915a3.748,3.748,0,0,0-.487,2.2,15.161,15.161,0,0,0,.323,2.625,2.425,2.425,0,0,1,.164-.3c.838-1.3,2.8-1.891,4.132-2.913,2.289-1.752,2.481-4.523,1.8-6.994a5.24,5.24,0,0,1-1.8,2.466Z" transform="translate(-483.319 -281.518)"/>
    </g>
    <path id="Path_254" data-name="Path 254" d="M529.883,243.915s6.527-.338,7.093-3.092-1.767-5.553-2.337-5.848-6.724-4.98-6.724-4.98l-9.92-6.336s-4.753-13.63-5.806-8.413,3.057,12.146,3.057,12.146,5.694,3.66,6.336,4.753,4.566,3.96,4.566,3.96Z" transform="translate(-408.149 -168.36)" fill="#ffb8b8"/>
    <path id="Path_255" data-name="Path 255" d="M550.574,302.308a13.334,13.334,0,0,1-3.546,5.472h-1.113l-9.786.1L535,304.8l1.585-6.679.979.04a5.649,5.649,0,0,0,1.885.6,10.383,10.383,0,0,1,2.524.149.311.311,0,0,0,.184.028c.371-.038.757-.593.757-.593S552.121,298.385,550.574,302.308Z" transform="translate(-425.331 -231.205)" fill="#a36468"/>
    <path id="Path_256" data-name="Path 256" d="M571.738,302.95a13.335,13.335,0,0,1-3.546,5.472h-1.113a55.855,55.855,0,0,1,2.272-5.482c.457-.7-3.642-2.431-6.04-3.367.371-.038.757-.593.757-.593S573.286,299.028,571.738,302.95Z" transform="translate(-446.495 -231.848)" opacity="0.1"/>
    <ellipse id="Ellipse_22" data-name="Ellipse 22" cx="11.152" cy="2.181" rx="11.152" ry="2.181" transform="translate(11.773 190.444)" fill="#ff4f18" opacity="0.1"/>
    <ellipse id="Ellipse_23" data-name="Ellipse 23" cx="8.123" cy="1.588" rx="8.123" ry="1.588" transform="translate(200.695 176.653)" fill="#ff4f18" opacity="0.1"/>
    <ellipse id="Ellipse_24" data-name="Ellipse 24" cx="8.123" cy="1.588" rx="8.123" ry="1.588" transform="translate(235.904 183.087)" fill="#ff4f18" opacity="0.1"/>
    <ellipse id="Ellipse_25" data-name="Ellipse 25" cx="8.123" cy="1.588" rx="8.123" ry="1.588" transform="translate(181.385 196.338)" fill="#ff4f18" opacity="0.1"/>
    <path id="Path_257" data-name="Path 257" d="M218.219,556.31s1.827,2.39-.843,5.995-4.869,6.649-3.976,8.9c0,0,4.026-6.7,7.3-6.79S221.826,560.339,218.219,556.31Z" transform="translate(-184.757 -424.224)" fill="#ff4f18"/>
    <path id="Path_258" data-name="Path 258" d="M218.52,556.31a2.976,2.976,0,0,1,.374.757c3.2,3.758,4.9,7.265,1.827,7.353-2.862.081-6.3,5.2-7.121,6.495a2.383,2.383,0,0,0,.1.3s4.026-6.7,7.3-6.79S222.127,560.339,218.52,556.31Z" transform="translate(-185.057 -424.224)" opacity="0.1"/>
    <path id="Path_259" data-name="Path 259" d="M245.292,566.767c0,.841-.093,1.514-.21,1.514s-.212-.682-.212-1.514.119-.444.235-.444S245.292,565.916,245.292,566.767Z" transform="translate(-208.434 -431.637)" fill="#ffd037"/>
    <path id="Path_260" data-name="Path 260" d="M246.9,570.634c-.737.4-1.381.646-1.436.543s.5-.5,1.234-.914.447-.109.5,0S247.632,570.23,246.9,570.634Z" transform="translate(-208.871 -434.499)" fill="#ffd037"/>
    <path id="Path_261" data-name="Path 261" d="M182.711,556.31s-1.827,2.39.843,5.995,4.869,6.649,3.983,8.9c0,0-4.039-6.7-7.32-6.79S179.1,560.339,182.711,556.31Z" transform="translate(-158.893 -424.224)" fill="#ff4f18"/>
    <path id="Path_262" data-name="Path 262" d="M182.705,556.31a2.976,2.976,0,0,0-.374.757c-3.2,3.758-4.9,7.265-1.827,7.353,2.862.081,6.31,5.2,7.121,6.495a2.87,2.87,0,0,1-.1.3s-4.039-6.7-7.32-6.79S179.1,560.339,182.705,556.31Z" transform="translate(-158.887 -424.224)" opacity="0.1"/>
    <path id="Path_263" data-name="Path 263" d="M181.43,566.767c0,.841.093,1.514.21,1.514s.212-.682.212-1.514-.119-.444-.235-.444S181.43,565.916,181.43,566.767Z" transform="translate(-161.007 -431.637)" fill="#ffd037"/>
    <path id="Path_264" data-name="Path 264" d="M175.477,570.634c.74.4,1.381.646,1.439.543s-.5-.5-1.237-.914-.447-.109-.5,0S174.739,570.23,175.477,570.634Z" transform="translate(-156.22 -434.499)" fill="#ffd037"/>
    <ellipse id="Ellipse_26" data-name="Ellipse 26" cx="19.095" cy="2.931" rx="19.095" ry="2.931" transform="translate(9.544 159.387)" fill="#ff4f18" opacity="0.1"/>
    <path id="Path_265" data-name="Path 265" d="M194.731,599.248l-.091.757-.129,1.052-.053.439-.129,1.055-.056.439-.129,1.053-1.459,11.975c-.131,1.07-1.878,1.9-3.988,1.9h-7.577c-2.11,0-3.854-.833-3.986-1.9l-1.461-11.977-.129-1.053-.053-.439-.131-1.055-.053-.439L175.179,600l-.091-.757c-.073-.606.871-1.116,2.065-1.116h15.529C193.86,598.133,194.807,598.642,194.731,599.248Z" transform="translate(-156.263 -455.488)" fill="#65617d"/>
    <path id="Path_266" data-name="Path 266" d="M94.361,572.5l-.126,1.055H75.016L74.89,572.5Z" transform="translate(-55.987 -427.995)" fill="#9d9cb5"/>
    <path id="Path_267" data-name="Path 267" d="M94.718,578.42l-.126,1.053H75.739l-.129-1.053Z" transform="translate(-56.525 -432.421)" fill="#9d9cb5"/>
    <path id="Path_268" data-name="Path 268" d="M95.074,584.33l-.129,1.053H76.459l-.129-1.053Z" transform="translate(-57.063 -436.839)" fill="#9d9cb5"/>
    <circle id="Ellipse_27" data-name="Ellipse 27" cx="7.951" cy="7.951" r="7.951" transform="translate(37.481 23.477)" fill="#ff4f18" opacity="0.1"/>
    <circle id="Ellipse_28" data-name="Ellipse 28" cx="4.922" cy="4.922" r="4.922" transform="translate(23.851 7.575)" fill="#ff4f18" opacity="0.1"/>
    <circle id="Ellipse_29" data-name="Ellipse 29" cx="3.029" cy="3.029" r="3.029" transform="translate(0 20.448)" fill="#ff4f18" opacity="0.1"/>
  </g>
</svg>
