<svg xmlns="http://www.w3.org/2000/svg" width="584.698" height="351.683" viewBox="0 0 584.698 351.683">
  <g id="Group_13" data-name="Group 13" transform="translate(-671 -2035)">
    <path id="Path_227" data-name="Path 227" d="M102.816,522.914,137.3,473.367,102.8,528.3l-.02,5.637q-3.689-.031-7.3-.24c-.011-1.28,2.92-71.706,2.8-72.98.17-.048.266-6.661.333-6.95L62.578,399.626l36.064,49.019.108,1.449,2.14-54.717L69.921,339.346l31.213,46.418c.012-.745,1.477-113.091,1.492-113.784.009.368.682,89.405.687,89.78l29.617-35.839-29.646,43.54-.151,48.971,27.484-47.356c-34.3,69.061-26.709,44.894-27.586,81.786l39.923-65.939L103,462.362Z" transform="translate(608.605 1842.082)" fill="#ff4f18" opacity="0.11"/>
    <path id="Path_228" data-name="Path 228" d="M1092.916,658.15l14.37-20.647L1092.909,660.4l-.008,2.349q-1.537-.013-3.043-.1c0-.533,1.217-29.882,1.165-30.413.071-.02.111-2.776.139-2.9l-15.011-22.562,15.029,20.427.045.6.891-22.8-12.905-23.35L1092.217,601c0-.31.616-47.128.622-47.416,0,.153.284,37.257.286,37.414l12.342-14.935L1093.112,594.2l-.063,20.407,11.453-19.734c-14.294,28.779-11.13,18.708-11.5,34.082l16.637-27.479-16.651,31.437Z" transform="translate(146.055 1713.572)" fill="#ff4f18" opacity="0.11"/>
    <ellipse id="Ellipse_21" data-name="Ellipse 21" cx="291.393" cy="11.417" rx="291.393" ry="11.417" transform="translate(671 2363.85)" fill="#ff4f18" opacity="0.11"/>
    <rect id="Rectangle_205" data-name="Rectangle 205" width="332.71" height="198.36" transform="translate(773.031 2169.841)" fill="#ff4f18"/>
    <path id="Path_229" data-name="Path 229" d="M328.582,374.581a79.565,79.565,0,0,1-79.546,78.268c-.935,0-1.865-.016-2.794-.049v-78.22Z" transform="translate(526.789 1795.259)" fill="#bd360b"/>
    <path id="Path_230" data-name="Path 230" d="M555.616,730.184H523.972a16.858,16.858,0,0,1,31.644,0Z" transform="translate(400.045 1638.016)" fill="#bd360b"/>
    <path id="Path_231" data-name="Path 231" d="M831.536,550.721v66.814a33.447,33.447,0,0,1,0-66.814Z" transform="translate(274.204 1714.877)" fill="#bd360b"/>
    <rect id="Rectangle_206" data-name="Rectangle 206" width="229.495" height="19.605" rx="9.803" transform="translate(824.926 2241.919)" fill="#fff"/>
    <rect id="Rectangle_207" data-name="Rectangle 207" width="229.495" height="19.605" rx="9.803" transform="translate(824.926 2280.553)" fill="#fff"/>
    <rect id="Rectangle_208" data-name="Rectangle 208" width="80.462" height="19.605" rx="9.803" transform="translate(973.96 2319.186)" fill="#fff"/>
    <path id="Path_232" data-name="Path 232" d="M946.761,238.659s9.149,3.558,9.657,15.248-2.541,44.219-2.541,44.219,11.182,16.265,2.541,20.839-9.657-18.3-9.657-18.3L936.6,252.382S942.694,238.151,946.761,238.659Z" transform="translate(211.742 1857.294)" fill="#dd8995"/>
    <path id="Path_233" data-name="Path 233" d="M763.989,251.787s-21.856,14.232-22.872,3.05,6.607-54.893,6.607-54.893,1.017-18.806,11.69-14.232-3.05,20.331-3.05,20.331l1.525,35.579,10.165-.508Z" transform="translate(300.992 1881.778)" fill="#dd8995"/>
    <path id="Path_234" data-name="Path 234" d="M794.33,323.806S727.238,298.9,730.8,327.872s20.839,65.567,20.839,65.567l6.1,9.657h12.707l-8.133-52.352s28.971,16.265,37.612,13.723c0,0,11.182,74.716,15.248,80.307s11.182,73.191,11.182,73.191l6.607,8.132h12.707V411.736s21.856-71.158,5.083-74.716S794.33,323.806,794.33,323.806Z" transform="translate(305.722 1822.974)" fill="#2f2e41"/>
    <path id="Path_235" data-name="Path 235" d="M745.066,463.772s-3.05-5.591-8.132,0-17.281,12.2-17.281,12.2-26.43,6.1-5.083,11.182,23.889,0,23.889,0,3.558,1.017,6.608,2.033,22.872-2.541,22.872-5.591-6.729-21.275-9.464-18.516S745.066,463.772,745.066,463.772Z" transform="translate(316.865 1755.69)" fill="#2f2e41"/>
    <path id="Path_236" data-name="Path 236" d="M893.817,691.044s-7.494-6.172-9.258-4.408S873.538,700.3,873.538,700.3s-24.687,18.956-2.2,22.042,21.16-5.29,21.16-5.29h7.053c.882,0,12.784-5.29,12.343-7.494s-5.731-20.178-7.494-18.906S893.817,691.044,893.817,691.044Z" transform="translate(245.837 1652.996)" fill="#2f2e41"/>
    <circle id="Ellipse_22" data-name="Ellipse 22" cx="17.281" cy="17.281" r="17.281" transform="translate(1054.307 2042.077)" fill="#dd8995"/>
    <path id="Path_237" data-name="Path 237" d="M808.9,167.615S822.114,178.8,831.263,178.8s-13.215,20.839-13.215,20.839l-19.823-17.789Z" transform="translate(274.888 1889.709)" fill="#dd8995"/>
    <path id="Path_238" data-name="Path 238" d="M802.249,199.983l-.4-4s10.053-17.851,13.1-19.376a12.618,12.618,0,0,1,5.083-1.525S830.2,164.4,841.385,170,879,211.165,879,211.165s-18.806,1.525-16.265,16.265c0,0,18.806,48.286,13.723,48.794s-20.331-3.05-36.087,4.066-22.872,2.541-22.872,2.541l-8.132-26.43s-15.248-8.641-14.74-16.265l-22.109,9.911,2.033-18.806,13.469-15.5S785.476,213.706,802.249,199.983Z" transform="translate(286.621 1889.363)" fill="#575a89"/>
    <path id="Path_239" data-name="Path 239" d="M758.915,152.777a6.38,6.38,0,0,1-2.509,1.709,2.189,2.189,0,0,1-2.617-1.007l.731-.951-2.191-1.361.955-1.12-1.764-1.916,1.393-1.1-2.651-1.9c3.436-5.608,7.153-11.285,12.578-15s13.006-5.038,18.564-1.522a20.3,20.3,0,0,1,6.561,7.721c3.287,6.029,6.185,11.906,6.612,18.76-2.065-2.011-5.079-3.144-7.144-5.155a15.475,15.475,0,0,0-3.082-2.523c-2.16-1.218-4.744-1.326-7.162-1.875a10.759,10.759,0,0,1-4.89-2.688c-1.83-1.558-1.9-.956-3.752.8Q763.734,148.213,758.915,152.777Z" transform="translate(296.777 1908.449)" fill="#2f2e41"/>
  </g>
</svg>
