<svg xmlns="http://www.w3.org/2000/svg" width="436.47" height="281.519" viewBox="0 0 436.47 281.519">
  <g id="Group_11" data-name="Group 11" transform="translate(-635 -1515.911)">
    <path id="Path_185" data-name="Path 185" d="M929.614,595.784l-42.34-73.357a1.348,1.348,0,0,0-2.34,0l-42.353,73.357a1.348,1.348,0,0,0,1.172,2.042h12.634a1.356,1.356,0,0,1,1.352,1.352v15.672a1.348,1.348,0,0,0,1.343,1.352h16.484a1.352,1.352,0,0,0,1.352-1.352v-7.583a1.348,1.348,0,0,1,1.348-1.347h15.672a1.352,1.352,0,0,1,1.352,1.347v7.567a1.352,1.352,0,0,0,1.352,1.352h16.48a1.364,1.364,0,0,0,1.356-1.352V599.161a1.352,1.352,0,0,1,1.352-1.352h12.634a1.352,1.352,0,0,0,1.151-2.025ZM870.581,603.9a1.364,1.364,0,0,1-.96.408h-5.945a1.352,1.352,0,0,1,0-2.7h5.945a1.348,1.348,0,0,1,1.352,1.352,1.364,1.364,0,0,1-.392.943Zm38.9,0a1.343,1.343,0,0,1-.956.408h-5.941a1.352,1.352,0,0,1,0-2.7h5.941a1.347,1.347,0,0,1,.956,2.307Z" transform="translate(109.802 1164.222)" fill="#ff4f18" opacity="0.1"/>
    <path id="Path_186" data-name="Path 186" d="M297.175,597.377l-42.348-73.353a1.356,1.356,0,0,0-2.344,0L215.9,587.38a111.974,111.974,0,0,0,15.325,15.807h5.949a1.352,1.352,0,0,1,.956,2.307,1.327,1.327,0,0,1-.955.408h-2.515a65.452,65.452,0,0,0,9.8,6.1v-3.124a1.356,1.356,0,0,1,1.356-1.352h15.668a1.352,1.352,0,0,1,1.352,1.352v7.562a1.258,1.258,0,0,0,.127.568,1.339,1.339,0,0,0,1.225.784H280.67a1.335,1.335,0,0,0,1.074-.543,1.294,1.294,0,0,0,.269-.817V600.758a1.352,1.352,0,0,1,1.352-1.352H296a1.347,1.347,0,0,0,1.176-2.029Zm-28,6.207a1.36,1.36,0,0,1,.96-.408h5.945a1.352,1.352,0,1,1,0,2.7h-5.945a1.348,1.348,0,0,1-1.352-1.352,1.364,1.364,0,0,1,.392-.943Zm-26.6-27.146a1.347,1.347,0,0,1-1.352-1.352V564.82a1.348,1.348,0,0,1,1.352-1.352h22.152a1.352,1.352,0,0,1,1.352,1.352v10.266a1.352,1.352,0,0,1-1.352,1.352Z" transform="translate(480.473 1163.275)" fill="#ff4f18" opacity="0.1"/>
    <path id="Path_187" data-name="Path 187" d="M585.738,341.628H533.324V330.292a2.707,2.707,0,0,0-2.711-2.711h-15.39V315.527a1.707,1.707,0,0,0-1.707-1.707H493.691a1.707,1.707,0,0,0-1.707,1.707V327.6h-18.1a2.711,2.711,0,0,0-2.711,2.711v11.307H421.207a.551.551,0,0,0-.547.551V492.659a.551.551,0,0,0,.547.551h33.214a.551.551,0,0,0,.551-.551V472.413a.559.559,0,0,1,.555-.551h14.026a.555.555,0,0,1,.551.551v20.245a.555.555,0,0,0,.547.551h65.636a.555.555,0,0,0,.551-.551V472.413a.555.555,0,0,1,.547-.551h14.03a.555.555,0,0,1,.555.551v20.245a.555.555,0,0,0,.547.551h33.218a.551.551,0,0,0,.547-.551V342.179a.551.551,0,0,0-.547-.551Zm-136.715,123.2a.547.547,0,0,1-.543.547H427.965a.551.551,0,0,1-.555-.547v-7.007a.555.555,0,0,1,.555-.551H448.48a.551.551,0,0,1,.543.551Zm0-18.106a.547.547,0,0,1-.543.551H427.965a.551.551,0,0,1-.555-.551v-7a.551.551,0,0,1,.555-.551H448.48a.547.547,0,0,1,.543.551Zm0-18.1a.551.551,0,0,1-.543.551H427.965a.555.555,0,0,1-.555-.551v-7.007a.555.555,0,0,1,.555-.551H448.48a.551.551,0,0,1,.543.551Zm0-18.106a.547.547,0,0,1-.543.551H427.965a.551.551,0,0,1-.555-.551v-7a.551.551,0,0,1,.555-.551H448.48a.547.547,0,0,1,.543.551Zm0-18.1a.551.551,0,0,1-.543.551H427.965a.555.555,0,0,1-.555-.551v-7.007a.551.551,0,0,1,.555-.547H448.48a.547.547,0,0,1,.543.547Zm0-18.1a.547.547,0,0,1-.543.547H427.965a.551.551,0,0,1-.555-.547v-7.007a.555.555,0,0,1,.555-.551H448.48a.551.551,0,0,1,.543.551Zm0-18.106a.547.547,0,0,1-.543.551H427.965a.551.551,0,0,1-.555-.551v-7a.551.551,0,0,1,.555-.551H448.48a.547.547,0,0,1,.543.551Zm48.641,108.617a.551.551,0,0,1-.555.547H476.594a.547.547,0,0,1-.547-.547v-7a.551.551,0,0,1,.547-.551h20.515a.555.555,0,0,1,.555.551Zm0-18.106a.551.551,0,0,1-.555.551H476.594a.547.547,0,0,1-.547-.551v-7a.547.547,0,0,1,.547-.551h20.515a.551.551,0,0,1,.555.551Zm0-18.1a.555.555,0,0,1-.555.551H476.594a.551.551,0,0,1-.547-.535v-7.019a.551.551,0,0,1,.547-.551h20.515a.555.555,0,0,1,.555.551Zm0-18.106a.551.551,0,0,1-.555.551H476.594a.547.547,0,0,1-.547-.551v-7a.547.547,0,0,1,.547-.551h20.515a.551.551,0,0,1,.555.551Zm0-18.1a.555.555,0,0,1-.555.551H476.594a.551.551,0,0,1-.547-.551v-7a.547.547,0,0,1,.547-.547h20.515a.551.551,0,0,1,.555.547Zm0-18.1a.551.551,0,0,1-.555.547H476.594a.547.547,0,0,1-.547-.531v-7.019a.551.551,0,0,1,.547-.551h20.515a.555.555,0,0,1,.555.551Zm0-18.106a.551.551,0,0,1-.555.551H476.594a.547.547,0,0,1-.547-.551v-7a.547.547,0,0,1,.547-.551h20.515a.551.551,0,0,1,.555.551Zm33.23,108.617a.547.547,0,0,1-.551.547H509.816a.555.555,0,0,1-.555-.547v-7a.559.559,0,0,1,.555-.551h20.511a.551.551,0,0,1,.551.551Zm0-18.106a.547.547,0,0,1-.551.551H509.816a.555.555,0,0,1-.555-.551v-6.995a.555.555,0,0,1,.555-.551h20.511a.547.547,0,0,1,.551.551Zm0-18.1a.551.551,0,0,1-.551.551H509.816a.559.559,0,0,1-.555-.551v-7a.559.559,0,0,1,.555-.551h20.511a.551.551,0,0,1,.551.551Zm0-18.106a.547.547,0,0,1-.551.551H509.816a.555.555,0,0,1-.555-.551v-6.995a.555.555,0,0,1,.555-.551h20.511a.547.547,0,0,1,.551.551Zm0-18.1a.551.551,0,0,1-.551.551H509.816a.559.559,0,0,1-.555-.551v-7a.555.555,0,0,1,.555-.547h20.511a.547.547,0,0,1,.551.547Zm0-18.1a.547.547,0,0,1-.551.547H509.816a.555.555,0,0,1-.555-.547v-7a.559.559,0,0,1,.555-.551h20.511a.551.551,0,0,1,.551.551Zm0-18.106a.547.547,0,0,1-.551.551H509.816a.555.555,0,0,1-.555-.551v-6.995a.555.555,0,0,1,.555-.551h20.511a.547.547,0,0,1,.551.551Zm48.641,108.617a.555.555,0,0,1-.555.547H558.465a.543.543,0,0,1-.547-.547v-6.995a.547.547,0,0,1,.547-.551H578.98a.559.559,0,0,1,.555.551Zm0-18.106a.555.555,0,0,1-.555.551H558.465a.547.547,0,0,1-.547-.551v-6.991a.547.547,0,0,1,.547-.551H578.98a.555.555,0,0,1,.555.551Zm0-18.1a.559.559,0,0,1-.555.551H558.465a.547.547,0,0,1-.547-.527v-7.019a.547.547,0,0,1,.547-.551H578.98a.559.559,0,0,1,.555.551Zm0-18.106a.555.555,0,0,1-.555.551H558.465a.547.547,0,0,1-.547-.551v-6.991a.547.547,0,0,1,.547-.551H578.98a.555.555,0,0,1,.555.551Zm0-18.1a.559.559,0,0,1-.555.551H558.465a.547.547,0,0,1-.547-.551v-6.995a.543.543,0,0,1,.547-.547H578.98a.555.555,0,0,1,.555.547Zm0-18.1a.555.555,0,0,1-.555.547H558.465a.543.543,0,0,1-.547-.522v-7.019a.547.547,0,0,1,.547-.551H578.98a.559.559,0,0,1,.555.551Zm0-18.106a.555.555,0,0,1-.555.551H558.465a.547.547,0,0,1-.547-.551v-6.99a.547.547,0,0,1,.547-.551H578.98a.555.555,0,0,1,.555.551Z" transform="translate(359.324 1287.246)" fill="#ff4f18" opacity="0.1"/>
    <path id="Path_188" data-name="Path 188" d="M174.884,314.845a30.392,30.392,0,0,0,2.356-3.463l-16.607-2.728,17.967.135a30.286,30.286,0,0,0,.584-23.982l-24.092,12.5L177.31,280.97a30.27,30.27,0,1,0-49.993,33.892,30.173,30.173,0,0,0-3.45,5.521l21.536,11.18-22.977-7.713a30.294,30.294,0,0,0,4.9,28.424,30.065,30.065,0,0,0-5.427,10.8A301.543,301.543,0,0,0,136.15,397.3a29.968,29.968,0,0,0,9.392,3.434,10.5,10.5,0,0,0-.6,3.516,9.984,9.984,0,0,0,1.274,5.055,9.8,9.8,0,0,0-1.29,4.312h0A186.175,186.175,0,0,0,157.22,432a9.288,9.288,0,0,0-1-2.45,10.376,10.376,0,0,0,0-10.11,10.376,10.376,0,0,0,0-10.11,9.984,9.984,0,0,0,1.315-5.055,10.368,10.368,0,0,0-.612-3.565,30.27,30.27,0,0,0,17.967-48.416,30.262,30.262,0,0,0,0-37.428Z" transform="translate(536.72 1315.58)" fill="#ff4f18" opacity="0.1"/>
    <path id="Path_189" data-name="Path 189" d="M1074.819,385.944l-1.225-.2h1.2a51.822,51.822,0,0,0-2.483-13.6l-4.271,2.217,4.018-2.965a52.12,52.12,0,0,0-19.906-26.1,30.38,30.38,0,0,0-11.887,46.652,30.27,30.27,0,0,0-3.45,5.533l21.56,11.229-22.977-7.73a30.413,30.413,0,0,0,4.9,28.485,30.384,30.384,0,0,0,13.434,47.273c1.633-3.875,3.222-7.926,4.708-12.091,1.315-3.675,2.568-7.419,3.749-11.2a344.229,344.229,0,0,0,8.641-33.712c2.613-12.952,4.083-24.271,4.083-31.442C1074.872,387.5,1074.852,386.724,1074.819,385.944Z" transform="translate(-3.443 1268.626)" fill="#ff4f18" opacity="0.1"/>
    <ellipse id="Ellipse_17" data-name="Ellipse 17" cx="217.234" cy="10.208" rx="217.234" ry="10.208" transform="translate(635 1777.013)" fill="#3f3d56"/>
    <path id="Path_190" data-name="Path 190" d="M534.361,428.7c-4.059-7.032-20.825-4.961-37.408,4.622a79.689,79.689,0,0,0-8.322,5.517,72.132,72.132,0,0,0-143.93,1.813,77.371,77.371,0,0,0-10.617-7.35c-16.55-9.563-33.32-11.633-37.375-4.6s6.125,20.5,22.708,30.082c10.743,6.2,21.544,9.253,28.931,8.734a72.214,72.214,0,0,0,21.977,32.258c-14.545,2.042-25.239,8.845-25.239,16.938,0,9.694,15.357,17.558,34.3,17.558s34.3-7.865,34.3-17.558v-.078q1.527.065,3.067.069t3.067-.069v.078c0,9.694,15.357,17.558,34.3,17.558s34.3-7.865,34.3-17.558c0-8.093-10.694-14.9-25.239-16.938a72.2,72.2,0,0,0,21.96-32.2c7.224-.188,16.905-3.214,26.542-8.779C528.269,449.2,538.444,435.728,534.361,428.7Z" transform="translate(433.187 1252.562)" fill="#ff4f18"/>
    <path id="Path_191" data-name="Path 191" d="M296.711,507.852c4.059-7.031,20.825-4.961,37.408,4.622a77.278,77.278,0,0,1,10.457,7.2,23.244,23.244,0,0,0,.151-3.553A77.416,77.416,0,0,0,334.11,508.8c-16.574-9.584-33.345-11.654-37.4-4.622a7.733,7.733,0,0,0-.69,5.472A6.534,6.534,0,0,1,296.711,507.852Z" transform="translate(433.186 1177.086)" opacity="0.1"/>
    <path id="Path_192" data-name="Path 192" d="M813.6,507.852c-4.059-7.032-20.825-4.961-37.412,4.622a49.6,49.6,0,0,0-8.412,5.57,22.249,22.249,0,0,1-.151-3.553A49.7,49.7,0,0,1,776.2,508.8c16.6-9.584,33.353-11.654,37.412-4.622a7.733,7.733,0,0,1,.69,5.472A6.537,6.537,0,0,0,813.6,507.852Z" transform="translate(154.04 1177.086)" opacity="0.1"/>
    <ellipse id="Ellipse_18" data-name="Ellipse 18" cx="7.481" cy="9.796" rx="7.481" ry="9.796" transform="translate(823.124 1673.345)" fill="#444053"/>
    <ellipse id="Ellipse_19" data-name="Ellipse 19" cx="7.481" cy="9.796" rx="7.481" ry="9.796" transform="translate(861.773 1673.345)" fill="#444053"/>
    <path id="Path_193" data-name="Path 193" d="M570.315,579.99c0,14.063-23.492,37.755-47.2,37.755s-46.309-24.227-46.309-38.277,22.128-1.225,45.811-1.225S570.315,565.923,570.315,579.99Z" transform="translate(326.102 1133.964)" fill="#3f3d56"/>
    <path id="Path_194" data-name="Path 194" d="M491.8,596.16s42.61,9.486,78.4.269c0,0,4.381,0,1.388,5.063a8.088,8.088,0,0,1-3.267,3.071c-6.9,3.524-32.442,13.945-73.284.657a8.036,8.036,0,0,1-5.325-5.451C489.243,598.051,489.452,596.4,491.8,596.16Z" transform="translate(318.589 1120.195)" fill="#f6f8fb"/>
    <path id="Path_195" data-name="Path 195" d="M486.9,381.742a72.128,72.128,0,0,1,72,67.849q.2-2.689.2-5.439a72.131,72.131,0,1,0-144.263,0c0,1.441.051,2.858.133,4.292a72.137,72.137,0,0,1,71.928-66.7Z" transform="translate(362.77 1252.811)" opacity="0.1"/>
    <path id="Path_196" data-name="Path 196" d="M584.449,154.009a9.245,9.245,0,0,1-18.489,0v-.445a9.245,9.245,0,0,1,18.465,0A3.248,3.248,0,0,1,584.449,154.009Z" transform="translate(273.355 1387.252)" fill="#3f3d56"/>
    <path id="Path_197" data-name="Path 197" d="M584.449,161.946a9.245,9.245,0,0,1-18.489,0V161.5a14.594,14.594,0,0,1,18.465,0A3.248,3.248,0,0,1,584.449,161.946Z" transform="translate(273.355 1379.315)" opacity="0.1"/>
    <circle id="Ellipse_20" data-name="Ellipse 20" cx="14.598" cy="14.598" r="14.598" transform="translate(833.961 1538.341)" fill="#3f3d56"/>
    <path id="Path_198" data-name="Path 198" d="M563.448,148.964a9.249,9.249,0,0,1,8.02-9.163,9.245,9.245,0,1,0,0,18.326A9.249,9.249,0,0,1,563.448,148.964Z" transform="translate(276.291 1390.255)" fill="#3f3d56"/>
    <path id="Path_199" data-name="Path 199" d="M541.407,192.969a9.245,9.245,0,0,1-1.556-12.079A9.245,9.245,0,1,0,552.833,194a8.875,8.875,0,0,0,.751-.976A9.241,9.241,0,0,1,541.407,192.969Z" transform="translate(290.684 1365.896)" fill="#3f3d56"/>
    <path id="Path_200" data-name="Path 200" d="M565.277,233.207a7.992,7.992,0,0,0-2.16.739c-1.225.845-1.172,2.638-.817,4.083.817,3.267,2.858,6.415,5.949,7.758a14.449,14.449,0,0,0,5.994.87c2.217-.024,4.712-.306,6.084-2.042a8.015,8.015,0,0,0,1.245-3.046,24.266,24.266,0,0,0,1.115-8.1c-1.343.118-2.858.2-3.887-.649s-1.3-2.45-1.756-3.793a.955.955,0,0,0-.343-.539,1.045,1.045,0,0,0-.612-.094,24.188,24.188,0,0,1-4.2-.208c-.87-.114-3.009-1.021-3.675-.257-.478.559-.176,2.246-.539,3.026a4.23,4.23,0,0,1-2.4,2.25Z" transform="translate(275.651 1338.242)" fill="#ffc1c7"/>
    <path id="Path_201" data-name="Path 201" d="M565.277,233.207a7.992,7.992,0,0,0-2.16.739c-1.225.845-1.172,2.638-.817,4.083.817,3.267,2.858,6.415,5.949,7.758a14.449,14.449,0,0,0,5.994.87c2.217-.024,4.712-.306,6.084-2.042a8.015,8.015,0,0,0,1.245-3.046,24.266,24.266,0,0,0,1.115-8.1c-1.343.118-2.858.2-3.887-.649s-1.3-2.45-1.756-3.793a.955.955,0,0,0-.343-.539,1.045,1.045,0,0,0-.612-.094,24.188,24.188,0,0,1-4.2-.208c-.87-.114-3.009-1.021-3.675-.257-.478.559-.176,2.246-.539,3.026a4.23,4.23,0,0,1-2.4,2.25Z" transform="translate(275.651 1338.242)" opacity="0.05"/>
    <path id="Path_202" data-name="Path 202" d="M366.294,472.423c-3.267.1-6.6-.041-9.8.678a2.511,2.511,0,0,0-1.584.817,2.289,2.289,0,0,0,.167,2.328,7.231,7.231,0,0,0,4.132,3.434c1.944.621,4.038.384,6.072.449a20.311,20.311,0,0,1,8.012,1.927,3.239,3.239,0,0,0,1.8.478c.9-.139,1.466-1.041,1.8-1.891a23.07,23.07,0,0,0,.9-3.132c.474-2.013.539-5.99-2.225-6.533-1.266-.245-2.756.629-3.973.882A29.571,29.571,0,0,1,366.294,472.423Z" transform="translate(398.377 1194.286)" fill="#444053"/>
    <path id="Path_203" data-name="Path 203" d="M783.1,444.287A3.765,3.765,0,0,0,785,442.825c1.225-1.784,1.225-3.916,1.874-5.872.817-2.544,2.626-4.643,3.761-7.064A14.606,14.606,0,0,0,792,422.947a1.225,1.225,0,0,0-1.433-1.143,6.914,6.914,0,0,0-3.916,2.687c-1.262,1.633-2.087,3.577-3.381,5.19a51.842,51.842,0,0,1-4.651,4.39c-1.931,1.862-3.446,3.887-1.723,6.3C778.3,442.359,780.235,445.226,783.1,444.287Z" transform="translate(148.995 1223.366)" fill="#444053"/>
    <path id="Path_204" data-name="Path 204" d="M462.243,343.466a131.194,131.194,0,0,1-37.567,33.145c-4.447,2.609-9.085,4.978-13.038,8.289a68.885,68.885,0,0,0-8.069,8.51,2.041,2.041,0,0,0-.572,1.045,2.005,2.005,0,0,0,.151.841c.817,2.409,1.764,5.023,3.945,6.337,5.651-8.167,16.881-10.278,25.492-15.219a113.974,113.974,0,0,0,11.339-7.905q8-5.99,16.362-11.478c3.7-2.426,7.5-4.81,11.74-6.072,8.983-2.687,18.783,0,27.081,4.41s15.6,10.437,23.732,15.129c11.05,6.37,23.377,10.127,35.582,13.83.437-2.932.7-5.807,1.323-8.706a36.477,36.477,0,0,1-8.767-2.813,51.986,51.986,0,0,1-9.216-4.586c-1.882-1.274-3.593-2.793-5.455-4.083-4.059-2.858-8.763-4.655-12.875-7.428-5.357-3.61-9.5-8.718-14.4-12.928-2.136-1.833-4.406-3.5-6.68-5.153a34.132,34.132,0,0,0-7.452-4.52c-3.218-1.27-6.729-1.531-10.18-1.776C477,341.763,469.557,341,462.243,343.466Z" transform="translate(369.774 1270.716)" fill="#575a89"/>
    <circle id="Ellipse_21" data-name="Ellipse 21" cx="10.208" cy="10.208" r="10.208" transform="translate(838.147 1549.775)" fill="#ffc1c7"/>
    <path id="Path_205" data-name="Path 205" d="M558.532,249.487a12.25,12.25,0,0,1-5.153-1.878,7.505,7.505,0,0,1-3.14-4.386c-.331-1.441-.147-3-.727-4.353a38.968,38.968,0,0,1-5.717,2.319,9.224,9.224,0,0,0-3.161,1.4c-1.931,1.572-2.042,4.43-1.989,6.917a4.6,4.6,0,0,0,.184,1.458,3.675,3.675,0,0,0,.8,1.2c2.1,2.246,5.361,3.177,7.35,5.533a7.877,7.877,0,0,0-1.923,4.149,14.659,14.659,0,0,1-.261,1.846,11.39,11.39,0,0,1-.6,1.466c-1.29,2.94-1.245,6.264-1.441,9.465s-.751,6.611-2.916,8.983a4.829,4.829,0,0,0,3.312,1.343c1.27.118,2.585-.049,3.879,0,3.414.1,6.635,1.495,9.927,2.405s7.027,1.282,9.939-.5c1.021-.625,1.886-1.486,2.911-2.1a14.335,14.335,0,0,1,4.083-1.445l.51-17.052a28.971,28.971,0,0,1,.257-3.573c.739-4.663,3.716-8.612,6.6-12.348a11.3,11.3,0,0,0-5.182-8.412,22.2,22.2,0,0,0-4.083-1.895l-3.356-1.29a1.87,1.87,0,0,0-.956-.18c-.727.131-1,1.017-1.045,1.752-.065,1.16.106,2.323.065,3.483a4.715,4.715,0,0,1-1.152,3.205,5.537,5.537,0,0,1-2.042,1.16C561.787,248.805,560.341,249.757,558.532,249.487Z" transform="translate(289.521 1331.782)" fill="#ff6584"/>
    <path id="Path_206" data-name="Path 206" d="M544.491,350.889a29.974,29.974,0,0,1-.114,6.819,10.183,10.183,0,0,1-3.03,5.978c-1.319,1.164-3.173,2.042-3.5,3.785a2.041,2.041,0,0,0,.09,1.143,2.173,2.173,0,0,0,2.352,1.1,5.484,5.484,0,0,0,2.45-1.282,54.131,54.131,0,0,0,4.059-3.675,9.689,9.689,0,0,0,2.8-3.789,9.354,9.354,0,0,0,.331-2.213c.265-4.083.335-8.167.408-12.25.049-2.973.082-6.039-1.013-8.8.163.408-3.814.8-4.116.817-1.715.151-1.388.857-1.29,2.474Q544.2,345.957,544.491,350.889Z" transform="translate(290.014 1273.117)" fill="#ffc1c7"/>
    <path id="Path_207" data-name="Path 207" d="M618.506,350.889a29.974,29.974,0,0,0,.114,6.819,10.183,10.183,0,0,0,3.03,5.978c1.319,1.164,3.173,2.042,3.5,3.785a2.041,2.041,0,0,1-.09,1.143,2.173,2.173,0,0,1-2.352,1.1,5.484,5.484,0,0,1-2.45-1.282,54.125,54.125,0,0,1-4.059-3.675,9.689,9.689,0,0,1-2.8-3.789,9.354,9.354,0,0,1-.331-2.213c-.265-4.083-.335-8.167-.408-12.25-.049-2.973-.082-6.039,1.013-8.8-.163.408,3.814.8,4.116.817,1.715.151,1.388.857,1.29,2.474Q618.813,345.957,618.506,350.889Z" transform="translate(245.733 1273.117)" fill="#ffc1c7"/>
    <path id="Path_208" data-name="Path 208" d="M540.427,261.7c-1.441,4.255-.857,8.983.617,13.218a6.887,6.887,0,0,1,.612,3.218,10.113,10.113,0,0,1-.506,1.633,7.734,7.734,0,0,0-.221,3.965,2.482,2.482,0,0,0,.453,1.094,5.077,5.077,0,0,1,.408.474c.559.874-.539,1.956-.408,2.989.1.858.968,1.364,1.576,1.98,1.719,1.744,1.388,4.582.939,6.991,2.087-.184,3.887-1.891,5.978-1.752a3.577,3.577,0,0,1,3.079,2.372c-.078-2.021.641-3.744.817-5.762.233-2.626-1.466-4.978-2.287-7.477-1.2-3.642-.523-7.6-.817-11.433a38.211,38.211,0,0,0-.621-4.243c-.372-1.919-.915-4.018-2.54-5.108C545.413,262.468,542.26,263.456,540.427,261.7Z" transform="translate(288.953 1318.083)" opacity="0.1"/>
    <path id="Path_209" data-name="Path 209" d="M539.427,259.7c-1.441,4.255-.857,8.983.617,13.218a6.889,6.889,0,0,1,.612,3.218,10.12,10.12,0,0,1-.506,1.633,7.733,7.733,0,0,0-.221,3.965,2.482,2.482,0,0,0,.453,1.094,5.077,5.077,0,0,1,.408.474c.559.874-.539,1.956-.408,2.989.1.858.968,1.364,1.576,1.98,1.719,1.744,1.388,4.582.939,6.991,2.087-.184,3.887-1.891,5.978-1.752a3.577,3.577,0,0,1,3.079,2.372c-.078-2.021.641-3.744.817-5.762.233-2.626-1.466-4.978-2.287-7.477-1.2-3.642-.523-7.6-.817-11.433a38.183,38.183,0,0,0-.621-4.243c-.372-1.919-.915-4.018-2.54-5.108C544.413,260.468,541.26,261.456,539.427,259.7Z" transform="translate(289.544 1319.266)" fill="#ff6584"/>
    <path id="Path_210" data-name="Path 210" d="M620.213,261.7c1.441,4.255.857,8.983-.617,13.218a6.888,6.888,0,0,0-.613,3.218,10.119,10.119,0,0,0,.506,1.633,7.733,7.733,0,0,1,.22,3.965,2.482,2.482,0,0,1-.453,1.094,5.086,5.086,0,0,0-.408.474c-.559.874.539,1.956.408,2.989-.1.858-.968,1.364-1.576,1.98-1.719,1.744-1.388,4.582-.939,6.991-2.087-.184-3.887-1.891-5.978-1.752a3.577,3.577,0,0,0-3.079,2.372c.078-2.021-.641-3.744-.817-5.762-.233-2.626,1.466-4.978,2.287-7.477,1.2-3.642.523-7.6.817-11.433a38.205,38.205,0,0,1,.612-4.222c.372-1.919.915-4.018,2.54-5.108C615.227,262.468,618.38,263.456,620.213,261.7Z" transform="translate(249.163 1318.083)" opacity="0.1"/>
    <path id="Path_211" data-name="Path 211" d="M621.213,259.7c1.441,4.255.857,8.983-.617,13.218a6.889,6.889,0,0,0-.612,3.218,10.108,10.108,0,0,0,.506,1.633,7.735,7.735,0,0,1,.22,3.965,2.483,2.483,0,0,1-.453,1.094,5.076,5.076,0,0,0-.408.474c-.559.874.539,1.956.408,2.989-.1.858-.968,1.364-1.576,1.98-1.719,1.744-1.388,4.582-.939,6.991-2.087-.184-3.887-1.891-5.978-1.752a3.577,3.577,0,0,0-3.079,2.372c.078-2.021-.641-3.744-.817-5.762-.233-2.626,1.466-4.978,2.287-7.477,1.2-3.642.523-7.6.817-11.433a38.22,38.22,0,0,1,.612-4.222c.372-1.919.915-4.018,2.54-5.108C616.227,260.468,619.38,261.456,621.213,259.7Z" transform="translate(248.572 1319.266)" fill="#ff6584"/>
    <ellipse id="Ellipse_22" data-name="Ellipse 22" cx="12.25" cy="8.167" rx="12.25" ry="8.167" transform="translate(835.901 1542.22)" fill="#3f3d56"/>
    <path id="Path_212" data-name="Path 212" d="M561.417,287.437a5.717,5.717,0,0,1,5.308-5.717h-.408a5.717,5.717,0,1,0,0,11.433,2.713,2.713,0,0,0,.408-.02A5.717,5.717,0,0,1,561.417,287.437Z" transform="translate(276.526 1306.238)" opacity="0.05"/>
    <ellipse id="Ellipse_23" data-name="Ellipse 23" cx="4.492" cy="5.717" rx="4.492" ry="5.717" transform="translate(837.943 1587.954)" fill="#ff6584"/>
    <path id="Path_213" data-name="Path 213" d="M611.908,287.437a5.717,5.717,0,0,0-5.308-5.717h.408a5.717,5.717,0,1,1,0,11.433,2.768,2.768,0,0,1-.408-.02A5.717,5.717,0,0,0,611.908,287.437Z" transform="translate(249.309 1306.238)" opacity="0.05"/>
    <ellipse id="Ellipse_24" data-name="Ellipse 24" cx="4.492" cy="5.717" rx="4.492" ry="5.717" transform="translate(852.234 1587.954)" fill="#ff6584"/>
    <path id="Path_214" data-name="Path 214" d="M569.85,196.478c-6.558,0-11.915-3.438-12.25-7.758v.408c0,4.492,5.488,8.167,12.25,8.167s12.25-3.675,12.25-8.167v-.408C581.769,193.04,576.412,196.478,569.85,196.478Z" transform="translate(278.301 1361.263)" opacity="0.1"/>
    <path id="Path_215" data-name="Path 215" d="M342.01,119.216l-6.337,4.022,3.847-7a6.268,6.268,0,0,0-3.83-1.368h-.1a7.386,7.386,0,0,1-1.315-.094l-2.148,1.36.919-1.674a7.644,7.644,0,0,1-3.757-2.858l-3.842,2.45,2.442-4.422a11.253,11.253,0,0,0-8.612-4.353c-4,0-7.558,2.381-9.857,6.084a7.35,7.35,0,0,1-6.533,3.512h-.212c-4.414,0-7.991,5.006-7.991,11.176s3.577,11.176,7.991,11.176a6.006,6.006,0,0,0,2.781-.694,11.534,11.534,0,0,1,9.673-.192,10.09,10.09,0,0,0,8.224,0,11.544,11.544,0,0,1,9.584.184,6.011,6.011,0,0,0,2.756.682c4.414,0,7.991-5,7.991-11.176a14.2,14.2,0,0,0-1.67-6.815Z" transform="translate(433.861 1410.631)" fill="#ff4f18" opacity="0.1"/>
    <path id="Path_216" data-name="Path 216" d="M330.066,156.681a11.8,11.8,0,0,0-6.848.747,10.082,10.082,0,0,1-8.22,0,11.535,11.535,0,0,0-9.673.188,5.962,5.962,0,0,1-2.781.7c-3.924,0-7.183-3.949-7.865-9.159a7.526,7.526,0,0,0,1.96-2.115c2.3-3.7,5.86-6.08,9.857-6.08s7.517,2.348,9.8,6.015a7.562,7.562,0,0,0,6.513,3.577h.1C326.048,150.531,328.751,153.035,330.066,156.681Z" transform="translate(433.861 1389.521)" opacity="0.03"/>
    <path id="Path_217" data-name="Path 217" d="M906.36,300.942l-3.161,2,1.919-3.487a3.12,3.12,0,0,0-1.915-.682h-.049a3.929,3.929,0,0,1-.657-.049l-1.07.678.457-.817a3.838,3.838,0,0,1-1.874-1.425L898.1,298.39l1.225-2.2A5.615,5.615,0,0,0,895.008,294a5.848,5.848,0,0,0-4.9,3.034,3.675,3.675,0,0,1-3.267,1.752h-.106c-2.2,0-3.985,2.495-3.985,5.574s1.784,5.566,3.985,5.566a2.989,2.989,0,0,0,1.388-.347,5.758,5.758,0,0,1,4.827-.094,5.026,5.026,0,0,0,4.083,0,5.749,5.749,0,0,1,4.782.094,2.977,2.977,0,0,0,1.372.339c2.2,0,3.985-2.495,3.985-5.574A7.114,7.114,0,0,0,906.36,300.942Z" transform="translate(85.921 1298.972)" fill="#ff4f18" opacity="0.1"/>
    <path id="Path_218" data-name="Path 218" d="M900.446,319.622a5.9,5.9,0,0,0-3.418.372,5.015,5.015,0,0,1-2.042.433,5.067,5.067,0,0,1-2.042-.441,5.717,5.717,0,0,0-4.822.094,3,3,0,0,1-1.388.347c-1.956,0-3.585-1.972-3.924-4.569a3.778,3.778,0,0,0,.98-1.053,5.487,5.487,0,0,1,9.8-.033,3.773,3.773,0,0,0,3.267,1.784h.053C898.433,316.556,899.78,317.8,900.446,319.622Z" transform="translate(85.886 1288.458)" opacity="0.03"/>
    <path id="Path_219" data-name="Path 219" d="M779.777,180.771l5.08,3.222-3.083-5.606a5.018,5.018,0,0,1,3.071-1.1h.082a6.045,6.045,0,0,0,1.054-.082L787.7,178.3l-.735-1.343a6.125,6.125,0,0,0,3.009-2.311l3.079,1.952-1.944-3.536a9.006,9.006,0,0,1,6.9-3.491,9.46,9.46,0,0,1,7.9,4.876,5.9,5.9,0,0,0,5.219,2.813h.176c3.536,0,6.4,4.01,6.4,8.955s-2.858,8.955-6.4,8.955a4.823,4.823,0,0,1-2.234-.555,9.232,9.232,0,0,0-7.758-.155,8.081,8.081,0,0,1-6.591,0,9.237,9.237,0,0,0-7.681.151,4.81,4.81,0,0,1-2.205.543c-3.536,0-6.4-4.01-6.4-8.955A11.369,11.369,0,0,1,779.777,180.771Z" transform="translate(147.644 1372.593)" fill="#ff4f18" opacity="0.1"/>
    <path id="Path_220" data-name="Path 220" d="M805.17,210.729a9.436,9.436,0,0,1,5.484.6,8.081,8.081,0,0,0,6.591,0,9.249,9.249,0,0,1,7.758.151,4.8,4.8,0,0,0,2.234.559c3.14,0,5.753-3.165,6.3-7.35a6.1,6.1,0,0,1-1.568-1.695,9.457,9.457,0,0,0-7.9-4.871c-3.205,0-6.019,1.882-7.86,4.818a6.064,6.064,0,0,1-5.219,2.858H810.9C808.388,205.829,806.224,207.822,805.17,210.729Z" transform="translate(131.823 1355.701)" opacity="0.03"/>
    <path id="Path_221" data-name="Path 221" d="M285.4,659.664c-1.686-3.12.225-6.942,2.421-9.722s4.88-5.68,4.822-9.224c-.082-5.1-5.492-8.105-9.8-10.8a47.77,47.77,0,0,1-8.8-7.068,12.857,12.857,0,0,1-2.707-3.622,14.767,14.767,0,0,1-.817-6.443q.282-10.9,1.078-21.789" transform="translate(448.169 1123.254)" fill="none" stroke="#3f3d56" stroke-miterlimit="10" stroke-width="4"/>
    <path id="Path_222" data-name="Path 222" d="M253.068,579.011a7.926,7.926,0,0,1,3.969-6.533l1.776,3.516-.061-4.243a7.84,7.84,0,0,1,2.617-.314,7.946,7.946,0,1,1-8.3,7.575Z" transform="translate(458.487 1134.829)" fill="#ff4f18"/>
    <path id="Path_223" data-name="Path 223" d="M286.512,704.909a7.946,7.946,0,1,0-.384-6.4l4.961,4.038-5.459-1.266A7.828,7.828,0,0,0,286.512,704.909Z" transform="translate(439.216 1062.705)" fill="#ff4f18"/>
    <path id="Path_224" data-name="Path 224" d="M286.415,660.875a7.946,7.946,0,0,0,2.519-15.59l.041,3.267-1.8-3.565h-.02a7.949,7.949,0,1,0-.739,15.882Z" transform="translate(443.237 1091.311)" fill="#ff4f18"/>
    <path id="Path_225" data-name="Path 225" d="M239.182,629.454a7.946,7.946,0,1,0-3.516-14.872l1.4,3.851-2.887-2.777a7.914,7.914,0,0,0-2.568,5.488,7.759,7.759,0,0,0,.2,2.189A7.942,7.942,0,0,0,239.182,629.454Z" transform="translate(471.18 1109.894)" fill="#ff4f18"/>
    <path id="Path_226" data-name="Path 226" d="M254.4,587.421c1.833.2,3.618.772,5.459.886a5.928,5.928,0,0,0,5.023-1.756,25.145,25.145,0,0,0,1.474-2.585,5.644,5.644,0,0,1,2-1.887,7.946,7.946,0,1,1-14.855,5.276A8.089,8.089,0,0,1,254.4,587.421Z" transform="translate(458.226 1128.526)" fill="#ff4f18" opacity="0.1"/>
    <path id="Path_227" data-name="Path 227" d="M239.463,636.045a7.95,7.95,0,0,0,7.558-11.335,5.856,5.856,0,0,0-1.6,1.6,25.336,25.336,0,0,1-1.572,2.626,6.478,6.478,0,0,1-5.272,1.842c-1.919-.09-3.769-.629-5.68-.817-.261-.024-.531-.041-.817-.049A7.942,7.942,0,0,0,239.463,636.045Z" transform="translate(470.9 1103.303)" opacity="0.1"/>
    <path id="Path_228" data-name="Path 228" d="M286.928,667.7a7.946,7.946,0,0,0,7.624-11.188,6.4,6.4,0,0,0-1.682,1.633,26.683,26.683,0,0,1-1.723,2.679,7.272,7.272,0,0,1-5.627,1.972c-1.968-.041-3.863-.527-5.819-.674A7.954,7.954,0,0,0,286.928,667.7Z" transform="translate(442.725 1084.488)" opacity="0.1"/>
    <path id="Path_229" data-name="Path 229" d="M287.79,712.294a7.946,7.946,0,0,0,14.484-6.484,7.991,7.991,0,0,0-1.744,1.556,31.128,31.128,0,0,1-2.127,2.822,9.965,9.965,0,0,1-6.582,2.315A34.687,34.687,0,0,1,287.79,712.294Z" transform="translate(437.938 1055.319)" opacity="0.1"/>
    <path id="Path_230" data-name="Path 230" d="M867.531,678.114c-1.225-2.3.167-5.129,1.793-7.183s3.6-4.194,3.557-6.811c-.057-3.765-4.055-5.986-7.244-7.983a35.232,35.232,0,0,1-6.509-5.235,9.616,9.616,0,0,1-2-2.679,10.915,10.915,0,0,1-.6-4.757q.208-8.052.817-16.1" transform="translate(101.447 1101.729)" fill="none" stroke="#3f3d56" stroke-miterlimit="10" stroke-width="4"/>
    <path id="Path_231" data-name="Path 231" d="M843.64,618.552a5.88,5.88,0,0,1,2.932-4.81l1.315,2.6-.041-3.148a5.96,5.96,0,0,1,1.935-.233,5.872,5.872,0,1,1-6.125,5.59Z" transform="translate(109.061 1110.258)" fill="#ff4f18"/>
    <path id="Path_232" data-name="Path 232" d="M868.351,711.6a5.868,5.868,0,1,0-.286-4.724l3.675,2.985-4.03-.935A5.8,5.8,0,0,0,868.351,711.6Z" transform="translate(94.82 1056.952)" fill="#ff4f18"/>
    <path id="Path_233" data-name="Path 233" d="M868.265,678.98a5.872,5.872,0,0,0,6.125-5.59,5.794,5.794,0,0,0-.506-2.671,5.884,5.884,0,0,0-3.769-3.267l.029,2.421-1.327-2.634h0a5.876,5.876,0,1,0-.551,11.74Z" transform="translate(97.805 1078.143)" fill="#ff4f18"/>
    <path id="Path_234" data-name="Path 234" d="M833.374,655.814a5.872,5.872,0,1,0-2.593-10.984l1.037,2.858-2.136-2.042a5.831,5.831,0,0,0-1.895,4.051,5.719,5.719,0,0,0,.147,1.633,5.868,5.868,0,0,0,5.439,4.484Z" transform="translate(118.445 1091.844)" fill="#ff4f18"/>
    <path id="Path_235" data-name="Path 235" d="M844.645,624.775c1.352.151,2.671.572,4.03.657a4.38,4.38,0,0,0,3.712-1.3,17.584,17.584,0,0,0,1.086-1.911,4.2,4.2,0,0,1,1.478-1.392,5.862,5.862,0,1,1-10.952,3.9C844.2,624.734,844.408,624.75,844.645,624.775Z" transform="translate(108.848 1105.599)" opacity="0.1"/>
    <path id="Path_236" data-name="Path 236" d="M833.6,660.691a5.876,5.876,0,0,0,5.586-8.371A4.4,4.4,0,0,0,838,653.5a17.506,17.506,0,0,1-1.16,1.94,4.806,4.806,0,0,1-3.9,1.364c-1.417-.065-2.781-.47-4.194-.6-.2-.02-.408-.033-.592-.037A5.868,5.868,0,0,0,833.6,660.691Z" transform="translate(118.22 1086.967)" opacity="0.1"/>
    <path id="Path_237" data-name="Path 237" d="M868.653,684.031a5.872,5.872,0,0,0,6.125-5.59,5.794,5.794,0,0,0-.506-2.67,4.726,4.726,0,0,0-1.225,1.192,20.1,20.1,0,0,1-1.274,1.976,5.431,5.431,0,0,1-4.157,1.458c-1.5-.037-2.858-.388-4.3-.5a5.864,5.864,0,0,0,5.333,4.132Z" transform="translate(97.417 1073.093)" fill="#ff4f18" opacity="0.1"/>
    <path id="Path_238" data-name="Path 238" d="M869.28,717.066a16.73,16.73,0,1,1,9.412-3.638,23.834,23.834,0,0,1-1.572,2.087,7.359,7.359,0,0,1-4.859,1.707A24.877,24.877,0,0,1,869.28,717.066Z" transform="translate(93.891 1051.491)" opacity="0.1"/>
    <path id="Path_239" data-name="Path 239" d="M994.672,666.67c1.686-3.12-.225-6.942-2.421-9.723s-4.9-5.68-4.823-9.224c.082-5.1,5.492-8.105,9.8-10.8a47.77,47.77,0,0,0,8.808-7.068,12.861,12.861,0,0,0,2.707-3.622,14.769,14.769,0,0,0,.817-6.444q-.257-10.919-1.074-21.785" transform="translate(23.988 1119.106)" fill="none" stroke="#3f3d56" stroke-miterlimit="10" stroke-width="4"/>
    <path id="Path_240" data-name="Path 240" d="M1036.113,585.993a7.938,7.938,0,0,0-3.969-6.533l-1.78,3.52.057-4.259a7.852,7.852,0,0,0-2.617-.314,7.946,7.946,0,1,0,8.309,7.587Z" transform="translate(4.58 1130.705)" fill="#ff4f18"/>
    <path id="Path_241" data-name="Path 241" d="M1002.667,711.909a7.946,7.946,0,1,1,.384-6.4l-4.961,4.038,5.459-1.266A7.829,7.829,0,0,1,1002.667,711.909Z" transform="translate(23.853 1058.563)" fill="#ff4f18"/>
    <path id="Path_242" data-name="Path 242" d="M1002.742,667.875a7.946,7.946,0,0,1-2.52-15.59l-.041,3.267,1.821-3.565h0a7.95,7.95,0,1,1,.739,15.882Z" transform="translate(19.854 1087.169)" fill="#ff4f18"/>
    <path id="Path_243" data-name="Path 243" d="M1050.006,636.454a7.946,7.946,0,1,1,3.516-14.872l-1.4,3.851,2.887-2.777a7.946,7.946,0,0,1-5,13.8Z" transform="translate(-8.12 1105.752)" fill="#ff4f18"/>
    <path id="Path_244" data-name="Path 244" d="M1035.047,594.421c-1.833.2-3.618.772-5.459.886a5.928,5.928,0,0,1-5.023-1.756,25.128,25.128,0,0,1-1.474-2.585,5.644,5.644,0,0,0-2-1.887,7.946,7.946,0,1,0,14.855,5.276A8.462,8.462,0,0,0,1035.047,594.421Z" transform="translate(4.577 1124.384)" opacity="0.1"/>
    <path id="Path_245" data-name="Path 245" d="M1050,643.045a7.95,7.95,0,0,1-7.558-11.335,5.856,5.856,0,0,1,1.6,1.6,25.347,25.347,0,0,0,1.572,2.626,6.478,6.478,0,0,0,5.272,1.842c1.919-.09,3.769-.629,5.68-.817.261-.024.531-.041.817-.049A7.942,7.942,0,0,1,1050,643.045Z" transform="translate(-8.11 1099.161)" opacity="0.1"/>
    <path id="Path_246" data-name="Path 246" d="M1002.756,674.7a7.946,7.946,0,0,1-7.624-11.188,6.4,6.4,0,0,1,1.682,1.633,26.679,26.679,0,0,0,1.723,2.679,7.272,7.272,0,0,0,5.627,1.972c1.968-.041,3.863-.527,5.819-.674A7.954,7.954,0,0,1,1002.756,674.7Z" transform="translate(19.84 1080.346)" opacity="0.1"/>
    <path id="Path_247" data-name="Path 247" d="M1002.768,719.294A7.946,7.946,0,0,1,988.3,712.81a7.992,7.992,0,0,1,1.744,1.556,31.108,31.108,0,0,0,2.127,2.822,9.965,9.965,0,0,0,6.582,2.315A34.674,34.674,0,0,0,1002.768,719.294Z" transform="translate(23.752 1051.177)" opacity="0.1"/>
    <path id="Path_248" data-name="Path 248" d="M276.83,748.462s6.268-.2,8.167-1.539,9.649-2.952,10.119-.817,9.424,10.735,2.344,10.792-16.452-1.1-18.338-2.25S276.83,748.462,276.83,748.462Z" transform="translate(444.423 1032.092)" fill="#656380"/>
    <path id="Path_249" data-name="Path 249" d="M297.578,761.073c-7.081.057-16.452-1.1-18.338-2.25-1.437-.874-2.009-4.014-2.2-5.464h-.208s.408,5.055,2.283,6.207,11.258,2.307,18.338,2.25c2.042,0,2.748-.743,2.711-1.817C299.876,760.657,299.1,761.061,297.578,761.073Z" transform="translate(444.423 1027.185)" opacity="0.2"/>
    <path id="Path_250" data-name="Path 250" d="M865,748.614s3.675-.11,4.765-.9,5.631-1.723,5.9-.461,5.5,6.264,1.368,6.3-9.6-.641-10.707-1.315S865,748.614,865,748.614Z" transform="translate(96.423 1031.163)" fill="#656380"/>
    <path id="Path_251" data-name="Path 251" d="M877.095,755.974c-4.132.033-9.6-.645-10.707-1.315-.817-.51-1.172-2.344-1.282-3.189H865s.233,2.952,1.331,3.622,6.574,1.352,10.707,1.315c1.192,0,1.6-.433,1.58-1.062C878.438,755.729,877.981,755.966,877.095,755.974Z" transform="translate(96.423 1028.303)" opacity="0.2"/>
    <path id="Path_252" data-name="Path 252" d="M975.83,752.462s6.268-.2,8.167-1.539,9.649-2.952,10.119-.817,9.424,10.735,2.344,10.792-16.452-1.1-18.338-2.25S975.83,752.462,975.83,752.462Z" transform="translate(30.849 1029.725)" fill="#656380"/>
    <path id="Path_253" data-name="Path 253" d="M996.578,765.073c-7.081.057-16.452-1.1-18.338-2.25-1.437-.874-2.009-4.014-2.2-5.464h-.208s.408,5.055,2.283,6.207,11.258,2.307,18.338,2.25c2.042,0,2.748-.743,2.711-1.817C998.876,764.657,998.1,765.061,996.578,765.073Z" transform="translate(30.849 1024.819)" opacity="0.2"/>
  </g>
</svg>
